SplineFontDB: 3.2
FontName: FdSymbolD-Demi
FullName: FdSymbolD-Demi
FamilyName: FdSymbolD
Weight: Demi
Copyright: Copyright (c) 2011-2025, Michael Ummels. This Font Software is licensed under the SIL Open Font License, Version 1.1.
Version: 1.010
ItalicAngle: 0
UnderlinePosition: -100
UnderlineWidth: 50
Ascent: 800
Descent: 200
InvalidEm: 0
LayerCount: 2
Layer: 0 0 "Back" 1
Layer: 1 0 "Fore" 0
OS2Version: 0
OS2_WeightWidthSlopeOnly: 0
OS2_UseTypoMetrics: 0
CreationTime: 1739799035
ModificationTime: 1739799035
OS2TypoAscent: 0
OS2TypoAOffset: 1
OS2TypoDescent: 0
OS2TypoDOffset: 1
OS2TypoLinegap: 0
OS2WinAscent: 0
OS2WinAOffset: 1
OS2WinDescent: 0
OS2WinDOffset: 1
HheadAscent: 0
HheadAOffset: 1
HheadDescent: 0
HheadDOffset: 1
OS2Vendor: 'PfEd'
DEI: 91125
Encoding: Custom
UnicodeInterp: none
NameList: AGL For New Fonts
DisplaySize: -48
AntiAlias: 1
FitToEm: 0
BeginPrivate: 2
BlueValues 31 [-10 0 546 556 707 717 754 764]
OtherBlues 11 [-230 -220]
EndPrivate
BeginChars: 256 232

StartChar: uni219B
Encoding: 0 8603 0
Width: 930
Flags: HW
HStem: 263 74<90 340 438 714>
LayerCount: 2
Fore
SplineSet
452 571 m 1
 515 548 l 1
 438 337 l 1
 714 337 l 1
 625 426 l 1
 677 478 l 1
 855 300 l 1
 677 122 l 1
 625 174 l 1
 714 263 l 1
 411 263 l 1
 326 29 l 1
 263 52 l 1
 340 263 l 1
 90 263 l 1
 90 337 l 1
 367 337 l 1
 452 571 l 1
EndSplineSet
EndChar

StartChar: uni21910338
Encoding: 1 -1 1
Width: 710
Flags: HW
VStem: 318 74<-75 175 273 549>
LayerCount: 2
Fore
SplineSet
107 98 m 1
 84 161 l 1
 318 246 l 1
 318 549 l 1
 229 460 l 1
 177 512 l 1
 355 690 l 1
 533 512 l 1
 481 460 l 1
 392 549 l 1
 392 273 l 1
 603 350 l 1
 626 287 l 1
 392 202 l 1
 392 -75 l 1
 318 -75 l 1
 318 175 l 1
 107 98 l 1
EndSplineSet
EndChar

StartChar: uni219A
Encoding: 2 8602 2
Width: 930
Flags: HW
HStem: 263 74<216 492 590 840>
LayerCount: 2
Fore
SplineSet
478 29 m 1
 415 52 l 1
 492 263 l 1
 216 263 l 1
 305 174 l 1
 253 122 l 1
 75 300 l 1
 253 478 l 1
 305 426 l 1
 216 337 l 1
 519 337 l 1
 604 571 l 1
 667 548 l 1
 590 337 l 1
 840 337 l 1
 840 263 l 1
 563 263 l 1
 478 29 l 1
EndSplineSet
EndChar

StartChar: uni21930338
Encoding: 3 -1 3
Width: 710
Flags: HW
VStem: 318 74<51 327 425 675>
LayerCount: 2
Fore
SplineSet
603 502 m 1
 626 439 l 1
 392 354 l 1
 392 51 l 1
 481 140 l 1
 533 88 l 1
 355 -90 l 1
 177 88 l 1
 229 140 l 1
 318 51 l 1
 318 327 l 1
 107 250 l 1
 84 313 l 1
 318 398 l 1
 318 675 l 1
 392 675 l 1
 392 425 l 1
 603 502 l 1
EndSplineSet
EndChar

StartChar: uni21970338
Encoding: 4 -1 4
Width: 1085
Flags: HW
HStem: 502 74<567 692>
VStem: 745 74<324 450>
LayerCount: 2
Fore
SplineSet
342 482 m 1
 402 510 l 1
 497 307 l 1
 692 502 l 1
 567 502 l 1
 567 576 l 1
 819 576 l 1
 819 324 l 1
 745 324 l 1
 745 450 l 1
 530 235 l 1
 636 10 l 1
 575 -18 l 1
 480 185 l 1
 304 9 l 1
 251 61 l 1
 447 257 l 1
 342 482 l 1
EndSplineSet
EndChar

StartChar: uni21960338
Encoding: 5 -1 5
Width: 1085
Flags: HW
HStem: 502 74<393 519>
VStem: 267 74<324 449>
LayerCount: 2
Fore
SplineSet
510 -18 m 1
 449 10 l 1
 555 236 l 1
 341 449 l 1
 341 324 l 1
 267 324 l 1
 267 576 l 1
 519 576 l 1
 519 502 l 1
 393 502 l 1
 588 307 l 1
 683 510 l 1
 743 482 l 1
 638 257 l 1
 834 61 l 1
 782 9 l 1
 605 186 l 1
 510 -18 l 1
EndSplineSet
EndChar

StartChar: uni21990338
Encoding: 6 -1 6
Width: 1085
Flags: HW
HStem: 24 74<393 519>
VStem: 267 74<151 276>
LayerCount: 2
Fore
SplineSet
743 118 m 1
 683 90 l 1
 588 293 l 1
 393 98 l 1
 519 98 l 1
 519 24 l 1
 267 24 l 1
 267 276 l 1
 341 276 l 1
 341 151 l 1
 555 364 l 1
 449 590 l 1
 510 618 l 1
 605 414 l 1
 782 591 l 1
 834 539 l 1
 638 343 l 1
 743 118 l 1
EndSplineSet
EndChar

StartChar: uni21980338
Encoding: 7 -1 7
Width: 1085
Flags: HW
HStem: 24 74<567 692>
VStem: 745 74<150 276>
LayerCount: 2
Fore
SplineSet
575 618 m 1
 636 590 l 1
 530 365 l 1
 745 150 l 1
 745 276 l 1
 819 276 l 1
 819 24 l 1
 567 24 l 1
 567 98 l 1
 692 98 l 1
 497 293 l 1
 402 90 l 1
 342 118 l 1
 447 343 l 1
 251 539 l 1
 304 591 l 1
 480 415 l 1
 575 618 l 1
EndSplineSet
EndChar

StartChar: uni21CF
Encoding: 8 8655 8
Width: 1080
Flags: HW
HStem: 168 74<90 304 402 768> 358 74<90 374 472 768>
LayerCount: 2
Fore
SplineSet
843 358 m 1
 445 358 l 1
 402 242 l 1
 843 242 l 1
 901 300 l 1
 843 358 l 1
473 631 m 1
 536 609 l 1
 472 432 l 1
 768 432 l 1
 729 471 l 1
 782 524 l 1
 1005 300 l 1
 782 76 l 1
 729 129 l 1
 768 168 l 1
 375 168 l 1
 303 -31 l 1
 240 -9 l 1
 304 168 l 1
 90 168 l 1
 90 242 l 1
 331 242 l 1
 374 358 l 1
 90 358 l 1
 90 432 l 1
 401 432 l 1
 473 631 l 1
EndSplineSet
EndChar

StartChar: uni21D10338
Encoding: 9 -1 9
Width: 832
Flags: HW
HStem: 0 21G<99.6984 162.312> 745 20G<395.91 436.09>
VStem: 284 74<-150 64 163 529> 474 74<-150 134 232 528>
LayerCount: 2
Fore
SplineSet
358 603 m 1
 358 163 l 1
 474 205 l 1
 474 603 l 1
 416 661 l 1
 358 603 l 1
107 0 m 1
 84 63 l 1
 284 136 l 1
 284 529 l 1
 244 489 l 1
 192 542 l 1
 416 765 l 1
 640 542 l 1
 587 489 l 1
 548 528 l 1
 548 232 l 1
 725 296 l 1
 747 233 l 1
 548 161 l 1
 548 -150 l 1
 474 -150 l 1
 474 134 l 1
 358 91 l 1
 358 -150 l 1
 284 -150 l 1
 284 64 l 1
 107 0 l 1
EndSplineSet
EndChar

StartChar: uni21CD
Encoding: 10 8653 10
Width: 1080
Flags: HW
HStem: 168 74<312 608 706 990> 358 74<312 678 776 990>
LayerCount: 2
Fore
SplineSet
237 242 m 1
 635 242 l 1
 678 358 l 1
 237 358 l 1
 179 300 l 1
 237 242 l 1
607 -31 m 1
 544 -9 l 1
 608 168 l 1
 312 168 l 1
 351 129 l 1
 298 76 l 1
 75 300 l 1
 298 524 l 1
 351 471 l 1
 312 432 l 1
 705 432 l 1
 777 631 l 1
 840 609 l 1
 776 432 l 1
 990 432 l 1
 990 358 l 1
 749 358 l 1
 706 242 l 1
 990 242 l 1
 990 168 l 1
 679 168 l 1
 607 -31 l 1
EndSplineSet
EndChar

StartChar: uni21D30338
Encoding: 11 -1 11
Width: 832
Flags: HW
VStem: 284 74<71 368 467 750> 474 74<72 438 536 750>
LayerCount: 2
Fore
SplineSet
474 -3 m 1
 474 438 l 1
 358 395 l 1
 358 -3 l 1
 416 -61 l 1
 474 -3 l 1
725 600 m 1
 747 537 l 1
 548 465 l 1
 548 72 l 1
 587 111 l 1
 640 58 l 1
 416 -165 l 1
 192 58 l 1
 244 111 l 1
 284 71 l 1
 284 368 l 1
 107 304 l 1
 84 367 l 1
 284 440 l 1
 284 750 l 1
 358 750 l 1
 358 467 l 1
 474 509 l 1
 474 750 l 1
 548 750 l 1
 548 536 l 1
 725 600 l 1
EndSplineSet
EndChar

StartChar: uni21D70338
Encoding: 12 -1 12
Width: 1277
Flags: HW
HStem: 555 74<651 707 811 894>
VStem: 894 74<313 369 474 555>
LayerCount: 2
Fore
SplineSet
811 555 m 1
 530 274 l 1
 582 162 l 1
 894 474 l 1
 894 555 l 1
 811 555 l 1
357 487 m 1
 417 515 l 1
 497 345 l 1
 707 555 l 1
 651 555 l 1
 651 629 l 1
 968 629 l 1
 968 313 l 1
 894 313 l 1
 894 369 l 1
 615 90 l 1
 705 -102 l 1
 645 -130 l 1
 566 40 l 1
 414 -112 l 1
 361 -59 l 1
 532 112 l 1
 480 224 l 1
 279 23 l 1
 227 75 l 1
 447 295 l 1
 357 487 l 1
EndSplineSet
EndChar

StartChar: uni21D60338
Encoding: 13 -1 13
Width: 1277
Flags: HW
HStem: 555 74<384 466 570 626>
VStem: 310 74<313 368 473 555>
LayerCount: 2
Fore
SplineSet
384 473 m 1
 695 162 l 1
 747 274 l 1
 466 555 l 1
 384 555 l 1
 384 473 l 1
632 -130 m 1
 572 -102 l 1
 662 90 l 1
 384 368 l 1
 384 313 l 1
 310 313 l 1
 310 629 l 1
 626 629 l 1
 626 555 l 1
 570 555 l 1
 780 345 l 1
 860 515 l 1
 920 487 l 1
 830 295 l 1
 1050 75 l 1
 998 23 l 1
 797 224 l 1
 745 112 l 1
 916 -59 l 1
 863 -112 l 1
 711 40 l 1
 632 -130 l 1
EndSplineSet
EndChar

StartChar: uni21D90338
Encoding: 14 -1 14
Width: 1277
Flags: HW
HStem: -29 74<384 466 570 626> 692 20G<843 883>
VStem: 310 74<45 127 232 287>
LayerCount: 2
Fore
SplineSet
466 45 m 1
 747 326 l 1
 695 438 l 1
 384 127 l 1
 384 45 l 1
 466 45 l 1
920 113 m 1
 860 85 l 1
 780 255 l 1
 570 45 l 1
 626 45 l 1
 626 -29 l 1
 310 -29 l 1
 310 287 l 1
 384 287 l 1
 384 232 l 1
 662 510 l 1
 572 702 l 1
 632 730 l 1
 711 560 l 1
 863 712 l 1
 916 659 l 1
 745 488 l 1
 797 376 l 1
 998 577 l 1
 1050 525 l 1
 830 305 l 1
 920 113 l 1
EndSplineSet
EndChar

StartChar: uni21D80338
Encoding: 15 -1 15
Width: 1277
Flags: HW
HStem: -29 74<651 707 811 894> 692 20G<394 434>
VStem: 894 74<45 126 231 287>
LayerCount: 2
Fore
SplineSet
894 126 m 1
 582 438 l 1
 530 326 l 1
 811 45 l 1
 894 45 l 1
 894 126 l 1
645 730 m 1
 705 702 l 1
 615 510 l 1
 894 231 l 1
 894 287 l 1
 968 287 l 1
 968 -29 l 1
 651 -29 l 1
 651 45 l 1
 707 45 l 1
 497 255 l 1
 417 85 l 1
 357 113 l 1
 447 305 l 1
 227 525 l 1
 279 577 l 1
 480 376 l 1
 532 488 l 1
 361 659 l 1
 414 712 l 1
 566 560 l 1
 645 730 l 1
EndSplineSet
EndChar

StartChar: uni21AE
Encoding: 16 8622 16
Width: 1080
Flags: HW
HStem: 263 74<216 491 589 864>
LayerCount: 2
Fore
SplineSet
603 571 m 1
 666 548 l 1
 589 337 l 1
 864 337 l 1
 775 426 l 1
 827 478 l 1
 1005 300 l 1
 827 122 l 1
 775 174 l 1
 864 263 l 1
 562 263 l 1
 477 29 l 1
 414 52 l 1
 491 263 l 1
 216 263 l 1
 305 174 l 1
 253 122 l 1
 75 300 l 1
 253 478 l 1
 305 426 l 1
 216 337 l 1
 518 337 l 1
 603 571 l 1
EndSplineSet
EndChar

StartChar: uni21950338
Encoding: 17 -1 17
Width: 710
Flags: HW
HStem: 745 20G<335 375>
VStem: 318 74<-24 251 349 624>
LayerCount: 2
Fore
SplineSet
107 174 m 1
 84 237 l 1
 318 322 l 1
 318 624 l 1
 229 535 l 1
 177 587 l 1
 355 765 l 1
 533 587 l 1
 481 535 l 1
 392 624 l 1
 392 349 l 1
 603 426 l 1
 626 363 l 1
 392 278 l 1
 392 -24 l 1
 481 65 l 1
 533 13 l 1
 355 -165 l 1
 177 13 l 1
 229 65 l 1
 318 -24 l 1
 318 251 l 1
 107 174 l 1
EndSplineSet
EndChar

StartChar: uni29210338
Encoding: 18 -1 18
Width: 1191
Flags: HW
HStem: -29 74<393 519> 555 74<673 798>
VStem: 267 74<98 223> 851 74<377 503>
LayerCount: 2
Fore
SplineSet
449 536 m 1
 509 564 l 1
 604 361 l 1
 798 555 l 1
 673 555 l 1
 673 629 l 1
 925 629 l 1
 925 377 l 1
 851 377 l 1
 851 503 l 1
 637 289 l 1
 742 64 l 1
 682 36 l 1
 587 239 l 1
 393 45 l 1
 519 45 l 1
 519 -29 l 1
 267 -29 l 1
 267 223 l 1
 341 223 l 1
 341 98 l 1
 554 311 l 1
 449 536 l 1
EndSplineSet
EndChar

StartChar: uni29220338
Encoding: 19 -1 19
Width: 1191
Flags: HW
HStem: -29 74<673 798> 555 74<393 519>
VStem: 267 74<377 502> 851 74<97 223>
LayerCount: 2
Fore
SplineSet
509 36 m 1
 449 64 l 1
 554 289 l 1
 341 502 l 1
 341 377 l 1
 267 377 l 1
 267 629 l 1
 519 629 l 1
 519 555 l 1
 393 555 l 1
 587 361 l 1
 682 564 l 1
 742 536 l 1
 637 311 l 1
 851 97 l 1
 851 223 l 1
 925 223 l 1
 925 -29 l 1
 673 -29 l 1
 673 45 l 1
 798 45 l 1
 604 239 l 1
 509 36 l 1
EndSplineSet
EndChar

StartChar: uni21CE
Encoding: 20 8654 20
Width: 1230
Flags: HW
HStem: 168 74<312 531 629 918> 358 74<312 601 699 918>
LayerCount: 2
Fore
SplineSet
237 358 m 1
 179 300 l 1
 237 242 l 1
 558 242 l 1
 601 358 l 1
 237 358 l 1
993 358 m 1
 672 358 l 1
 629 242 l 1
 993 242 l 1
 1051 300 l 1
 993 358 l 1
700 631 m 1
 763 609 l 1
 699 432 l 1
 918 432 l 1
 879 471 l 1
 932 524 l 1
 1155 300 l 1
 932 76 l 1
 879 129 l 1
 918 168 l 1
 602 168 l 1
 530 -31 l 1
 467 -9 l 1
 531 168 l 1
 312 168 l 1
 351 129 l 1
 298 76 l 1
 75 300 l 1
 298 524 l 1
 351 471 l 1
 312 432 l 1
 628 432 l 1
 700 631 l 1
EndSplineSet
EndChar

StartChar: uni21D50338
Encoding: 21 -1 21
Width: 832
Flags: HW
VStem: 284 74<-4 216 315 604> 474 74<-3 286 384 603>
LayerCount: 2
Fore
SplineSet
358 -78 m 1
 416 -136 l 1
 474 -78 l 1
 474 286 l 1
 358 243 l 1
 358 -78 l 1
358 678 m 1
 358 315 l 1
 474 357 l 1
 474 678 l 1
 416 736 l 1
 358 678 l 1
107 152 m 1
 84 215 l 1
 284 288 l 1
 284 604 l 1
 244 564 l 1
 192 617 l 1
 416 840 l 1
 640 617 l 1
 587 564 l 1
 548 603 l 1
 548 384 l 1
 725 448 l 1
 747 385 l 1
 548 313 l 1
 548 -3 l 1
 587 36 l 1
 640 -17 l 1
 416 -240 l 1
 192 -17 l 1
 244 36 l 1
 284 -4 l 1
 284 216 l 1
 107 152 l 1
EndSplineSet
EndChar

StartChar: sym030_uni0338
Encoding: 22 -1 22
Width: 1383
Flags: HW
HStem: -82 74<384 466 570 626> 608 74<757 813 917 1000>
VStem: 310 74<-8 74 179 234> 1000 74<366 422 526 608>
LayerCount: 2
Fore
SplineSet
384 74 m 1
 384 -8 l 1
 466 -8 l 1
 692 218 l 1
 640 331 l 1
 384 74 l 1
917 608 m 1
 691 381 l 1
 743 269 l 1
 1000 526 l 1
 1000 608 l 1
 917 608 l 1
517 595 m 1
 578 623 l 1
 657 452 l 1
 813 608 l 1
 757 608 l 1
 757 682 l 1
 1074 682 l 1
 1074 366 l 1
 1000 366 l 1
 1000 422 l 1
 776 198 l 1
 866 5 l 1
 805 -23 l 1
 726 148 l 1
 570 -8 l 1
 626 -8 l 1
 626 -82 l 1
 310 -82 l 1
 310 234 l 1
 384 234 l 1
 384 179 l 1
 607 402 l 1
 517 595 l 1
EndSplineSet
EndChar

StartChar: sym031_uni0338
Encoding: 23 -1 23
Width: 1383
Flags: HW
HStem: -82 74<757 813 917 1000> 608 74<384 466 570 626>
VStem: 310 74<366 421 526 608> 1000 74<-8 74 178 234>
LayerCount: 2
Fore
SplineSet
917 -8 m 1
 1000 -8 l 1
 1000 74 l 1
 743 331 l 1
 691 219 l 1
 917 -8 l 1
384 526 m 1
 640 269 l 1
 692 382 l 1
 466 608 l 1
 384 608 l 1
 384 526 l 1
578 -23 m 1
 517 5 l 1
 607 198 l 1
 384 421 l 1
 384 366 l 1
 310 366 l 1
 310 682 l 1
 626 682 l 1
 626 608 l 1
 570 608 l 1
 726 452 l 1
 805 623 l 1
 866 595 l 1
 776 402 l 1
 1000 178 l 1
 1000 234 l 1
 1074 234 l 1
 1074 -82 l 1
 757 -82 l 1
 757 -8 l 1
 813 -8 l 1
 657 148 l 1
 578 -23 l 1
EndSplineSet
EndChar

StartChar: uni21A00338
Encoding: 24 -1 24
Width: 1118
Flags: HW
HStem: 263 74<90 317 414 667 771 901>
LayerCount: 2
Fore
SplineSet
429 571 m 1
 491 548 l 1
 414 337 l 1
 667 337 l 1
 578 426 l 1
 630 478 l 1
 771 337 l 1
 901 337 l 1
 812 426 l 1
 865 478 l 1
 1043 300 l 1
 865 122 l 1
 812 174 l 1
 901 263 l 1
 771 263 l 1
 630 122 l 1
 578 174 l 1
 667 263 l 1
 387 263 l 1
 302 29 l 1
 240 52 l 1
 317 263 l 1
 90 263 l 1
 90 337 l 1
 344 337 l 1
 429 571 l 1
EndSplineSet
EndChar

StartChar: uni219F0338
Encoding: 25 -1 25
Width: 710
Flags: HW
HStem: 554 21G<209 249.227 460.773 501>
VStem: 318 74<-169 58 156 408 513 642>
LayerCount: 2
Fore
SplineSet
107 -19 m 1
 84 44 l 1
 318 129 l 1
 318 408 l 1
 229 319 l 1
 177 372 l 1
 318 513 l 1
 318 642 l 1
 229 554 l 1
 177 606 l 1
 355 784 l 1
 533 606 l 1
 481 554 l 1
 392 642 l 1
 392 513 l 1
 533 372 l 1
 481 319 l 1
 392 408 l 1
 392 156 l 1
 603 232 l 1
 626 170 l 1
 392 85 l 1
 392 -169 l 1
 318 -169 l 1
 318 58 l 1
 107 -19 l 1
EndSplineSet
EndChar

StartChar: uni219E0338
Encoding: 26 -1 26
Width: 1118
Flags: HW
HStem: 263 74<216 346 451 703 801 1028>
LayerCount: 2
Fore
SplineSet
689 29 m 1
 626 52 l 1
 703 263 l 1
 451 263 l 1
 540 174 l 1
 487 122 l 1
 346 263 l 1
 216 263 l 1
 305 174 l 1
 253 122 l 1
 75 300 l 1
 253 478 l 1
 305 426 l 1
 216 337 l 1
 346 337 l 1
 487 478 l 1
 540 426 l 1
 451 337 l 1
 730 337 l 1
 815 571 l 1
 878 548 l 1
 801 337 l 1
 1028 337 l 1
 1028 263 l 1
 774 263 l 1
 689 29 l 1
EndSplineSet
EndChar

StartChar: uni21A10338
Encoding: 27 -1 27
Width: 710
Flags: HW
VStem: 318 74<-42 87 192 444 542 769>
LayerCount: 2
Fore
SplineSet
603 619 m 1
 626 556 l 1
 392 471 l 1
 392 192 l 1
 481 281 l 1
 533 228 l 1
 392 87 l 1
 392 -42 l 1
 481 46 l 1
 533 -6 l 1
 355 -184 l 1
 177 -6 l 1
 229 46 l 1
 318 -42 l 1
 318 87 l 1
 177 228 l 1
 229 281 l 1
 318 192 l 1
 318 444 l 1
 107 368 l 1
 84 430 l 1
 318 515 l 1
 318 769 l 1
 392 769 l 1
 392 542 l 1
 603 619 l 1
EndSplineSet
EndChar

StartChar: sym033_uni0338
Encoding: 28 -1 28
Width: 1218
Flags: HW
HStem: 403 74<533 660> 568 74<699 825>
VStem: 711 74<225 350> 877 74<390 516>
LayerCount: 2
Fore
SplineSet
325 399 m 1
 386 428 l 1
 481 224 l 1
 660 403 l 1
 533 403 l 1
 533 477 l 1
 734 477 l 1
 825 568 l 1
 699 568 l 1
 699 642 l 1
 951 642 l 1
 951 390 l 1
 877 390 l 1
 877 516 l 1
 785 424 l 1
 785 225 l 1
 711 225 l 1
 711 350 l 1
 514 152 l 1
 619 -73 l 1
 559 -101 l 1
 464 102 l 1
 304 -58 l 1
 251 -5 l 1
 430 174 l 1
 325 399 l 1
EndSplineSet
EndChar

StartChar: sym032_uni0338
Encoding: 29 -1 29
Width: 1218
Flags: HW
HStem: 403 74<558 684> 568 74<393 519>
VStem: 267 74<390 515> 432 74<225 350>
LayerCount: 2
Fore
SplineSet
659 -101 m 1
 599 -73 l 1
 704 152 l 1
 506 350 l 1
 506 225 l 1
 432 225 l 1
 432 424 l 1
 341 515 l 1
 341 390 l 1
 267 390 l 1
 267 642 l 1
 519 642 l 1
 519 568 l 1
 393 568 l 1
 484 477 l 1
 684 477 l 1
 684 403 l 1
 558 403 l 1
 737 224 l 1
 832 428 l 1
 892 399 l 1
 787 174 l 1
 966 -5 l 1
 914 -58 l 1
 754 102 l 1
 659 -101 l 1
EndSplineSet
EndChar

StartChar: sym035_uni0338
Encoding: 30 -1 30
Width: 1218
Flags: HW
HStem: -42 74<393 519> 123 74<558 684>
VStem: 267 74<85 210> 432 74<250 375>
LayerCount: 2
Fore
SplineSet
892 201 m 1
 832 172 l 1
 737 376 l 1
 558 197 l 1
 684 197 l 1
 684 123 l 1
 484 123 l 1
 393 32 l 1
 519 32 l 1
 519 -42 l 1
 267 -42 l 1
 267 210 l 1
 341 210 l 1
 341 85 l 1
 432 176 l 1
 432 375 l 1
 506 375 l 1
 506 250 l 1
 704 448 l 1
 599 673 l 1
 659 701 l 1
 754 498 l 1
 914 658 l 1
 966 605 l 1
 787 426 l 1
 892 201 l 1
EndSplineSet
EndChar

StartChar: sym034_uni0338
Encoding: 31 -1 31
Width: 1218
Flags: HW
HStem: -42 74<699 825> 123 74<533 660>
VStem: 711 74<250 375> 877 74<84 210>
LayerCount: 2
Fore
SplineSet
559 701 m 1
 619 673 l 1
 514 448 l 1
 711 250 l 1
 711 375 l 1
 785 375 l 1
 785 176 l 1
 877 84 l 1
 877 210 l 1
 951 210 l 1
 951 -42 l 1
 699 -42 l 1
 699 32 l 1
 825 32 l 1
 734 123 l 1
 533 123 l 1
 533 197 l 1
 660 197 l 1
 481 376 l 1
 386 172 l 1
 325 201 l 1
 430 426 l 1
 251 605 l 1
 304 658 l 1
 464 498 l 1
 559 701 l 1
EndSplineSet
EndChar

StartChar: uni21A30338
Encoding: 32 -1 32
Width: 930
Flags: HW
HStem: 263 74<294 416 514 714>
LayerCount: 2
Fore
SplineSet
528 571 m 1
 591 548 l 1
 514 337 l 1
 714 337 l 1
 625 426 l 1
 677 478 l 1
 855 300 l 1
 677 122 l 1
 625 174 l 1
 714 263 l 1
 487 263 l 1
 402 29 l 1
 339 52 l 1
 416 263 l 1
 294 263 l 1
 153 122 l 1
 101 174 l 1
 227 300 l 1
 101 426 l 1
 153 478 l 1
 294 337 l 1
 443 337 l 1
 528 571 l 1
EndSplineSet
EndChar

StartChar: sym036_uni0338
Encoding: 33 -1 33
Width: 710
Flags: HW
VStem: 318 74<129 251 349 549>
LayerCount: 2
Fore
SplineSet
107 174 m 1
 84 237 l 1
 318 322 l 1
 318 549 l 1
 229 460 l 1
 177 512 l 1
 355 690 l 1
 533 512 l 1
 481 460 l 1
 392 549 l 1
 392 349 l 1
 603 426 l 1
 626 363 l 1
 392 278 l 1
 392 129 l 1
 533 -12 l 1
 481 -64 l 1
 355 62 l 1
 229 -64 l 1
 177 -12 l 1
 318 129 l 1
 318 251 l 1
 107 174 l 1
EndSplineSet
EndChar

StartChar: uni21A20338
Encoding: 34 -1 34
Width: 930
Flags: HW
HStem: 263 74<216 416 514 636>
LayerCount: 2
Fore
SplineSet
402 29 m 1
 339 52 l 1
 416 263 l 1
 216 263 l 1
 305 174 l 1
 253 122 l 1
 75 300 l 1
 253 478 l 1
 305 426 l 1
 216 337 l 1
 443 337 l 1
 528 571 l 1
 591 548 l 1
 514 337 l 1
 636 337 l 1
 777 478 l 1
 829 426 l 1
 703 300 l 1
 829 174 l 1
 777 122 l 1
 636 263 l 1
 487 263 l 1
 402 29 l 1
EndSplineSet
EndChar

StartChar: sym037_uni0338
Encoding: 35 -1 35
Width: 710
Flags: HW
VStem: 318 74<51 251 349 471>
LayerCount: 2
Fore
SplineSet
603 426 m 1
 626 363 l 1
 392 278 l 1
 392 51 l 1
 481 140 l 1
 533 88 l 1
 355 -90 l 1
 177 88 l 1
 229 140 l 1
 318 51 l 1
 318 251 l 1
 107 174 l 1
 84 237 l 1
 318 322 l 1
 318 471 l 1
 177 612 l 1
 229 664 l 1
 355 538 l 1
 481 664 l 1
 533 612 l 1
 392 471 l 1
 392 349 l 1
 603 426 l 1
EndSplineSet
EndChar

StartChar: sym039_uni0338
Encoding: 36 -1 36
Width: 1085
Flags: HW
HStem: 131 74<196 374> 502 74<567 692>
VStem: 374 74<-46 131> 745 74<324 450>
LayerCount: 2
Fore
SplineSet
396 536 m 1
 456 564 l 1
 551 361 l 1
 692 502 l 1
 567 502 l 1
 567 576 l 1
 819 576 l 1
 819 324 l 1
 745 324 l 1
 745 450 l 1
 584 289 l 1
 689 64 l 1
 629 36 l 1
 534 239 l 1
 448 153 l 1
 448 -46 l 1
 374 -46 l 1
 374 131 l 1
 196 131 l 1
 196 205 l 1
 395 205 l 1
 501 311 l 1
 396 536 l 1
EndSplineSet
EndChar

StartChar: sym038_uni0338
Encoding: 37 -1 37
Width: 1085
Flags: HW
HStem: 131 74<711 889> 502 74<393 519>
VStem: 267 74<324 449> 637 74<-46 131>
LayerCount: 2
Fore
SplineSet
456 36 m 1
 396 64 l 1
 501 289 l 1
 341 449 l 1
 341 324 l 1
 267 324 l 1
 267 576 l 1
 519 576 l 1
 519 502 l 1
 393 502 l 1
 534 361 l 1
 629 564 l 1
 689 536 l 1
 584 311 l 1
 690 205 l 1
 889 205 l 1
 889 131 l 1
 711 131 l 1
 711 -46 l 1
 637 -46 l 1
 637 153 l 1
 551 239 l 1
 456 36 l 1
EndSplineSet
EndChar

StartChar: sym03B_uni0338
Encoding: 38 -1 38
Width: 1085
Flags: HW
HStem: 24 74<393 519> 395 74<711 889>
VStem: 267 74<151 276> 637 74<469 646>
LayerCount: 2
Fore
SplineSet
689 64 m 1
 629 36 l 1
 534 239 l 1
 393 98 l 1
 519 98 l 1
 519 24 l 1
 267 24 l 1
 267 276 l 1
 341 276 l 1
 341 151 l 1
 501 311 l 1
 396 536 l 1
 456 564 l 1
 551 361 l 1
 637 447 l 1
 637 646 l 1
 711 646 l 1
 711 469 l 1
 889 469 l 1
 889 395 l 1
 690 395 l 1
 584 289 l 1
 689 64 l 1
EndSplineSet
EndChar

StartChar: sym03A_uni0338
Encoding: 39 -1 39
Width: 1085
Flags: HW
HStem: 24 74<567 692> 395 74<196 374>
VStem: 374 74<469 646> 745 74<150 276>
LayerCount: 2
Fore
SplineSet
629 564 m 1
 689 536 l 1
 584 311 l 1
 745 150 l 1
 745 276 l 1
 819 276 l 1
 819 24 l 1
 567 24 l 1
 567 98 l 1
 692 98 l 1
 551 239 l 1
 456 36 l 1
 396 64 l 1
 501 289 l 1
 395 395 l 1
 196 395 l 1
 196 469 l 1
 374 469 l 1
 374 646 l 1
 448 646 l 1
 448 447 l 1
 534 361 l 1
 629 564 l 1
EndSplineSet
EndChar

StartChar: uni21A60338
Encoding: 40 -1 40
Width: 930
Flags: HW
HStem: 263 74<164 340 438 714>
VStem: 90 74<111 263 337 489>
LayerCount: 2
Fore
SplineSet
452 571 m 1
 515 548 l 1
 438 337 l 1
 714 337 l 1
 625 426 l 1
 677 478 l 1
 855 300 l 1
 677 122 l 1
 625 174 l 1
 714 263 l 1
 411 263 l 1
 326 29 l 1
 263 52 l 1
 340 263 l 1
 164 263 l 1
 164 111 l 1
 90 111 l 1
 90 489 l 1
 164 489 l 1
 164 337 l 1
 367 337 l 1
 452 571 l 1
EndSplineSet
EndChar

StartChar: uni21A50338
Encoding: 41 -1 41
Width: 710
Flags: HW
HStem: -75 74<166 318 392 544>
VStem: 318 74<-1 175 273 549>
LayerCount: 2
Fore
SplineSet
107 98 m 1
 84 161 l 1
 318 246 l 1
 318 549 l 1
 229 460 l 1
 177 512 l 1
 355 690 l 1
 533 512 l 1
 481 460 l 1
 392 549 l 1
 392 273 l 1
 603 350 l 1
 626 287 l 1
 392 202 l 1
 392 -1 l 1
 544 -1 l 1
 544 -75 l 1
 166 -75 l 1
 166 -1 l 1
 318 -1 l 1
 318 175 l 1
 107 98 l 1
EndSplineSet
EndChar

StartChar: uni21A40338
Encoding: 42 -1 42
Width: 930
Flags: HW
HStem: 263 74<216 492 590 766>
VStem: 766 74<111 263 337 489>
LayerCount: 2
Fore
SplineSet
478 29 m 1
 415 52 l 1
 492 263 l 1
 216 263 l 1
 305 174 l 1
 253 122 l 1
 75 300 l 1
 253 478 l 1
 305 426 l 1
 216 337 l 1
 519 337 l 1
 604 571 l 1
 667 548 l 1
 590 337 l 1
 766 337 l 1
 766 489 l 1
 840 489 l 1
 840 111 l 1
 766 111 l 1
 766 263 l 1
 563 263 l 1
 478 29 l 1
EndSplineSet
EndChar

StartChar: uni21A70338
Encoding: 43 -1 43
Width: 710
Flags: HW
HStem: 601 74<166 318 392 544>
VStem: 318 74<51 327 425 601>
LayerCount: 2
Fore
SplineSet
603 502 m 1
 626 439 l 1
 392 354 l 1
 392 51 l 1
 481 140 l 1
 533 88 l 1
 355 -90 l 1
 177 88 l 1
 229 140 l 1
 318 51 l 1
 318 327 l 1
 107 250 l 1
 84 313 l 1
 318 398 l 1
 318 601 l 1
 166 601 l 1
 166 675 l 1
 544 675 l 1
 544 601 l 1
 392 601 l 1
 392 425 l 1
 603 502 l 1
EndSplineSet
EndChar

StartChar: uni29070338
Encoding: 44 -1 44
Width: 1080
Flags: HW
HStem: 168 74<164 380 478 768> 358 74<164 450 548 768>
VStem: 90 74<65 168 242 358 432 535>
LayerCount: 2
Fore
SplineSet
843 358 m 1
 521 358 l 1
 478 242 l 1
 843 242 l 1
 901 300 l 1
 843 358 l 1
164 358 m 1
 164 242 l 1
 407 242 l 1
 450 358 l 1
 164 358 l 1
549 631 m 1
 612 609 l 1
 548 432 l 1
 768 432 l 1
 729 471 l 1
 782 524 l 1
 1005 300 l 1
 782 76 l 1
 729 129 l 1
 768 168 l 1
 451 168 l 1
 379 -31 l 1
 316 -9 l 1
 380 168 l 1
 164 168 l 1
 164 65 l 1
 90 65 l 1
 90 535 l 1
 164 535 l 1
 164 432 l 1
 477 432 l 1
 549 631 l 1
EndSplineSet
EndChar

StartChar: sym03C_uni0338
Encoding: 45 -1 45
Width: 832
Flags: HW
HStem: -150 74<181 284 358 474 548 650> 745 20G<395.91 436.09>
VStem: 284 74<-76 140 239 529> 474 74<-76 210 308 528>
LayerCount: 2
Fore
SplineSet
358 603 m 1
 358 239 l 1
 474 281 l 1
 474 603 l 1
 416 661 l 1
 358 603 l 1
358 -76 m 1
 474 -76 l 1
 474 210 l 1
 358 167 l 1
 358 -76 l 1
107 76 m 1
 84 139 l 1
 284 212 l 1
 284 529 l 1
 244 489 l 1
 192 542 l 1
 416 765 l 1
 640 542 l 1
 587 489 l 1
 548 528 l 1
 548 308 l 1
 725 372 l 1
 747 309 l 1
 548 237 l 1
 548 -76 l 1
 650 -76 l 1
 650 -150 l 1
 181 -150 l 1
 181 -76 l 1
 284 -76 l 1
 284 140 l 1
 107 76 l 1
EndSplineSet
EndChar

StartChar: uni29060338
Encoding: 46 -1 46
Width: 1080
Flags: HW
HStem: 168 74<312 532 630 916> 358 74<312 602 700 916>
VStem: 916 74<65 168 242 358 432 535>
LayerCount: 2
Fore
SplineSet
237 242 m 1
 559 242 l 1
 602 358 l 1
 237 358 l 1
 179 300 l 1
 237 242 l 1
916 242 m 1
 916 358 l 1
 673 358 l 1
 630 242 l 1
 916 242 l 1
531 -31 m 1
 468 -9 l 1
 532 168 l 1
 312 168 l 1
 351 129 l 1
 298 76 l 1
 75 300 l 1
 298 524 l 1
 351 471 l 1
 312 432 l 1
 629 432 l 1
 701 631 l 1
 764 609 l 1
 700 432 l 1
 916 432 l 1
 916 535 l 1
 990 535 l 1
 990 65 l 1
 916 65 l 1
 916 168 l 1
 603 168 l 1
 531 -31 l 1
EndSplineSet
EndChar

StartChar: sym03D_uni0338
Encoding: 47 -1 47
Width: 832
Flags: HW
HStem: 676 74<181 284 358 474 548 650>
VStem: 284 74<71 292 391 676> 474 74<72 362 460 676>
LayerCount: 2
Fore
SplineSet
474 -3 m 1
 474 362 l 1
 358 319 l 1
 358 -3 l 1
 416 -61 l 1
 474 -3 l 1
474 676 m 1
 358 676 l 1
 358 391 l 1
 474 433 l 1
 474 676 l 1
725 524 m 1
 747 461 l 1
 548 389 l 1
 548 72 l 1
 587 111 l 1
 640 58 l 1
 416 -165 l 1
 192 58 l 1
 244 111 l 1
 284 71 l 1
 284 292 l 1
 107 228 l 1
 84 291 l 1
 284 364 l 1
 284 676 l 1
 181 676 l 1
 181 750 l 1
 650 750 l 1
 650 676 l 1
 548 676 l 1
 548 460 l 1
 725 524 l 1
EndSplineSet
EndChar

StartChar: uni21AA0338
Encoding: 48 -1 48
Width: 930
Flags: HW
HStem: 263 74<169.549 340 438 714> 415 74<169.549 240>
VStem: 90 74<341.658 410.342>
LayerCount: 2
Fore
SplineSet
452 571 m 1
 515 548 l 1
 438 337 l 1
 714 337 l 1
 625 426 l 1
 677 478 l 1
 855 300 l 1
 677 122 l 1
 625 174 l 1
 714 263 l 1
 411 263 l 1
 326 29 l 1
 263 52 l 1
 340 263 l 1
 203 263 l 2
 141 263 90 314 90 376 c 0
 90 438 141 489 203 489 c 2
 240 489 l 1
 240 415 l 1
 203 415 l 2
 181 415 164 398 164 376 c 0
 164 354 181 337 203 337 c 2
 367 337 l 1
 452 571 l 1
EndSplineSet
EndChar

StartChar: sym03E_uni0338
Encoding: 49 -1 49
Width: 710
Flags: HW
HStem: -75 74<244.658 313.342>
VStem: 166 74<4.54883 75> 318 74<4.54883 175 273 549>
LayerCount: 2
Fore
SplineSet
107 98 m 1
 84 161 l 1
 318 246 l 1
 318 549 l 1
 229 460 l 1
 177 512 l 1
 355 690 l 1
 533 512 l 1
 481 460 l 1
 392 549 l 1
 392 273 l 1
 603 350 l 1
 626 287 l 1
 392 202 l 1
 392 38 l 2
 392 -24 341 -75 279 -75 c 0
 217 -75 166 -24 166 38 c 2
 166 75 l 1
 240 75 l 1
 240 38 l 2
 240 16 257 -1 279 -1 c 0
 301 -1 318 16 318 38 c 2
 318 175 l 1
 107 98 l 1
EndSplineSet
EndChar

StartChar: uni21A90338.alt
Encoding: 50 -1 50
Width: 930
Flags: HW
HStem: 111 74<690 760.451> 263 74<216 492 590 760.451>
VStem: 766 74<189.658 258.342>
LayerCount: 2
Fore
SplineSet
478 29 m 1
 415 52 l 1
 492 263 l 1
 216 263 l 1
 305 174 l 1
 253 122 l 1
 75 300 l 1
 253 478 l 1
 305 426 l 1
 216 337 l 1
 519 337 l 1
 604 571 l 1
 667 548 l 1
 590 337 l 1
 727 337 l 2
 789 337 840 286 840 224 c 0
 840 162 789 111 727 111 c 2
 690 111 l 1
 690 185 l 1
 727 185 l 2
 749 185 766 202 766 224 c 0
 766 246 749 263 727 263 c 2
 563 263 l 1
 478 29 l 1
EndSplineSet
EndChar

StartChar: sym03F_uni0338.alt
Encoding: 51 -1 51
Width: 710
Flags: HW
HStem: 601 74<396.658 465.342>
VStem: 318 74<51 327 425 595.451> 470 74<525 595.451>
LayerCount: 2
Fore
SplineSet
603 502 m 1
 626 439 l 1
 392 354 l 1
 392 51 l 1
 481 140 l 1
 533 88 l 1
 355 -90 l 1
 177 88 l 1
 229 140 l 1
 318 51 l 1
 318 327 l 1
 107 250 l 1
 84 313 l 1
 318 398 l 1
 318 562 l 2
 318 624 369 675 431 675 c 0
 493 675 544 624 544 562 c 2
 544 525 l 1
 470 525 l 1
 470 562 l 2
 470 584 453 601 431 601 c 0
 409 601 392 584 392 562 c 2
 392 425 l 1
 603 502 l 1
EndSplineSet
EndChar

StartChar: uni29240338.alt
Encoding: 52 -1 52
Width: 1085
Flags: HW
HStem: 55 75<269.647 341.472> 502 74<567 692>
VStem: 191 74<134.062 206.87> 745 74<324 450>
LayerCount: 2
Fore
SplineSet
265 168 m 0
 265 146 282 130 304 130 c 0
 314 130 323 133 331 141 c 2
 447 257 l 1
 342 482 l 1
 402 510 l 1
 497 307 l 1
 692 502 l 1
 567 502 l 1
 567 576 l 1
 819 576 l 1
 819 324 l 1
 745 324 l 1
 745 450 l 1
 530 236 l 1
 636 10 l 1
 575 -18 l 1
 480 186 l 1
 383 89 l 2
 361 67 333 55 304 55 c 0
 243 55 191 106 191 168 c 0
 191 197 202 226 224 248 c 2
 250 275 l 1
 302 222 l 1
 276 196 l 2
 268 188 265 178 265 168 c 0
EndSplineSet
EndChar

StartChar: uni29230338
Encoding: 53 -1 53
Width: 1085
Flags: HW
HStem: -52 74<636.277 708.528> 502 74<393 519>
VStem: 267 74<324 449> 713 74<26.4724 99.69>
LayerCount: 2
Fore
SplineSet
674 22 m 0
 696 22 713 39 713 61 c 0
 713 71 710 81 702 89 c 2
 605 186 l 1
 510 -18 l 1
 449 10 l 1
 555 236 l 1
 341 449 l 1
 341 324 l 1
 267 324 l 1
 267 576 l 1
 519 576 l 1
 519 502 l 1
 393 502 l 1
 588 307 l 1
 683 510 l 1
 743 482 l 1
 638 257 l 1
 754 141 l 2
 776 119 787 90 787 61 c 0
 787 -2 737 -52 674 -52 c 0
 645 -52 616 -41 594 -19 c 2
 568 7 l 1
 620 60 l 1
 647 33 l 2
 655 25 664 22 674 22 c 0
EndSplineSet
EndChar

StartChar: uni29260338.alt
Encoding: 54 -1 54
Width: 1085
Flags: HW
HStem: 24 74<393 519> 470 75<743.177 815.94>
VStem: 267 74<151 276> 820 75<393.13 465.94>
LayerCount: 2
Fore
SplineSet
820 432 m 0
 820 454 804 470 782 470 c 0
 772 470 762 467 754 459 c 2
 638 343 l 1
 743 118 l 1
 683 90 l 1
 588 293 l 1
 393 98 l 1
 519 98 l 1
 519 24 l 1
 267 24 l 1
 267 276 l 1
 341 276 l 1
 341 151 l 1
 555 364 l 1
 449 590 l 1
 510 618 l 1
 605 414 l 1
 702 511 l 2
 724 533 753 545 782 545 c 0
 843 545 895 493 895 432 c 0
 895 403 883 374 861 352 c 2
 835 325 l 1
 783 378 l 1
 809 404 l 2
 817 412 820 422 820 432 c 0
EndSplineSet
EndChar

StartChar: uni29250338
Encoding: 55 -1 55
Width: 1085
Flags: HW
HStem: 24 74<567 692> 578 74<376.472 449.019>
VStem: 298 74<500.31 573.528> 745 74<150 276>
LayerCount: 2
Fore
SplineSet
411 578 m 0
 389 578 372 561 372 539 c 0
 372 529 375 519 383 511 c 2
 480 414 l 1
 575 618 l 1
 636 590 l 1
 530 364 l 1
 745 150 l 1
 745 276 l 1
 819 276 l 1
 819 24 l 1
 567 24 l 1
 567 98 l 1
 692 98 l 1
 497 293 l 1
 402 90 l 1
 342 118 l 1
 447 343 l 1
 331 459 l 2
 309 481 298 510 298 539 c 0
 298 602 348 652 411 652 c 0
 440 652 469 641 491 619 c 2
 517 593 l 1
 465 540 l 1
 439 567 l 2
 431 575 421 578 411 578 c 0
EndSplineSet
EndChar

StartChar: uni21AA0338.alt
Encoding: 56 -1 56
Width: 930
Flags: HW
HStem: 111 74<169.549 240> 263 74<169.549 340 438 714>
VStem: 90 74<189.658 258.342>
LayerCount: 2
Fore
SplineSet
452 571 m 1
 515 548 l 1
 438 337 l 1
 714 337 l 1
 625 426 l 1
 677 478 l 1
 855 300 l 1
 677 122 l 1
 625 174 l 1
 714 263 l 1
 411 263 l 1
 326 29 l 1
 263 52 l 1
 340 263 l 1
 203 263 l 2
 181 263 164 246 164 224 c 0
 164 202 181 185 203 185 c 2
 240 185 l 1
 240 111 l 1
 203 111 l 2
 141 111 90 162 90 224 c 0
 90 286 141 337 203 337 c 2
 367 337 l 1
 452 571 l 1
EndSplineSet
EndChar

StartChar: sym03E_uni0338.alt
Encoding: 57 -1 57
Width: 710
Flags: HW
HStem: -75 74<396.658 465.342>
VStem: 318 74<4.54883 175 273 549> 470 74<4.54883 75>
LayerCount: 2
Fore
SplineSet
107 98 m 1
 84 161 l 1
 318 246 l 1
 318 549 l 1
 229 460 l 1
 177 512 l 1
 355 690 l 1
 533 512 l 1
 481 460 l 1
 392 549 l 1
 392 273 l 1
 603 350 l 1
 626 287 l 1
 392 202 l 1
 392 38 l 2
 392 16 409 -1 431 -1 c 0
 453 -1 470 16 470 38 c 2
 470 75 l 1
 544 75 l 1
 544 38 l 2
 544 -24 493 -75 431 -75 c 0
 369 -75 318 -24 318 38 c 2
 318 175 l 1
 107 98 l 1
EndSplineSet
EndChar

StartChar: uni21A90338
Encoding: 58 -1 58
Width: 930
Flags: HW
HStem: 263 74<216 492 590 760.451> 415 74<690 760.451>
VStem: 766 74<341.658 410.342>
LayerCount: 2
Fore
SplineSet
478 29 m 1
 415 52 l 1
 492 263 l 1
 216 263 l 1
 305 174 l 1
 253 122 l 1
 75 300 l 1
 253 478 l 1
 305 426 l 1
 216 337 l 1
 519 337 l 1
 604 571 l 1
 667 548 l 1
 590 337 l 1
 727 337 l 2
 749 337 766 354 766 376 c 0
 766 398 749 415 727 415 c 2
 690 415 l 1
 690 489 l 1
 727 489 l 2
 789 489 840 438 840 376 c 0
 840 314 789 263 727 263 c 2
 563 263 l 1
 478 29 l 1
EndSplineSet
EndChar

StartChar: sym03F_uni0338
Encoding: 59 -1 59
Width: 710
Flags: HW
HStem: 601 74<244.658 313.342>
VStem: 166 74<525 595.451> 318 74<51 327 425 595.451>
LayerCount: 2
Fore
SplineSet
603 502 m 1
 626 439 l 1
 392 354 l 1
 392 51 l 1
 481 140 l 1
 533 88 l 1
 355 -90 l 1
 177 88 l 1
 229 140 l 1
 318 51 l 1
 318 327 l 1
 107 250 l 1
 84 313 l 1
 318 398 l 1
 318 562 l 2
 318 584 301 601 279 601 c 0
 257 601 240 584 240 562 c 2
 240 525 l 1
 166 525 l 1
 166 562 l 2
 166 624 217 675 279 675 c 0
 341 675 392 624 392 562 c 2
 392 425 l 1
 603 502 l 1
EndSplineSet
EndChar

StartChar: uni29240338
Encoding: 60 -1 60
Width: 1085
Flags: HW
HStem: -52 74<376.472 449.019> 502 74<567 692>
VStem: 298 74<26.4724 99.69> 745 74<324 450>
LayerCount: 2
Fore
SplineSet
411 -52 m 0
 348 -52 298 -2 298 61 c 0
 298 90 309 119 331 141 c 2
 447 257 l 1
 342 482 l 1
 402 510 l 1
 497 307 l 1
 692 502 l 1
 567 502 l 1
 567 576 l 1
 819 576 l 1
 819 324 l 1
 745 324 l 1
 745 450 l 1
 530 236 l 1
 636 10 l 1
 575 -18 l 1
 480 186 l 1
 383 89 l 2
 375 81 372 71 372 61 c 0
 372 39 389 22 411 22 c 0
 421 22 431 25 439 33 c 2
 465 60 l 1
 517 7 l 1
 491 -19 l 2
 469 -41 440 -52 411 -52 c 0
EndSplineSet
EndChar

StartChar: uni29230338.alt
Encoding: 61 -1 61
Width: 1085
Flags: HW
HStem: 55 75<743.177 815.94> 502 74<393 519>
VStem: 267 74<324 449> 820 75<134.06 206.87>
LayerCount: 2
Fore
SplineSet
895 168 m 0
 895 107 843 55 782 55 c 0
 753 55 724 67 702 89 c 2
 605 186 l 1
 510 -18 l 1
 449 10 l 1
 555 236 l 1
 341 449 l 1
 341 324 l 1
 267 324 l 1
 267 576 l 1
 519 576 l 1
 519 502 l 1
 393 502 l 1
 588 307 l 1
 683 510 l 1
 743 482 l 1
 638 257 l 1
 754 141 l 2
 762 133 772 130 782 130 c 0
 804 130 820 146 820 168 c 0
 820 178 817 188 809 196 c 2
 783 222 l 1
 835 275 l 1
 861 248 l 2
 883 226 895 197 895 168 c 0
EndSplineSet
EndChar

StartChar: uni29260338
Encoding: 62 -1 62
Width: 1085
Flags: HW
HStem: 24 74<393 519> 578 74<636.277 708.528>
VStem: 267 74<151 276> 713 74<500.31 573.528>
LayerCount: 2
Fore
SplineSet
674 652 m 0
 737 652 787 602 787 539 c 0
 787 510 776 481 754 459 c 2
 638 343 l 1
 743 118 l 1
 683 90 l 1
 588 293 l 1
 393 98 l 1
 519 98 l 1
 519 24 l 1
 267 24 l 1
 267 276 l 1
 341 276 l 1
 341 151 l 1
 555 364 l 1
 449 590 l 1
 510 618 l 1
 605 414 l 1
 702 511 l 2
 710 519 713 529 713 539 c 0
 713 561 696 578 674 578 c 0
 664 578 655 575 647 567 c 2
 620 540 l 1
 568 593 l 1
 594 619 l 2
 616 641 645 652 674 652 c 0
EndSplineSet
EndChar

StartChar: uni29250338.alt
Encoding: 63 -1 63
Width: 1085
Flags: HW
HStem: 24 74<567 692> 470 75<269.647 341.472>
VStem: 191 74<393.13 465.938> 745 74<150 276>
LayerCount: 2
Fore
SplineSet
191 432 m 0
 191 494 243 545 304 545 c 0
 333 545 361 533 383 511 c 2
 480 414 l 1
 575 618 l 1
 636 590 l 1
 530 364 l 1
 745 150 l 1
 745 276 l 1
 819 276 l 1
 819 24 l 1
 567 24 l 1
 567 98 l 1
 692 98 l 1
 497 293 l 1
 402 90 l 1
 342 118 l 1
 447 343 l 1
 331 459 l 2
 323 467 314 470 304 470 c 0
 282 470 265 454 265 432 c 0
 265 422 268 412 276 404 c 2
 302 378 l 1
 250 325 l 1
 224 352 l 2
 202 374 191 403 191 432 c 0
EndSplineSet
EndChar

StartChar: uni21C00338
Encoding: 64 -1 64
Width: 930
Flags: HW
HStem: 263 74<90 340 438 714>
LayerCount: 2
Fore
SplineSet
452 571 m 1
 515 548 l 1
 438 337 l 1
 714 337 l 1
 606 444 l 1
 659 497 l 1
 855 300 l 1
 845 263 l 1
 411 263 l 1
 326 29 l 1
 263 52 l 1
 340 263 l 1
 90 263 l 1
 90 337 l 1
 367 337 l 1
 452 571 l 1
EndSplineSet
EndChar

StartChar: uni21BF0338
Encoding: 65 -1 65
Width: 710
Flags: HW
VStem: 318 74<-75 175 273 549>
LayerCount: 2
Fore
SplineSet
107 98 m 1
 84 161 l 1
 318 246 l 1
 318 549 l 1
 211 441 l 1
 158 494 l 1
 355 690 l 1
 392 680 l 1
 392 273 l 1
 603 350 l 1
 626 287 l 1
 392 202 l 1
 392 -75 l 1
 318 -75 l 1
 318 175 l 1
 107 98 l 1
EndSplineSet
EndChar

StartChar: uni21BD0338
Encoding: 66 -1 66
Width: 930
Flags: HW
HStem: 263 74<216 492 590 840>
LayerCount: 2
Fore
SplineSet
478 29 m 1
 415 52 l 1
 492 263 l 1
 216 263 l 1
 324 156 l 1
 271 103 l 1
 75 300 l 1
 85 337 l 1
 519 337 l 1
 604 571 l 1
 667 548 l 1
 590 337 l 1
 840 337 l 1
 840 263 l 1
 563 263 l 1
 478 29 l 1
EndSplineSet
EndChar

StartChar: uni21C20338
Encoding: 67 -1 67
Width: 710
Flags: HW
VStem: 318 74<51 327 425 675>
LayerCount: 2
Fore
SplineSet
603 502 m 1
 626 439 l 1
 392 354 l 1
 392 51 l 1
 499 159 l 1
 552 106 l 1
 355 -90 l 1
 318 -80 l 1
 318 327 l 1
 107 250 l 1
 84 313 l 1
 318 398 l 1
 318 675 l 1
 392 675 l 1
 392 425 l 1
 603 502 l 1
EndSplineSet
EndChar

StartChar: sym041_uni0338
Encoding: 68 -1 68
Width: 1085
Flags: HW
HStem: 502 74<540 692>
LayerCount: 2
Fore
SplineSet
342 482 m 1
 402 510 l 1
 497 307 l 1
 692 502 l 1
 540 502 l 1
 540 576 l 1
 819 576 l 1
 838 543 l 1
 530 235 l 1
 636 10 l 1
 575 -18 l 1
 480 185 l 1
 304 9 l 1
 251 61 l 1
 447 257 l 1
 342 482 l 1
EndSplineSet
EndChar

StartChar: sym040_uni0338
Encoding: 69 -1 69
Width: 1085
Flags: HW
VStem: 267 74<298 449>
LayerCount: 2
Fore
SplineSet
510 -18 m 1
 449 10 l 1
 555 236 l 1
 341 449 l 1
 341 298 l 1
 267 298 l 1
 267 576 l 1
 300 595 l 1
 588 307 l 1
 683 510 l 1
 743 482 l 1
 638 257 l 1
 834 61 l 1
 782 9 l 1
 605 186 l 1
 510 -18 l 1
EndSplineSet
EndChar

StartChar: sym043_uni0338
Encoding: 70 -1 70
Width: 1085
Flags: HW
HStem: 24 74<393 545>
LayerCount: 2
Fore
SplineSet
743 118 m 1
 683 90 l 1
 588 293 l 1
 393 98 l 1
 545 98 l 1
 545 24 l 1
 267 24 l 1
 247 57 l 1
 277 87 l 1
 288 98 l 2
 555 364 l 1
 449 590 l 1
 510 618 l 1
 605 414 l 1
 782 591 l 1
 834 539 l 1
 638 343 l 1
 743 118 l 1
EndSplineSet
EndChar

StartChar: sym042_uni0338
Encoding: 71 -1 71
Width: 1085
Flags: HW
VStem: 745 74<150 302>
LayerCount: 2
Fore
SplineSet
575 618 m 1
 636 590 l 1
 530 365 l 1
 745 150 l 1
 745 302 l 1
 819 302 l 1
 819 24 l 1
 785 5 l 1
 755 35 l 1
 497 293 l 1
 402 90 l 1
 342 118 l 1
 447 343 l 1
 251 539 l 1
 304 591 l 1
 480 415 l 1
 575 618 l 1
EndSplineSet
EndChar

StartChar: uni21C10338
Encoding: 72 -1 72
Width: 930
Flags: HW
HStem: 263 74<90 340 438 714>
LayerCount: 2
Fore
SplineSet
452 571 m 1
 515 548 l 1
 438 337 l 1
 845 337 l 1
 855 300 l 1
 659 103 l 1
 606 156 l 1
 714 263 l 1
 411 263 l 1
 326 29 l 1
 263 52 l 1
 340 263 l 1
 90 263 l 1
 90 337 l 1
 367 337 l 1
 452 571 l 1
EndSplineSet
EndChar

StartChar: uni21BE0338
Encoding: 73 -1 73
Width: 710
Flags: HW
VStem: 318 74<-75 175 273 549>
LayerCount: 2
Fore
SplineSet
107 98 m 1
 84 161 l 1
 318 246 l 1
 318 680 l 1
 355 690 l 1
 552 494 l 1
 499 441 l 1
 392 549 l 1
 392 273 l 1
 603 350 l 1
 626 287 l 1
 392 202 l 1
 392 -75 l 1
 318 -75 l 1
 318 175 l 1
 107 98 l 1
EndSplineSet
EndChar

StartChar: uni21BC0338
Encoding: 74 -1 74
Width: 930
Flags: HW
HStem: 263 74<216 492 590 840>
LayerCount: 2
Fore
SplineSet
478 29 m 1
 415 52 l 1
 492 263 l 1
 85 263 l 1
 75 300 l 1
 271 497 l 1
 324 444 l 1
 216 337 l 1
 519 337 l 1
 604 571 l 1
 667 548 l 1
 590 337 l 1
 840 337 l 1
 840 263 l 1
 563 263 l 1
 478 29 l 1
EndSplineSet
EndChar

StartChar: uni21C30338
Encoding: 75 -1 75
Width: 710
Flags: HW
VStem: 318 74<51 327 425 675>
LayerCount: 2
Fore
SplineSet
603 502 m 1
 626 439 l 1
 392 354 l 1
 392 -80 l 1
 355 -90 l 1
 158 106 l 1
 211 159 l 1
 318 51 l 1
 318 327 l 1
 107 250 l 1
 84 313 l 1
 318 398 l 1
 318 675 l 1
 392 675 l 1
 392 425 l 1
 603 502 l 1
EndSplineSet
EndChar

StartChar: sym045_uni0338
Encoding: 76 -1 76
Width: 1085
Flags: HW
VStem: 745 74<298 450>
LayerCount: 2
Fore
SplineSet
342 482 m 1
 402 510 l 1
 497 307 l 1
 755 565 l 1
 785 595 l 1
 819 576 l 1
 819 298 l 1
 745 298 l 1
 745 450 l 1
 530 235 l 1
 636 10 l 1
 575 -18 l 1
 480 185 l 1
 304 9 l 1
 251 61 l 1
 447 257 l 1
 342 482 l 1
EndSplineSet
EndChar

StartChar: sym044_uni0338
Encoding: 77 -1 77
Width: 1085
Flags: HW
HStem: 502 74<393 545>
LayerCount: 2
Fore
SplineSet
510 -18 m 1
 449 10 l 1
 555 236 l 1
 462 328 370 421 277 513 c 2
 247 543 l 1
 267 576 l 1
 545 576 l 1
 545 502 l 1
 393 502 l 1
 588 307 l 1
 683 510 l 1
 743 482 l 1
 638 257 l 1
 834 61 l 1
 782 9 l 1
 605 186 l 1
 510 -18 l 1
EndSplineSet
EndChar

StartChar: sym047_uni0338
Encoding: 78 -1 78
Width: 1085
Flags: HW
VStem: 267 74<151 302>
LayerCount: 2
Fore
SplineSet
743 118 m 1
 683 90 l 1
 588 293 l 1
 300 5 l 1
 267 24 l 1
 267 302 l 1
 341 302 l 1
 341 151 l 1
 555 364 l 1
 449 590 l 1
 510 618 l 1
 605 414 l 1
 782 591 l 1
 834 539 l 1
 638 343 l 1
 743 118 l 1
EndSplineSet
EndChar

StartChar: sym046_uni0338
Encoding: 79 -1 79
Width: 1085
Flags: HW
HStem: 24 74<540 692>
LayerCount: 2
Fore
SplineSet
575 618 m 1
 636 590 l 1
 530 365 l 1
 838 57 l 1
 819 24 l 1
 540 24 l 1
 540 98 l 1
 692 98 l 1
 497 293 l 1
 402 90 l 1
 342 118 l 1
 447 343 l 1
 251 539 l 1
 304 591 l 1
 480 415 l 1
 575 618 l 1
EndSplineSet
EndChar

StartChar: uni294B0338
Encoding: 80 -1 80
Width: 930
Flags: HW
HStem: 263 74<216 424 506 714>
LayerCount: 2
Fore
SplineSet
478 567 m 1
 544 555 l 1
 506 337 l 1
 714 337 l 1
 606 444 l 1
 659 497 l 1
 855 300 l 1
 845 263 l 1
 493 263 l 1
 452 33 l 1
 386 45 l 1
 424 263 l 1
 216 263 l 1
 324 156 l 1
 271 103 l 1
 75 300 l 1
 85 337 l 1
 437 337 l 1
 478 567 l 1
EndSplineSet
EndChar

StartChar: uni294D0338
Encoding: 81 -1 81
Width: 710
Flags: HW
VStem: 318 74<51 251 349 549>
LayerCount: 2
Fore
SplineSet
107 174 m 1
 84 237 l 1
 318 322 l 1
 318 549 l 1
 211 441 l 1
 158 494 l 1
 355 690 l 1
 392 680 l 1
 392 349 l 1
 603 426 l 1
 626 363 l 1
 392 278 l 1
 392 51 l 1
 499 159 l 1
 552 106 l 1
 355 -90 l 1
 318 -80 l 1
 318 251 l 1
 107 174 l 1
EndSplineSet
EndChar

StartChar: sym049_uni0338
Encoding: 82 -1 82
Width: 1085
Flags: HW
HStem: 24 74<393 545> 502 74<540 692>
LayerCount: 2
Fore
SplineSet
363 498 m 1
 418 536 l 1
 545 355 l 1
 692 502 l 1
 540 502 l 1
 540 576 l 1
 819 576 l 1
 838 543 l 1
 588 293 l 1
 722 102 l 1
 667 64 l 1
 540 245 l 1
 393 98 l 1
 545 98 l 1
 545 24 l 1
 267 24 l 1
 247 57 l 1
 497 307 l 1
 363 498 l 1
EndSplineSet
EndChar

StartChar: sym048_uni0338
Encoding: 83 -1 83
Width: 1085
Flags: HW
VStem: 267 74<298 449> 745 74<150 302>
LayerCount: 2
Fore
SplineSet
456 36 m 1
 396 64 l 1
 501 289 l 1
 341 449 l 1
 341 298 l 1
 267 298 l 1
 267 576 l 1
 300 595 l 1
 534 361 l 1
 629 564 l 1
 689 536 l 1
 584 311 l 1
 745 150 l 1
 745 302 l 1
 819 302 l 1
 819 24 l 1
 785 5 l 1
 755 35 l 1
 551 239 l 1
 456 36 l 1
EndSplineSet
EndChar

StartChar: uni294A0338
Encoding: 84 -1 84
Width: 930
Flags: HW
HStem: 263 74<216 416 514 714>
LayerCount: 2
Fore
SplineSet
528 571 m 1
 591 548 l 1
 514 337 l 1
 845 337 l 1
 855 300 l 1
 659 103 l 1
 606 156 l 1
 714 263 l 1
 487 263 l 1
 402 29 l 1
 339 52 l 1
 416 263 l 1
 85 263 l 1
 75 300 l 1
 271 497 l 1
 324 444 l 1
 216 337 l 1
 443 337 l 1
 528 571 l 1
EndSplineSet
EndChar

StartChar: uni294C0338
Encoding: 85 -1 85
Width: 710
Flags: HW
VStem: 318 74<51 259 341 549>
LayerCount: 2
Fore
SplineSet
100 221 m 1
 88 287 l 1
 318 328 l 1
 318 680 l 1
 355 690 l 1
 552 494 l 1
 499 441 l 1
 392 549 l 1
 392 341 l 1
 610 379 l 1
 622 313 l 1
 392 272 l 1
 392 -80 l 1
 355 -90 l 1
 158 106 l 1
 211 159 l 1
 318 51 l 1
 318 259 l 1
 100 221 l 1
EndSplineSet
EndChar

StartChar: sym04B_uni0338
Encoding: 86 -1 86
Width: 1085
Flags: HW
VStem: 267 74<151 302> 745 74<298 450>
LayerCount: 2
Fore
SplineSet
396 536 m 1
 456 564 l 1
 551 361 l 1
 755 565 l 1
 785 595 l 1
 819 576 l 1
 819 298 l 1
 745 298 l 1
 745 450 l 1
 584 289 l 1
 689 64 l 1
 629 36 l 1
 534 239 l 1
 300 5 l 1
 267 24 l 1
 267 302 l 1
 341 302 l 1
 341 151 l 1
 501 311 l 1
 396 536 l 1
EndSplineSet
EndChar

StartChar: sym04A_uni0338
Encoding: 87 -1 87
Width: 1085
Flags: HW
HStem: 24 74<540 692> 502 74<393 545>
LayerCount: 2
Fore
SplineSet
418 64 m 1
 363 102 l 1
 497 293 l 1
 247 543 l 1
 267 576 l 1
 545 576 l 1
 545 502 l 1
 393 502 l 1
 540 355 l 1
 667 536 l 1
 722 498 l 1
 588 307 l 1
 838 57 l 1
 819 24 l 1
 540 24 l 1
 540 98 l 1
 692 98 l 1
 545 245 l 1
 418 64 l 1
EndSplineSet
EndChar

StartChar: uni21CC0338
Encoding: 88 -1 88
Width: 930
Flags: HW
HStem: 168 74<216 408 489 840> 358 74<90 441 522 714>
LayerCount: 2
Fore
SplineSet
495 662 m 1
 561 650 l 1
 522 432 l 1
 714 432 l 1
 606 539 l 1
 659 592 l 1
 855 395 l 1
 845 358 l 1
 509 358 l 1
 489 242 l 1
 840 242 l 1
 840 168 l 1
 476 168 l 1
 435 -62 l 1
 369 -50 l 1
 408 168 l 1
 216 168 l 1
 324 61 l 1
 271 8 l 1
 75 205 l 1
 85 242 l 1
 421 242 l 1
 441 358 l 1
 90 358 l 1
 90 432 l 1
 454 432 l 1
 495 662 l 1
EndSplineSet
EndChar

StartChar: uni296E0338
Encoding: 89 -1 89
Width: 900
Flags: HW
VStem: 318 74<-75 217 314 549> 508 74<51 286 383 675>
LayerCount: 2
Fore
SplineSet
107 140 m 1
 84 202 l 1
 318 287 l 1
 318 549 l 1
 211 441 l 1
 158 494 l 1
 355 690 l 1
 392 680 l 1
 392 314 l 1
 508 356 l 1
 508 675 l 1
 582 675 l 1
 582 383 l 1
 793 460 l 1
 816 398 l 1
 582 313 l 1
 582 51 l 1
 689 159 l 1
 742 106 l 1
 545 -90 l 1
 508 -80 l 1
 508 286 l 1
 392 244 l 1
 392 -75 l 1
 318 -75 l 1
 318 217 l 1
 107 140 l 1
EndSplineSet
EndChar

StartChar: sym04D_uni0338
Encoding: 90 -1 90
Width: 1219
Flags: HW
HStem: -43 74<527 679> 569 74<540 692>
LayerCount: 2
Fore
SplineSet
375 577 m 1
 430 615 l 1
 557 434 l 1
 692 569 l 1
 540 569 l 1
 540 643 l 1
 819 643 l 1
 838 610 l 1
 600 372 l 1
 667 275 l 1
 916 524 l 1
 968 472 l 1
 710 214 l 1
 844 23 l 1
 790 -15 l 1
 663 167 l 1
 527 31 l 1
 679 31 l 1
 679 -43 l 1
 401 -43 l 1
 382 -10 l 1
 620 228 l 1
 552 324 l 1
 304 76 l 1
 251 128 l 1
 509 386 l 1
 375 577 l 1
EndSplineSet
EndChar

StartChar: sym04C_uni0338
Encoding: 91 -1 91
Width: 1219
Flags: HW
VStem: 267 74<231 382> 879 74<217 369>
LayerCount: 2
Fore
SplineSet
481 -56 m 1
 420 -28 l 1
 525 198 l 1
 341 382 l 1
 341 231 l 1
 267 231 l 1
 267 509 l 1
 300 528 l 1
 559 269 l 1
 611 381 l 1
 386 606 l 1
 438 659 l 1
 644 452 l 1
 739 656 l 1
 799 628 l 1
 694 402 l 1
 879 217 l 1
 879 369 l 1
 953 369 l 1
 953 91 l 1
 920 72 l 1
 661 331 l 1
 609 219 l 1
 834 -6 l 1
 782 -59 l 1
 576 147 l 1
 481 -56 l 1
EndSplineSet
EndChar

StartChar: uni21CB0338
Encoding: 92 -1 92
Width: 930
Flags: HW
HStem: 168 74<90 382 479 714> 358 74<216 451 548 840>
LayerCount: 2
Fore
SplineSet
563 666 m 1
 625 643 l 1
 548 432 l 1
 840 432 l 1
 840 358 l 1
 521 358 l 1
 479 242 l 1
 845 242 l 1
 855 205 l 1
 659 8 l 1
 606 61 l 1
 714 168 l 1
 452 168 l 1
 367 -66 l 1
 305 -43 l 1
 382 168 l 1
 90 168 l 1
 90 242 l 1
 409 242 l 1
 451 358 l 1
 85 358 l 1
 75 395 l 1
 271 592 l 1
 324 539 l 1
 216 432 l 1
 478 432 l 1
 563 666 l 1
EndSplineSet
EndChar

StartChar: uni296F0338
Encoding: 93 -1 93
Width: 900
Flags: HW
VStem: 318 74<51 243 324 675> 508 74<-75 276 357 549>
LayerCount: 2
Fore
SplineSet
100 204 m 1
 88 270 l 1
 318 311 l 1
 318 675 l 1
 392 675 l 1
 392 324 l 1
 508 344 l 1
 508 680 l 1
 545 690 l 1
 742 494 l 1
 689 441 l 1
 582 549 l 1
 582 357 l 1
 800 396 l 1
 812 330 l 1
 582 289 l 1
 582 -75 l 1
 508 -75 l 1
 508 276 l 1
 392 256 l 1
 392 -80 l 1
 355 -90 l 1
 158 106 l 1
 211 159 l 1
 318 51 l 1
 318 243 l 1
 100 204 l 1
EndSplineSet
EndChar

StartChar: sym04F_uni0338
Encoding: 94 -1 94
Width: 1219
Flags: HW
VStem: 267 74<218 369> 879 74<231 383>
LayerCount: 2
Fore
SplineSet
420 628 m 1
 481 656 l 1
 576 453 l 1
 782 659 l 1
 834 606 l 1
 609 381 l 1
 661 269 l 1
 920 528 l 1
 953 509 l 1
 953 231 l 1
 879 231 l 1
 879 383 l 1
 694 198 l 1
 799 -28 l 1
 739 -56 l 1
 644 148 l 1
 438 -59 l 1
 386 -6 l 1
 611 219 l 1
 559 331 l 1
 300 72 l 1
 267 91 l 1
 267 369 l 1
 341 369 l 1
 341 218 l 1
 525 402 l 1
 420 628 l 1
EndSplineSet
EndChar

StartChar: sym04E_uni0338
Encoding: 95 -1 95
Width: 1219
Flags: HW
HStem: -43 74<540 692> 569 74<527 679>
LayerCount: 2
Fore
SplineSet
430 -15 m 1
 375 23 l 1
 509 214 l 1
 251 472 l 1
 304 524 l 1
 552 276 l 1
 620 372 l 1
 382 610 l 1
 401 643 l 1
 679 643 l 1
 679 569 l 1
 527 569 l 1
 663 433 l 1
 790 615 l 1
 844 577 l 1
 710 386 l 1
 968 128 l 1
 916 76 l 1
 667 325 l 1
 600 228 l 1
 838 -10 l 1
 819 -43 l 1
 540 -43 l 1
 540 31 l 1
 692 31 l 1
 557 166 l 1
 430 -15 l 1
EndSplineSet
EndChar

StartChar: uni21E20338
Encoding: 96 -1 96
Width: 930
Flags: HW
HStem: 263 74<90 262 566 714>
LayerCount: 2
Fore
SplineSet
90 263 m 1
 90 337 l 1
 262 337 l 1
 262 263 l 1
 90 263 l 1
855 300 m 1
 677 122 l 1
 625 174 l 1
 714 263 l 1
 566 263 l 1
 566 337 l 1
 714 337 l 1
 625 426 l 1
 677 478 l 1
 855 300 l 1
477 571 m 1
 540 548 l 1
 351 29 l 1
 289 52 l 1
 477 571 l 1
EndSplineSet
EndChar

StartChar: uni21E10338
Encoding: 97 -1 97
Width: 710
Flags: HW
VStem: 318 74<-75 97 401 549>
LayerCount: 2
Fore
SplineSet
392 -75 m 1
 318 -75 l 1
 318 97 l 1
 392 97 l 1
 392 -75 l 1
355 690 m 1
 533 512 l 1
 481 460 l 1
 392 549 l 1
 392 401 l 1
 318 401 l 1
 318 549 l 1
 229 460 l 1
 177 512 l 1
 355 690 l 1
107 124 m 1
 84 186 l 1
 603 375 l 1
 626 312 l 1
 107 124 l 1
EndSplineSet
EndChar

StartChar: uni21E00338
Encoding: 98 -1 98
Width: 930
Flags: HW
HStem: 263 74<216 364 668 840>
LayerCount: 2
Fore
SplineSet
840 337 m 1
 840 263 l 1
 668 263 l 1
 668 337 l 1
 840 337 l 1
75 300 m 1
 253 478 l 1
 305 426 l 1
 216 337 l 1
 364 337 l 1
 364 263 l 1
 216 263 l 1
 305 174 l 1
 253 122 l 1
 75 300 l 1
453 29 m 1
 390 52 l 1
 579 571 l 1
 641 548 l 1
 453 29 l 1
EndSplineSet
EndChar

StartChar: uni21E30338
Encoding: 99 -1 99
Width: 710
Flags: HW
VStem: 318 74<51 199 503 675>
LayerCount: 2
Fore
SplineSet
318 675 m 1
 392 675 l 1
 392 503 l 1
 318 503 l 1
 318 675 l 1
355 -90 m 1
 177 88 l 1
 229 140 l 1
 318 51 l 1
 318 199 l 1
 392 199 l 1
 392 51 l 1
 481 140 l 1
 533 88 l 1
 355 -90 l 1
603 476 m 1
 626 414 l 1
 107 225 l 1
 84 288 l 1
 603 476 l 1
EndSplineSet
EndChar

StartChar: sym051_uni0338
Encoding: 100 -1 100
Width: 1085
Flags: HW
HStem: 0 21G<583.68 635.857> 502 74<567 692>
VStem: 745 74<324 450>
LayerCount: 2
Fore
SplineSet
304 9 m 1
 251 61 l 1
 373 183 l 1
 425 130 l 1
 304 9 l 1
819 576 m 1
 819 324 l 1
 745 324 l 1
 745 450 l 1
 640 346 l 1
 588 398 l 1
 692 502 l 1
 567 502 l 1
 567 576 l 1
 819 576 l 1
360 500 m 1
 420 528 l 1
 653 28 l 1
 593 0 l 1
 360 500 l 1
EndSplineSet
EndChar

StartChar: sym050_uni0338
Encoding: 101 -1 101
Width: 1085
Flags: HW
HStem: 0 21G<449.143 501.32> 502 74<393 519>
VStem: 267 74<324 449>
LayerCount: 2
Fore
SplineSet
834 61 m 1
 782 9 l 1
 660 130 l 1
 712 183 l 1
 834 61 l 1
267 576 m 1
 519 576 l 1
 519 502 l 1
 393 502 l 1
 497 398 l 1
 445 346 l 1
 341 449 l 1
 341 324 l 1
 267 324 l 1
 267 576 l 1
492 0 m 1
 432 28 l 1
 665 528 l 1
 725 500 l 1
 492 0 l 1
EndSplineSet
EndChar

StartChar: sym053_uni0338
Encoding: 102 -1 102
Width: 1085
Flags: HW
HStem: 24 74<393 519>
VStem: 267 74<151 276>
LayerCount: 2
Fore
SplineSet
782 591 m 1
 834 539 l 1
 712 417 l 1
 660 470 l 1
 782 591 l 1
267 24 m 1
 267 276 l 1
 341 276 l 1
 341 151 l 1
 445 254 l 1
 497 202 l 1
 393 98 l 1
 519 98 l 1
 519 24 l 1
 267 24 l 1
725 100 m 1
 665 72 l 1
 432 572 l 1
 492 600 l 1
 725 100 l 1
EndSplineSet
EndChar

StartChar: sym052_uni0338
Encoding: 103 -1 103
Width: 1085
Flags: HW
HStem: 24 74<567 692>
VStem: 745 74<150 276>
LayerCount: 2
Fore
SplineSet
251 539 m 1
 304 591 l 1
 425 470 l 1
 373 417 l 1
 251 539 l 1
819 24 m 1
 567 24 l 1
 567 98 l 1
 692 98 l 1
 588 202 l 1
 640 254 l 1
 745 150 l 1
 745 276 l 1
 819 276 l 1
 819 24 l 1
593 600 m 1
 653 572 l 1
 420 72 l 1
 360 100 l 1
 593 600 l 1
EndSplineSet
EndChar

StartChar: uni22B80338
Encoding: 104 -1 104
Width: 930
Flags: HW
HStem: 141 74<625.41 736.803> 263 74<90 294 392 532.989> 385 74<625.41 736.803>
VStem: 766 74<244.838 355.162>
CounterMasks: 1 e0
LayerCount: 2
Fore
SplineSet
681 215 m 0
 730 215 766 255 766 300 c 0
 766 345 730 385 681 385 c 0
 633 385 597 344 597 300 c 0
 597 256 633 215 681 215 c 0
681 141 m 0
 608 141 544 191 527 263 c 1
 365 263 l 1
 280 29 l 1
 218 52 l 1
 294 263 l 1
 90 263 l 1
 90 337 l 1
 321 337 l 1
 406 571 l 1
 469 548 l 1
 392 337 l 1
 527 337 l 1
 544 409 608 459 681 459 c 0
 770 459 840 386 840 300 c 0
 840 214 770 141 681 141 c 0
EndSplineSet
EndChar

StartChar: uni2AEF0338
Encoding: 105 -1 105
Width: 710
Flags: HW
HStem: 601 74<299.838 410.162>
VStem: 196 74<460.41 571.803> 318 74<-75 129 227 367.989> 440 74<460.41 571.803>
CounterMasks: 1 70
LayerCount: 2
Fore
SplineSet
355 432 m 0
 399 432 440 468 440 516 c 0
 440 565 400 601 355 601 c 0
 310 601 270 565 270 516 c 0
 270 468 311 432 355 432 c 0
514 516 m 0
 514 443 464 379 392 362 c 1
 392 227 l 1
 603 304 l 1
 626 241 l 1
 392 156 l 1
 392 -75 l 1
 318 -75 l 1
 318 129 l 1
 107 53 l 1
 84 115 l 1
 318 200 l 1
 318 362 l 1
 246 379 196 443 196 516 c 0
 196 605 269 675 355 675 c 0
 441 675 514 605 514 516 c 0
EndSplineSet
EndChar

StartChar: uni27DC0338
Encoding: 106 -1 106
Width: 930
Flags: HW
HStem: 141 74<193.197 304.59> 263 74<397.011 538 636 840> 385 74<193.197 304.59>
VStem: 90 74<244.838 355.162>
CounterMasks: 1 e0
LayerCount: 2
Fore
SplineSet
249 215 m 0
 297 215 333 256 333 300 c 0
 333 344 297 385 249 385 c 0
 200 385 164 345 164 300 c 0
 164 255 200 215 249 215 c 0
249 459 m 0
 322 459 386 409 403 337 c 1
 565 337 l 1
 650 571 l 1
 712 548 l 1
 636 337 l 1
 840 337 l 1
 840 263 l 1
 609 263 l 1
 524 29 l 1
 461 52 l 1
 538 263 l 1
 403 263 l 1
 386 191 322 141 249 141 c 0
 160 141 90 214 90 300 c 0
 90 386 160 459 249 459 c 0
EndSplineSet
EndChar

StartChar: uni2AF00338
Encoding: 107 -1 107
Width: 710
Flags: HW
HStem: -75 74<299.838 410.162> 527 20G<547.474 610.419>
VStem: 196 74<28.1966 139.59> 318 74<232.011 373 471 675> 440 74<28.1966 139.59>
CounterMasks: 1 38
LayerCount: 2
Fore
SplineSet
355 -1 m 0
 400 -1 440 35 440 84 c 0
 440 132 399 168 355 168 c 0
 311 168 270 132 270 84 c 0
 270 35 310 -1 355 -1 c 0
196 84 m 0
 196 157 246 221 318 238 c 1
 318 373 l 1
 107 296 l 1
 84 359 l 1
 318 444 l 1
 318 675 l 1
 392 675 l 1
 392 471 l 1
 603 547 l 1
 626 485 l 1
 392 400 l 1
 392 238 l 1
 464 221 514 157 514 84 c 0
 514 -5 441 -75 355 -75 c 0
 269 -75 196 -5 196 84 c 0
EndSplineSet
EndChar

StartChar: sym054_uni0338
Encoding: 108 -1 108
Width: 930
Flags: HW
HStem: 141 318<601.838 760.671> 263 74<90 294 392 532.989>
LayerCount: 2
Fore
SplineSet
681 141 m 0x80
 608 141 544 191 527 263 c 1
 365 263 l 1
 280 29 l 1
 218 52 l 1
 294 263 l 1
 90 263 l 1
 90 337 l 1
 321 337 l 1
 406 571 l 1
 469 548 l 1
 392 337 l 1
 527 337 l 1x40
 544 409 608 459 681 459 c 0
 770 459 840 386 840 300 c 0
 840 214 770 141 681 141 c 0x80
EndSplineSet
EndChar

StartChar: sym056_uni0338
Encoding: 109 -1 109
Width: 710
Flags: HW
VStem: 196 318<436.838 595.671> 318 74<-75 129 227 367.989>
LayerCount: 2
Fore
SplineSet
514 516 m 0x80
 514 443 464 379 392 362 c 1
 392 227 l 1
 603 304 l 1
 626 241 l 1
 392 156 l 1
 392 -75 l 1
 318 -75 l 1
 318 129 l 1
 107 53 l 1
 84 115 l 1
 318 200 l 1
 318 362 l 1x40
 246 379 196 443 196 516 c 0
 196 605 269 675 355 675 c 0
 441 675 514 605 514 516 c 0x80
EndSplineSet
EndChar

StartChar: sym055_uni0338
Encoding: 110 -1 110
Width: 930
Flags: HW
HStem: 141 318<169.329 328.162> 263 74<397.011 538 636 840>
LayerCount: 2
Fore
SplineSet
249 459 m 0x80
 322 459 386 409 403 337 c 1
 565 337 l 1
 650 571 l 1
 712 548 l 1
 636 337 l 1
 840 337 l 1
 840 263 l 1
 609 263 l 1
 524 29 l 1
 461 52 l 1
 538 263 l 1
 403 263 l 1x40
 386 191 322 141 249 141 c 0
 160 141 90 214 90 300 c 0
 90 386 160 459 249 459 c 0x80
EndSplineSet
EndChar

StartChar: sym057_uni0338
Encoding: 111 -1 111
Width: 710
Flags: HW
HStem: 527 20G<547.474 610.419>
VStem: 196 318<4.32931 163.162> 318 74<232.011 373 471 675>
LayerCount: 2
Fore
SplineSet
196 84 m 0xc0
 196 157 246 221 318 238 c 1
 318 373 l 1
 107 296 l 1
 84 359 l 1
 318 444 l 1
 318 675 l 1
 392 675 l 1
 392 471 l 1
 603 547 l 1
 626 485 l 1
 392 400 l 1
 392 238 l 1xa0
 464 221 514 157 514 84 c 0
 514 -5 441 -75 355 -75 c 0
 269 -75 196 -5 196 84 c 0xc0
EndSplineSet
EndChar

StartChar: uni29DF0338
Encoding: 112 -1 112
Width: 1230
Flags: HW
HStem: 141 74<193.197 304.59 925.41 1036.8> 263 74<397.011 566 664 832.989> 385 74<193.197 304.59 925.41 1036.8>
VStem: 90 74<244.838 355.162> 1066 74<244.838 355.162>
CounterMasks: 1 e0
LayerCount: 2
Fore
SplineSet
981 215 m 0
 1030 215 1066 255 1066 300 c 0
 1066 345 1030 385 981 385 c 0
 933 385 897 344 897 300 c 0
 897 256 933 215 981 215 c 0
249 215 m 0
 297 215 333 256 333 300 c 0
 333 344 297 385 249 385 c 0
 200 385 164 345 164 300 c 0
 164 255 200 215 249 215 c 0
249 459 m 0
 322 459 386 409 403 337 c 1
 593 337 l 1
 678 571 l 1
 741 548 l 1
 664 337 l 1
 827 337 l 1
 844 409 908 459 981 459 c 0
 1070 459 1140 386 1140 300 c 0
 1140 214 1070 141 981 141 c 0
 908 141 844 191 827 263 c 1
 637 263 l 1
 552 29 l 1
 489 52 l 1
 566 263 l 1
 403 263 l 1
 386 191 322 141 249 141 c 0
 160 141 90 214 90 300 c 0
 90 386 160 459 249 459 c 0
EndSplineSet
EndChar

StartChar: sym058_uni0338
Encoding: 113 -1 113
Width: 1230
Flags: HW
HStem: 141 318<169.329 328.162 901.838 1060.67> 263 74<397.011 566 664 832.989>
LayerCount: 2
Fore
SplineSet
249 459 m 0x80
 322 459 386 409 403 337 c 1
 593 337 l 1
 678 571 l 1
 741 548 l 1
 664 337 l 1
 827 337 l 1x40
 844 409 908 459 981 459 c 0
 1070 459 1140 386 1140 300 c 0
 1140 214 1070 141 981 141 c 0x80
 908 141 844 191 827 263 c 1
 637 263 l 1
 552 29 l 1
 489 52 l 1
 566 263 l 1
 403 263 l 1x40
 386 191 322 141 249 141 c 0
 160 141 90 214 90 300 c 0
 90 386 160 459 249 459 c 0x80
EndSplineSet
EndChar

StartChar: uni22B70338
Encoding: 114 -1 114
Width: 1230
Flags: HW
HStem: 141 318<169.329 328.162> 141 74<925.41 1036.8> 263 74<397.011 566 664 832.989> 385 74<925.41 1036.8>
VStem: 1066 74<244.838 355.162>
LayerCount: 2
Fore
SplineSet
981 215 m 0x58
 1030 215 1066 255 1066 300 c 0
 1066 345 1030 385 981 385 c 0
 933 385 897 344 897 300 c 0
 897 256 933 215 981 215 c 0x58
249 459 m 0x88
 322 459 386 409 403 337 c 1
 593 337 l 1
 678 571 l 1
 741 548 l 1
 664 337 l 1
 827 337 l 1
 844 409 908 459 981 459 c 0
 1070 459 1140 386 1140 300 c 0
 1140 214 1070 141 981 141 c 0
 908 141 844 191 827 263 c 1
 637 263 l 1
 552 29 l 1
 489 52 l 1
 566 263 l 1
 403 263 l 1x78
 386 191 322 141 249 141 c 0
 160 141 90 214 90 300 c 0
 90 386 160 459 249 459 c 0x88
EndSplineSet
EndChar

StartChar: uni22B60338
Encoding: 115 -1 115
Width: 1230
Flags: HW
HStem: 141 318<901.838 1060.67> 141 74<193.197 304.59> 263 74<397.011 566 664 832.989> 385 74<193.197 304.59>
VStem: 90 74<244.838 355.162>
LayerCount: 2
Fore
SplineSet
249 215 m 0x58
 297 215 333 256 333 300 c 0
 333 344 297 385 249 385 c 0
 200 385 164 345 164 300 c 0
 164 255 200 215 249 215 c 0x58
981 141 m 0x88
 908 141 844 191 827 263 c 1
 637 263 l 1
 552 29 l 1
 489 52 l 1
 566 263 l 1
 403 263 l 1
 386 191 322 141 249 141 c 0
 160 141 90 214 90 300 c 0
 90 386 160 459 249 459 c 0
 322 459 386 409 403 337 c 1
 593 337 l 1
 678 571 l 1
 741 548 l 1
 664 337 l 1
 827 337 l 1x78
 844 409 908 459 981 459 c 0
 1070 459 1140 386 1140 300 c 0
 1140 214 1070 141 981 141 c 0x88
EndSplineSet
EndChar

StartChar: sym05A_uni0338
Encoding: 116 -1 116
Width: 930
Flags: HW
HStem: 60 74<90 220 301 362.32> 263 74<90 256 336 425 496.751 840> 466 74<90 291>
VStem: 425 75<203.419 263 337 398.172>
CounterMasks: 1 e0
LayerCount: 2
Fore
SplineSet
301 134 m 1
 368 134 413 193 425 263 c 1
 323 263 l 1
 301 134 l 1
356 450 m 1
 336 337 l 1
 425 337 l 1
 417 385 392 428 356 450 c 1
331 693 m 1
 397 682 l 1
 370 526 l 1
 441 496 489 422 500 337 c 1
 840 337 l 1
 840 263 l 1
 500 263 l 1
 486 153 408 60 301 60 c 2
 288 60 l 1
 261 -93 l 1
 195 -82 l 1
 220 60 l 1
 90 60 l 1
 90 134 l 1
 233 134 l 1
 256 263 l 1
 90 263 l 1
 90 337 l 1
 269 337 l 1
 291 466 l 1
 90 466 l 1
 90 540 l 1
 301 540 l 2
 302 540 303 540 304 540 c 1
 331 693 l 1
EndSplineSet
EndChar

StartChar: uni22D40338
Encoding: 117 -1 117
Width: 963
Flags: HW
HStem: 260 75<385.419 445 519 579.594>
VStem: 242 74<-75 55 136 197.32> 445 74<-75 91 172 260 331.751 675> 647 74<-75 126>
LayerCount: 2
Fore
SplineSet
632 191 m 1
 610 227 567 252 519 260 c 1
 519 172 l 1
 632 191 l 1
316 136 m 1
 445 159 l 1
 445 260 l 1
 374 248 316 203 316 136 c 1
100 30 m 1
 88 96 l 1
 242 123 l 1
 242 136 l 2
 242 243 335 321 445 335 c 1
 445 675 l 1
 519 675 l 1
 519 335 l 1
 603 324 677 276 707 205 c 1
 863 232 l 1
 875 166 l 1
 721 139 l 2
 721 138 721 137 721 136 c 2
 721 -75 l 1
 647 -75 l 1
 647 126 l 1
 519 104 l 1
 519 -75 l 1
 445 -75 l 1
 445 91 l 1
 316 68 l 1
 316 -75 l 1
 242 -75 l 1
 242 55 l 1
 100 30 l 1
EndSplineSet
EndChar

StartChar: sym05B_uni0338
Encoding: 118 -1 118
Width: 930
Flags: HW
HStem: 60 74<639 840> 263 74<90 433.266 505 594 674 840> 466 74<567.68 630 710 840>
VStem: 430 75<201.828 263 337 396.581>
CounterMasks: 1 e0
LayerCount: 2
Fore
SplineSet
630 466 m 1
 629 466 l 2
 562 466 517 407 505 337 c 1
 607 337 l 1
 630 466 l 1
574 149 m 1
 594 263 l 1
 505 263 l 1
 513 215 538 171 574 149 c 1
599 -93 m 1
 533 -82 l 1
 561 74 l 1
 490 104 441 178 430 263 c 1
 90 263 l 1
 90 337 l 1
 430 337 l 1
 444 447 522 540 629 540 c 2
 643 540 l 1
 670 693 l 1
 735 682 l 1
 710 540 l 1
 840 540 l 1
 840 466 l 1
 697 466 l 1
 674 337 l 1
 840 337 l 1
 840 263 l 1
 661 263 l 1
 639 134 l 1
 840 134 l 1
 840 60 l 1
 629 60 l 2
 628 60 627 60 626 60 c 1
 599 -93 l 1
EndSplineSet
EndChar

StartChar: sym059_uni0338
Encoding: 119 -1 119
Width: 963
Flags: HW
HStem: 265 75<383.828 445 519 578.489>
VStem: 242 74<474 675> 445 74<-75 268.249 340 429 510 675> 647 74<402.68 464 545 675>
LayerCount: 2
Fore
SplineSet
331 409 m 1
 353 373 396 348 445 340 c 1
 445 429 l 1
 331 409 l 1
647 464 m 1
 519 442 l 1
 519 340 l 1
 589 352 647 397 647 464 c 1
863 570 m 1
 875 504 l 1
 721 477 l 1
 721 464 l 2
 721 357 629 279 519 265 c 1
 519 -75 l 1
 445 -75 l 1
 445 265 l 1
 360 276 286 324 256 395 c 1
 100 368 l 1
 88 434 l 1
 242 461 l 2
 242 462 242 463 242 464 c 2
 242 675 l 1
 316 675 l 1
 316 474 l 1
 445 497 l 1
 445 675 l 1
 519 675 l 1
 519 510 l 1
 647 532 l 1
 647 675 l 1
 721 675 l 1
 721 545 l 1
 863 570 l 1
EndSplineSet
EndChar

StartChar: uni21C90338
Encoding: 120 -1 120
Width: 930
Flags: HW
HStem: 111 74<90 285 382 714> 415 74<90 396 493 714>
LayerCount: 2
Fore
SplineSet
651 300 m 1
 625 326 l 1
 714 415 l 1
 466 415 l 1
 382 185 l 1
 714 185 l 1
 625 274 l 1
 651 300 l 1
480 647 m 1
 542 624 l 1
 493 489 l 1
 714 489 l 1
 625 578 l 1
 677 630 l 1
 855 452 l 1
 703 300 l 1
 855 148 l 1
 677 -30 l 1
 625 22 l 1
 714 111 l 1
 355 111 l 1
 298 -47 l 1
 236 -24 l 1
 285 111 l 1
 90 111 l 1
 90 185 l 1
 312 185 l 1
 396 415 l 1
 90 415 l 1
 90 489 l 1
 423 489 l 1
 480 647 l 1
EndSplineSet
EndChar

StartChar: uni21C80338
Encoding: 121 -1 121
Width: 862
Flags: HW
VStem: 242 74<-75 120 217 549> 546 74<-75 231 328 549>
LayerCount: 2
Fore
SplineSet
431 486 m 1
 405 460 l 1
 316 549 l 1
 316 217 l 1
 546 301 l 1
 546 549 l 1
 457 460 l 1
 431 486 l 1
107 71 m 1
 84 133 l 1
 242 190 l 1
 242 549 l 1
 153 460 l 1
 101 512 l 1
 279 690 l 1
 431 538 l 1
 583 690 l 1
 761 512 l 1
 709 460 l 1
 620 549 l 1
 620 328 l 1
 755 377 l 1
 778 315 l 1
 620 258 l 1
 620 -75 l 1
 546 -75 l 1
 546 231 l 1
 316 147 l 1
 316 -75 l 1
 242 -75 l 1
 242 120 l 1
 107 71 l 1
EndSplineSet
EndChar

StartChar: uni21C70338
Encoding: 122 -1 122
Width: 930
Flags: HW
HStem: 111 74<216 437 534 840> 415 74<216 548 645 840>
LayerCount: 2
Fore
SplineSet
279 300 m 1
 305 274 l 1
 216 185 l 1
 464 185 l 1
 548 415 l 1
 216 415 l 1
 305 326 l 1
 279 300 l 1
450 -47 m 1
 388 -24 l 1
 437 111 l 1
 216 111 l 1
 305 22 l 1
 253 -30 l 1
 75 148 l 1
 227 300 l 1
 75 452 l 1
 253 630 l 1
 305 578 l 1
 216 489 l 1
 575 489 l 1
 632 647 l 1
 694 624 l 1
 645 489 l 1
 840 489 l 1
 840 415 l 1
 618 415 l 1
 534 185 l 1
 840 185 l 1
 840 111 l 1
 507 111 l 1
 450 -47 l 1
EndSplineSet
EndChar

StartChar: uni21CA0338
Encoding: 123 -1 123
Width: 862
Flags: HW
VStem: 242 74<51 272 369 675> 546 74<51 383 480 675>
LayerCount: 2
Fore
SplineSet
431 114 m 1
 457 140 l 1
 546 51 l 1
 546 383 l 1
 316 299 l 1
 316 51 l 1
 405 140 l 1
 431 114 l 1
755 529 m 1
 778 467 l 1
 620 410 l 1
 620 51 l 1
 709 140 l 1
 761 88 l 1
 583 -90 l 1
 431 62 l 1
 279 -90 l 1
 101 88 l 1
 153 140 l 1
 242 51 l 1
 242 272 l 1
 107 223 l 1
 84 285 l 1
 242 342 l 1
 242 675 l 1
 316 675 l 1
 316 369 l 1
 546 453 l 1
 546 675 l 1
 620 675 l 1
 620 480 l 1
 755 529 l 1
EndSplineSet
EndChar

StartChar: sym05D_uni0338
Encoding: 124 -1 124
Width: 1193
Flags: HW
HStem: 395 74<765 854> 609 74<513 638>
VStem: 691 74<469 557> 906 74<217 342>
LayerCount: 2
Fore
SplineSet
728 432 m 1
 691 432 l 1
 691 557 l 1
 516 382 l 1
 619 161 l 1
 854 395 l 1
 728 395 l 1
 728 432 l 1
362 556 m 1
 422 584 l 1
 483 454 l 1
 638 609 l 1
 513 609 l 1
 513 683 l 1
 765 683 l 1
 765 469 l 1
 980 469 l 1
 980 217 l 1
 906 217 l 1
 906 342 l 1
 653 89 l 1
 724 -63 l 1
 663 -91 l 1
 603 39 l 1
 465 -99 l 1
 412 -46 l 1
 569 111 l 1
 466 332 l 1
 250 116 l 1
 197 168 l 1
 433 404 l 1
 362 556 l 1
EndSplineSet
EndChar

StartChar: sym05C_uni0338
Encoding: 125 -1 125
Width: 1193
Flags: HW
HStem: 395 74<339 428> 609 74<555 680>
VStem: 213 74<217 342> 428 74<469 557>
LayerCount: 2
Fore
SplineSet
465 432 m 1
 465 395 l 1
 339 395 l 1
 573 161 l 1
 677 382 l 1
 502 557 l 1
 502 432 l 1
 465 432 l 1
529 -91 m 1
 469 -63 l 1
 540 89 l 1
 287 342 l 1
 287 217 l 1
 213 217 l 1
 213 469 l 1
 428 469 l 1
 428 683 l 1
 680 683 l 1
 680 609 l 1
 555 609 l 1
 710 453 l 1
 771 584 l 1
 831 556 l 1
 760 404 l 1
 995 168 l 1
 943 116 l 1
 727 332 l 1
 623 111 l 1
 780 -46 l 1
 728 -99 l 1
 590 39 l 1
 529 -91 l 1
EndSplineSet
EndChar

StartChar: sym05F_uni0338
Encoding: 126 -1 126
Width: 1193
Flags: HW
HStem: -83 74<555 680> 131 74<339 428>
VStem: 213 74<258 383> 428 74<43 131>
LayerCount: 2
Fore
SplineSet
465 168 m 1
 502 168 l 1
 502 43 l 1
 677 218 l 1
 573 439 l 1
 339 205 l 1
 465 205 l 1
 465 168 l 1
831 44 m 1
 771 16 l 1
 710 147 l 1
 555 -9 l 1
 680 -9 l 1
 680 -83 l 1
 428 -83 l 1
 428 131 l 1
 213 131 l 1
 213 383 l 1
 287 383 l 1
 287 258 l 1
 540 511 l 1
 469 663 l 1
 529 691 l 1
 590 561 l 1
 728 699 l 1
 780 646 l 1
 623 489 l 1
 727 268 l 1
 943 484 l 1
 995 432 l 1
 760 196 l 1
 831 44 l 1
EndSplineSet
EndChar

StartChar: sym05E_uni0338
Encoding: 127 -1 127
Width: 1193
Flags: HW
HStem: -83 74<513 638> 131 74<765 854>
VStem: 691 74<43 131> 906 74<258 383>
LayerCount: 2
Fore
SplineSet
728 168 m 1
 728 205 l 1
 854 205 l 1
 619 439 l 1
 516 218 l 1
 691 43 l 1
 691 168 l 1
 728 168 l 1
663 691 m 1
 724 663 l 1
 653 511 l 1
 906 258 l 1
 906 383 l 1
 980 383 l 1
 980 131 l 1
 765 131 l 1
 765 -83 l 1
 513 -83 l 1
 513 -9 l 1
 638 -9 l 1
 483 146 l 1
 422 16 l 1
 362 44 l 1
 433 196 l 1
 197 432 l 1
 250 484 l 1
 466 268 l 1
 569 489 l 1
 412 646 l 1
 465 699 l 1
 603 561 l 1
 663 691 l 1
EndSplineSet
EndChar

StartChar: uni21C40338
Encoding: 128 -1 128
Width: 930
Flags: HW
HStem: 111 74<216 398 478 840> 415 74<90 452 532 714>
LayerCount: 2
Fore
SplineSet
492 643 m 1
 557 631 l 1
 532 489 l 1
 714 489 l 1
 625 578 l 1
 677 630 l 1
 855 452 l 1
 677 274 l 1
 625 326 l 1
 714 415 l 1
 519 415 l 1
 478 185 l 1
 840 185 l 1
 840 111 l 1
 465 111 l 1
 438 -43 l 1
 373 -31 l 1
 398 111 l 1
 216 111 l 1
 305 22 l 1
 253 -30 l 1
 75 148 l 1
 253 326 l 1
 305 274 l 1
 216 185 l 1
 411 185 l 1
 452 415 l 1
 90 415 l 1
 90 489 l 1
 465 489 l 1
 492 643 l 1
EndSplineSet
EndChar

StartChar: uni21C50338
Encoding: 129 -1 129
Width: 862
Flags: HW
VStem: 242 74<-75 196 293 549> 546 74<51 307 404 675>
LayerCount: 2
Fore
SplineSet
107 147 m 1
 84 209 l 1
 242 266 l 1
 242 549 l 1
 153 460 l 1
 101 512 l 1
 279 690 l 1
 457 512 l 1
 405 460 l 1
 316 549 l 1
 316 293 l 1
 546 377 l 1
 546 675 l 1
 620 675 l 1
 620 404 l 1
 755 453 l 1
 778 391 l 1
 620 334 l 1
 620 51 l 1
 709 140 l 1
 761 88 l 1
 583 -90 l 1
 405 88 l 1
 457 140 l 1
 546 51 l 1
 546 307 l 1
 316 223 l 1
 316 -75 l 1
 242 -75 l 1
 242 196 l 1
 107 147 l 1
EndSplineSet
EndChar

StartChar: sym061_uni0338
Encoding: 130 -1 130
Width: 1193
Flags: HW
HStem: -83 74<555 680> 1 21G<750.932 793.947> 609 74<513 638>
VStem: 428 74<43 168> 691 74<432 557>
LayerCount: 2
Fore
SplineSet
373 561 m 1
 427 599 l 1
 510 481 l 1
 638 609 l 1
 513 609 l 1
 513 683 l 1
 765 683 l 1
 765 432 l 1
 691 432 l 1
 691 557 l 1
 553 419 l 1
 687 228 l 1
 943 484 l 1
 995 432 l 1
 730 167 l 1
 820 39 l 1
 765 1 l 1
 682 119 l 1
 555 -9 l 1
 680 -9 l 1
 680 -83 l 1
 428 -83 l 1
 428 168 l 1
 502 168 l 1
 502 43 l 1
 639 180 l 1
 506 372 l 1
 250 116 l 1
 197 168 l 1
 462 433 l 1
 373 561 l 1
EndSplineSet
EndChar

StartChar: sym060_uni0338
Encoding: 131 -1 131
Width: 1193
Flags: HW
HStem: 131 74<728 854> 395 74<339 465>
VStem: 213 74<217 342> 906 74<258 383>
LayerCount: 2
Fore
SplineSet
476 -37 m 1
 415 -9 l 1
 486 143 l 1
 287 342 l 1
 287 217 l 1
 213 217 l 1
 213 469 l 1
 465 469 l 1
 465 395 l 1
 339 395 l 1
 519 215 l 1
 623 436 l 1
 412 646 l 1
 465 699 l 1
 656 508 l 1
 717 637 l 1
 777 609 l 1
 706 458 l 1
 906 258 l 1
 906 383 l 1
 980 383 l 1
 980 131 l 1
 728 131 l 1
 728 205 l 1
 854 205 l 1
 673 386 l 1
 570 164 l 1
 780 -46 l 1
 728 -99 l 1
 536 93 l 1
 476 -37 l 1
EndSplineSet
EndChar

StartChar: uni21C60338
Encoding: 132 -1 132
Width: 930
Flags: HW
HStem: 111 74<90 361 458 714> 415 74<216 472 569 840>
LayerCount: 2
Fore
SplineSet
556 647 m 1
 618 624 l 1
 569 489 l 1
 840 489 l 1
 840 415 l 1
 542 415 l 1
 458 185 l 1
 714 185 l 1
 625 274 l 1
 677 326 l 1
 855 148 l 1
 677 -30 l 1
 625 22 l 1
 714 111 l 1
 431 111 l 1
 374 -47 l 1
 312 -24 l 1
 361 111 l 1
 90 111 l 1
 90 185 l 1
 388 185 l 1
 472 415 l 1
 216 415 l 1
 305 326 l 1
 253 274 l 1
 75 452 l 1
 253 630 l 1
 305 578 l 1
 216 489 l 1
 499 489 l 1
 556 647 l 1
EndSplineSet
EndChar

StartChar: uni21F50338
Encoding: 133 -1 133
Width: 862
Flags: HW
VStem: 242 74<51 233 313 675> 546 74<-75 287 367 549>
LayerCount: 2
Fore
SplineSet
100 208 m 1
 88 273 l 1
 242 300 l 1
 242 675 l 1
 316 675 l 1
 316 313 l 1
 546 354 l 1
 546 549 l 1
 457 460 l 1
 405 512 l 1
 583 690 l 1
 761 512 l 1
 709 460 l 1
 620 549 l 1
 620 367 l 1
 762 392 l 1
 774 327 l 1
 620 300 l 1
 620 -75 l 1
 546 -75 l 1
 546 287 l 1
 316 246 l 1
 316 51 l 1
 405 140 l 1
 457 88 l 1
 279 -90 l 1
 101 88 l 1
 153 140 l 1
 242 51 l 1
 242 233 l 1
 100 208 l 1
EndSplineSet
EndChar

StartChar: sym063_uni0338
Encoding: 134 -1 134
Width: 1193
Flags: HW
HStem: 131 74<339 465> 395 74<728 854>
VStem: 213 74<258 383> 906 74<217 342>
LayerCount: 2
Fore
SplineSet
415 609 m 1
 476 637 l 1
 536 507 l 1
 728 699 l 1
 780 646 l 1
 570 436 l 1
 673 214 l 1
 854 395 l 1
 728 395 l 1
 728 469 l 1
 980 469 l 1
 980 217 l 1
 906 217 l 1
 906 342 l 1
 706 142 l 1
 777 -9 l 1
 717 -37 l 1
 656 92 l 1
 465 -99 l 1
 412 -46 l 1
 623 164 l 1
 519 385 l 1
 339 205 l 1
 465 205 l 1
 465 131 l 1
 213 131 l 1
 213 383 l 1
 287 383 l 1
 287 258 l 1
 486 457 l 1
 415 609 l 1
EndSplineSet
EndChar

StartChar: sym062_uni0338
Encoding: 135 -1 135
Width: 1193
Flags: HW
HStem: -83 74<513 638> 1 21G<398.579 441.068> 609 74<555 680>
VStem: 428 74<432 557> 691 74<43 168>
LayerCount: 2
Fore
SplineSet
427 1 m 1
 373 39 l 1
 462 167 l 1
 197 432 l 1
 250 484 l 1
 506 228 l 1
 639 420 l 1
 502 557 l 1
 502 432 l 1
 428 432 l 1
 428 683 l 1
 680 683 l 1
 680 609 l 1
 555 609 l 1
 682 481 l 1
 765 599 l 1
 820 561 l 1
 730 433 l 1
 995 168 l 1
 943 116 l 1
 687 372 l 1
 553 181 l 1
 691 43 l 1
 691 168 l 1
 765 168 l 1
 765 -83 l 1
 513 -83 l 1
 513 -9 l 1
 638 -9 l 1
 510 119 l 1
 427 1 l 1
EndSplineSet
EndChar

StartChar: uni219D0338
Encoding: 136 57883 136
Width: 930
Flags: HW
HStem: 187 74<453.654 544.378> 263 74<613.958 714> 339 74<221.831 326.831>
CounterMasks: 1 e0
LayerCount: 2
Fore
SplineSet
653 263 m 2
 627 263 561 187 503 187 c 0
 463 187 429 205 400 232 c 1
 326 29 l 1
 263 52 l 1
 350 292 l 1
 331 317 308 339 277 339 c 0
 222 339 189 286 157 241 c 1
 97 283 l 1
 142 348 199 413 277 413 c 0
 316 413 350 395 379 369 c 1
 452 571 l 1
 515 548 l 1
 428 310 l 1
 448 284 472 261 503 261 c 0
 524 261 539 280 556 292 c 0
 586 313 620 337 653 337 c 2
 714 337 l 1
 625 426 l 1
 677 478 l 1
 855 300 l 1
 677 122 l 1
 625 174 l 1
 714 263 l 1
 653 263 l 2
EndSplineSet
EndChar

StartChar: sym064_uni0338.alt
Encoding: 137 -1 137
Width: 710
Flags: HW
VStem: 242 74<56.8314 161.831> 318 74<448.958 549> 394 74<288.654 379.378>
CounterMasks: 1 e0
LayerCount: 2
Fore
SplineSet
392 488 m 2
 392 462 468 396 468 338 c 0
 468 298 450 264 423 235 c 1
 626 161 l 1
 603 98 l 1
 363 185 l 1
 338 166 316 143 316 112 c 0
 316 57 369 24 414 -8 c 1
 372 -68 l 1
 307 -23 242 34 242 112 c 0
 242 151 260 185 286 214 c 1
 84 287 l 1
 107 350 l 1
 345 263 l 1
 371 283 394 307 394 338 c 0
 394 359 375 374 363 391 c 0
 342 421 318 455 318 488 c 2
 318 549 l 1
 229 460 l 1
 177 512 l 1
 355 690 l 1
 533 512 l 1
 481 460 l 1
 392 549 l 1
 392 488 l 2
EndSplineSet
EndChar

StartChar: uni219C0338.alt
Encoding: 138 -1 138
Width: 930
Flags: HW
HStem: 187 74<603.169 708.169> 263 74<216 316.042> 339 74<385.622 476.346>
CounterMasks: 1 e0
LayerCount: 2
Fore
SplineSet
277 337 m 2
 303 337 369 413 427 413 c 0
 467 413 501 395 530 368 c 1
 604 571 l 1
 667 548 l 1
 580 308 l 1
 599 283 622 261 653 261 c 0
 708 261 741 314 773 359 c 1
 833 317 l 1
 788 252 731 187 653 187 c 0
 614 187 580 205 551 231 c 1
 478 29 l 1
 415 52 l 1
 502 290 l 1
 482 316 458 339 427 339 c 0
 406 339 391 320 374 308 c 0
 344 287 310 263 277 263 c 2
 216 263 l 1
 305 174 l 1
 253 122 l 1
 75 300 l 1
 253 478 l 1
 305 426 l 1
 216 337 l 1
 277 337 l 2
EndSplineSet
EndChar

StartChar: sym065_uni0338
Encoding: 139 -1 139
Width: 710
Flags: HW
VStem: 242 74<220.622 311.346> 318 74<51 151.042> 394 74<438.169 543.169>
CounterMasks: 1 e0
LayerCount: 2
Fore
SplineSet
318 112 m 2
 318 138 242 204 242 262 c 0
 242 302 260 336 287 365 c 1
 84 439 l 1
 107 502 l 1
 347 415 l 1
 372 434 394 457 394 488 c 0
 394 543 341 576 296 608 c 1
 338 668 l 1
 403 623 468 566 468 488 c 0
 468 449 450 415 424 386 c 1
 626 313 l 1
 603 250 l 1
 365 337 l 1
 339 317 316 293 316 262 c 0
 316 241 335 226 347 209 c 0
 368 179 392 145 392 112 c 2
 392 51 l 1
 481 140 l 1
 533 88 l 1
 355 -90 l 1
 177 88 l 1
 229 140 l 1
 318 51 l 1
 318 112 l 2
EndSplineSet
EndChar

StartChar: uni219D0338.alt
Encoding: 140 -1 140
Width: 930
Flags: HW
HStem: 187 74<221.831 313.621> 263 74<613.958 714> 339 74<464.978 544.378>
CounterMasks: 1 e0
LayerCount: 2
Fore
SplineSet
503 413 m 0
 561 413 627 337 653 337 c 2
 714 337 l 1
 625 426 l 1
 677 478 l 1
 855 300 l 1
 677 122 l 1
 625 174 l 1
 714 263 l 1
 653 263 l 2
 620 263 586 287 556 308 c 0
 539 320 524 339 503 339 c 0
 464 339 443 309 414 270 c 1
 326 29 l 1
 263 52 l 1
 314 192 l 1
 302 188 290 187 277 187 c 0
 199 187 142 252 97 317 c 1
 157 359 l 1
 189 314 222 261 277 261 c 0
 317 261 344 298 362 324 c 1
 452 571 l 1
 515 548 l 1
 464 407 l 1
 477 411 489 413 503 413 c 0
EndSplineSet
EndChar

StartChar: sym064_uni0338
Encoding: 141 -1 141
Width: 710
Flags: HW
VStem: 242 74<299.978 379.378> 318 74<448.958 549> 394 74<56.8314 148.621>
CounterMasks: 1 e0
LayerCount: 2
Fore
SplineSet
242 338 m 0
 242 396 318 462 318 488 c 2
 318 549 l 1
 229 460 l 1
 177 512 l 1
 355 690 l 1
 533 512 l 1
 481 460 l 1
 392 549 l 1
 392 488 l 2
 392 455 368 421 347 391 c 0
 335 374 316 359 316 338 c 0
 316 299 346 278 385 249 c 1
 626 161 l 1
 603 98 l 1
 463 149 l 1
 467 137 468 125 468 112 c 0
 468 34 403 -23 338 -68 c 1
 296 -8 l 1
 341 24 394 57 394 112 c 0
 394 152 357 179 331 197 c 1
 84 287 l 1
 107 350 l 1
 248 299 l 1
 244 312 242 324 242 338 c 0
EndSplineSet
EndChar

StartChar: uni219C0338
Encoding: 142 -1 142
Width: 930
Flags: HW
HStem: 187 74<385.622 465.022> 263 74<216 316.042> 339 74<616.379 708.169>
CounterMasks: 1 e0
LayerCount: 2
Fore
SplineSet
427 187 m 0
 369 187 303 263 277 263 c 2
 216 263 l 1
 305 174 l 1
 253 122 l 1
 75 300 l 1
 253 478 l 1
 305 426 l 1
 216 337 l 1
 277 337 l 2
 310 337 344 313 374 292 c 0
 391 280 406 261 427 261 c 0
 466 261 487 291 516 330 c 1
 604 571 l 1
 667 548 l 1
 616 408 l 1
 628 412 640 413 653 413 c 0
 731 413 788 348 833 283 c 1
 773 241 l 1
 741 286 708 339 653 339 c 0
 613 339 586 302 568 276 c 1
 478 29 l 1
 415 52 l 1
 466 193 l 1
 453 189 441 187 427 187 c 0
EndSplineSet
EndChar

StartChar: sym065_uni0338.alt
Encoding: 143 -1 143
Width: 710
Flags: HW
VStem: 242 74<451.379 543.169> 318 74<51 151.042> 394 74<220.622 300.022>
CounterMasks: 1 e0
LayerCount: 2
Fore
SplineSet
468 262 m 0
 468 204 392 138 392 112 c 2
 392 51 l 1
 481 140 l 1
 533 88 l 1
 355 -90 l 1
 177 88 l 1
 229 140 l 1
 318 51 l 1
 318 112 l 2
 318 145 342 179 363 209 c 0
 375 226 394 241 394 262 c 0
 394 301 364 322 325 351 c 1
 84 439 l 1
 107 502 l 1
 247 451 l 1
 243 463 242 475 242 488 c 0
 242 566 307 623 372 668 c 1
 414 608 l 1
 369 576 316 543 316 488 c 0
 316 448 353 421 379 403 c 1
 626 313 l 1
 603 250 l 1
 462 301 l 1
 466 288 468 276 468 262 c 0
EndSplineSet
EndChar

StartChar: uni21AD0338
Encoding: 144 -1 144
Width: 1080
Flags: HW
HStem: 187 74<602.827 692.898> 263 74<216 317.503 760.97 864> 339 74<384.89 477.173>
CounterMasks: 1 e0
LayerCount: 2
Fore
SplineSet
427 339 m 0
 392 339 342 263 277 263 c 2
 216 263 l 1
 305 174 l 1
 253 122 l 1
 75 300 l 1
 253 478 l 1
 305 426 l 1
 216 337 l 1
 277 337 l 2
 299 337 314 356 331 368 c 0
 361 389 391 413 427 413 c 0
 466 413 500 395 529 369 c 1
 603 571 l 1
 666 548 l 1
 579 309 l 1
 598 284 622 261 653 261 c 0
 662 261 689 280 707 292 c 0
 736 313 766 337 803 337 c 2
 864 337 l 1
 775 426 l 1
 827 478 l 1
 1005 300 l 1
 827 122 l 1
 775 174 l 1
 864 263 l 1
 803 263 l 2
 781 263 766 244 749 232 c 0
 719 211 685 187 653 187 c 0
 614 187 580 205 551 231 c 1
 477 29 l 1
 414 52 l 1
 501 291 l 1
 482 316 458 339 427 339 c 0
EndSplineSet
EndChar

StartChar: sym066_uni0338.alt
Encoding: 145 -1 145
Width: 710
Flags: HW
HStem: 745 20G<335 375>
VStem: 242 74<144.89 237.173> 318 74<-24 77.5029 520.97 624> 394 74<362.827 452.898>
CounterMasks: 1 70
LayerCount: 2
Fore
SplineSet
316 187 m 0
 316 152 392 102 392 37 c 2
 392 -24 l 1
 481 65 l 1
 533 13 l 1
 355 -165 l 1
 177 13 l 1
 229 65 l 1
 318 -24 l 1
 318 37 l 2
 318 59 299 74 287 91 c 0
 266 121 242 151 242 187 c 0
 242 226 260 260 286 289 c 1
 84 363 l 1
 107 426 l 1
 346 339 l 1
 371 358 394 382 394 413 c 0
 394 422 375 449 363 467 c 0
 342 496 318 526 318 563 c 2
 318 624 l 1
 229 535 l 1
 177 587 l 1
 355 765 l 1
 533 587 l 1
 481 535 l 1
 392 624 l 1
 392 563 l 2
 392 541 411 526 423 509 c 0
 444 479 468 445 468 413 c 0
 468 374 450 340 424 311 c 1
 626 237 l 1
 603 174 l 1
 364 261 l 1
 339 242 316 218 316 187 c 0
EndSplineSet
EndChar

StartChar: uni21AD0338.alt
Encoding: 146 -1 146
Width: 1080
Flags: HW
HStem: 187 74<384.89 464.653> 263 74<216 317.503 760.97 864> 339 74<615.347 692.898>
CounterMasks: 1 e0
LayerCount: 2
Fore
SplineSet
277 337 m 2
 342 337 392 261 427 261 c 0
 467 261 492 296 514 327 c 1
 603 571 l 1
 666 548 l 1
 615 407 l 1
 627 411 640 413 653 413 c 0
 685 413 719 389 749 368 c 0
 766 356 781 337 803 337 c 2
 864 337 l 1
 775 426 l 1
 827 478 l 1
 1005 300 l 1
 827 122 l 1
 775 174 l 1
 864 263 l 1
 803 263 l 2
 766 263 736 287 707 308 c 0
 689 320 662 339 653 339 c 0
 613 339 588 304 566 273 c 1
 477 29 l 1
 414 52 l 1
 465 193 l 1
 453 189 440 187 427 187 c 0
 391 187 361 211 331 232 c 0
 314 244 299 263 277 263 c 2
 216 263 l 1
 305 174 l 1
 253 122 l 1
 75 300 l 1
 253 478 l 1
 305 426 l 1
 216 337 l 1
 277 337 l 2
EndSplineSet
EndChar

StartChar: sym066_uni0338
Encoding: 147 -1 147
Width: 710
Flags: HW
HStem: 745 20G<335 375>
VStem: 242 74<375.347 452.898> 318 74<-24 77.5029 520.97 624> 394 74<144.89 224.653>
CounterMasks: 1 70
LayerCount: 2
Fore
SplineSet
318 37 m 2
 318 102 394 152 394 187 c 0
 394 227 359 252 328 274 c 1
 84 363 l 1
 107 426 l 1
 248 375 l 1
 244 387 242 400 242 413 c 0
 242 445 266 479 287 509 c 0
 299 526 318 541 318 563 c 2
 318 624 l 1
 229 535 l 1
 177 587 l 1
 355 765 l 1
 533 587 l 1
 481 535 l 1
 392 624 l 1
 392 563 l 2
 392 526 368 496 347 467 c 0
 335 449 316 422 316 413 c 0
 316 373 351 348 382 326 c 1
 626 237 l 1
 603 174 l 1
 462 225 l 1
 466 213 468 200 468 187 c 0
 468 151 444 121 423 91 c 0
 411 74 392 59 392 37 c 2
 392 -24 l 1
 481 65 l 1
 533 13 l 1
 355 -165 l 1
 177 13 l 1
 229 65 l 1
 318 -24 l 1
 318 37 l 2
EndSplineSet
EndChar

StartChar: sym069_uni0338
Encoding: 148 -1 148
Width: 930
Flags: HW
HStem: 327 73<514 554.825> 339 74<304.424 435>
LayerCount: 2
Fore
SplineSet
414 413 m 0x40
 419 413 432 413 448 412 c 1
 478 582 l 1
 544 570 l 1
 514 400 l 1
 603 376 680 323 741 251 c 1
 751 365 l 1
 825 359 l 1
 803 108 l 1
 552 130 l 1
 558 204 l 1
 694 192 l 1
 643 256 577 305 501 327 c 1x80
 452 49 l 1
 386 60 l 1
 435 339 l 1
 432 339 424 339 414 339 c 0
 312 339 217 287 157 203 c 1
 97 245 l 1
 170 349 287 413 414 413 c 0x40
EndSplineSet
EndChar

StartChar: sym068_uni0338
Encoding: 149 -1 149
Width: 710
Flags: HW
VStem: 242 74<139.424 270> 255 73<349 389.825>
LayerCount: 2
Fore
SplineSet
242 249 m 0x80
 242 254 242 267 243 283 c 1
 73 313 l 1
 85 379 l 1
 255 349 l 1
 279 438 332 515 404 576 c 1
 290 586 l 1
 296 660 l 1
 547 638 l 1
 525 387 l 1
 451 393 l 1
 463 529 l 1
 399 478 350 412 328 336 c 1x40
 606 287 l 1
 595 221 l 1
 316 270 l 1
 316 267 316 259 316 249 c 0
 316 147 368 52 452 -8 c 1
 410 -68 l 1
 306 5 242 122 242 249 c 0x80
EndSplineSet
EndChar

StartChar: sym067_uni0338
Encoding: 150 -1 150
Width: 930
Flags: HW
HStem: 187 74<495 625.576> 200 73<375.175 416> 531 20G<474.475 544>
LayerCount: 2
Fore
SplineSet
516 187 m 0xa0
 511 187 498 187 482 188 c 1
 452 18 l 1
 386 30 l 1
 416 200 l 1
 327 224 250 277 189 349 c 1
 179 235 l 1
 105 241 l 1
 127 492 l 1
 378 470 l 1
 372 396 l 1
 236 408 l 1
 287 344 353 295 429 273 c 1x60
 478 551 l 1
 544 540 l 1
 495 261 l 1
 498 261 506 261 516 261 c 0
 618 261 713 313 773 397 c 1
 833 355 l 1
 760 251 643 187 516 187 c 0xa0
EndSplineSet
EndChar

StartChar: uni29380338
Encoding: 151 -1 151
Width: 710
Flags: HW
VStem: 382 73<210.175 251> 394 74<330 460.576>
LayerCount: 2
Fore
SplineSet
468 351 m 0x40
 468 346 468 333 467 317 c 1
 637 287 l 1
 625 221 l 1
 455 251 l 1
 431 162 378 85 307 24 c 1
 420 14 l 1
 414 -60 l 1
 163 -38 l 1
 185 213 l 1
 259 207 l 1
 247 70 l 1
 311 121 360 188 382 264 c 1x80
 104 313 l 1
 115 379 l 1
 394 330 l 1
 394 333 394 341 394 351 c 0
 394 453 342 548 258 608 c 1
 300 668 l 1
 404 595 468 478 468 351 c 0x40
EndSplineSet
EndChar

StartChar: sym06C_uni0338
Encoding: 152 -1 152
Width: 1085
Flags: HW
HStem: 1 21G<319 394> 389 73<600.239 771.534> 527 20G<378.579 420.944>
VStem: 315 74<13.6176 185.463>
LayerCount: 2
Fore
SplineSet
315 71 m 0
 315 125 328 263 452 367 c 1
 353 509 l 1
 407 547 l 1
 506 405 l 1
 574 444 652 462 731 462 c 0
 745 462 758 462 772 461 c 1
 699 549 l 1
 755 596 l 1
 917 403 l 1
 724 241 l 1
 677 298 l 1
 782 386 l 1
 765 388 747 389 730 389 c 0
 666 389 604 375 549 345 c 1
 711 113 l 1
 656 75 l 1
 494 307 l 1
 437 257 389 174 389 71 c 0
 389 52 391 33 394 14 c 1
 321 1 l 1
 317 24 315 48 315 71 c 0
EndSplineSet
EndChar

StartChar: sym06B_uni0338
Encoding: 153 -1 153
Width: 1085
Flags: HW
HStem: 72 74<657.628 829.382>
VStem: 380 74<356.052 528.427>
LayerCount: 2
Fore
SplineSet
772 72 m 0
 684 72 565 102 475 209 c 1
 334 110 l 1
 296 165 l 1
 437 264 l 1
 398 332 380 409 380 488 c 0
 380 502 380 515 381 529 c 1
 294 456 l 1
 246 513 l 1
 439 675 l 1
 601 482 l 1
 545 434 l 1
 457 539 l 1
 455 522 454 503 454 486 c 0
 454 422 467 360 498 306 c 1
 730 468 l 1
 768 414 l 1
 536 252 l 1
 571 212 649 146 773 146 c 0
 792 146 810 148 829 151 c 1
 842 78 l 1
 819 74 795 72 772 72 c 0
EndSplineSet
EndChar

StartChar: uni29360338
Encoding: 154 -1 154
Width: 1085
Flags: HW
HStem: 138 73<313.466 484.761>
VStem: 696 74<414.371 586.382>
LayerCount: 2
Fore
SplineSet
770 529 m 0
 770 423 728 312 633 233 c 1
 732 91 l 1
 678 53 l 1
 579 195 l 1
 511 156 433 138 354 138 c 0
 340 138 327 138 313 139 c 1
 386 51 l 1
 330 4 l 1
 168 197 l 1
 361 359 l 1
 408 302 l 1
 303 214 l 1
 320 212 338 211 355 211 c 0
 419 211 481 225 536 255 c 1
 374 487 l 1
 429 525 l 1
 591 293 l 1
 648 343 696 426 696 529 c 0
 696 548 694 567 691 586 c 1
 764 599 l 1
 768 576 770 552 770 529 c 0
EndSplineSet
EndChar

StartChar: uni29350338
Encoding: 155 -1 155
Width: 1085
Flags: HW
HStem: 454 74<255.618 427.598>
VStem: 631 74<71.5734 243.948>
LayerCount: 2
Fore
SplineSet
313 528 m 0
 366 528 506 515 610 391 c 1
 751 490 l 1
 789 435 l 1
 648 337 l 1
 687 269 705 191 705 112 c 0
 705 98 705 85 704 71 c 1
 791 144 l 1
 839 87 l 1
 646 -75 l 1
 484 118 l 1
 540 166 l 1
 628 61 l 1
 630 78 631 97 631 114 c 0
 631 178 618 240 587 294 c 1
 355 132 l 1
 317 186 l 1
 549 348 l 1
 514 388 436 454 312 454 c 0
 293 454 275 452 256 449 c 1
 243 522 l 1
 266 526 290 528 313 528 c 0
EndSplineSet
EndChar

StartChar: uni293B0338
Encoding: 156 -1 156
Width: 930
Flags: HW
HStem: 187 74<304.424 437.613> 204 70<530 559.141> 535 20G<344.727 409.331>
LayerCount: 2
Fore
SplineSet
464 190 m 1x60
 457 189 438 187 414 187 c 0
 287 187 170 251 97 355 c 1
 157 397 l 1
 217 313 312 261 414 261 c 0
 417 261 426 260 438 261 c 1xa0
 339 533 l 1
 402 555 l 1
 505 274 l 1
 580 296 644 345 694 408 c 1
 558 396 l 1
 552 470 l 1
 803 492 l 1
 825 241 l 1
 751 235 l 1
 741 349 l 1
 684 282 612 230 530 204 c 1
 591 37 l 1
 528 14 l 1
 464 190 l 1x60
EndSplineSet
EndChar

StartChar: sym06A_uni0338
Encoding: 157 -1 157
Width: 710
Flags: HW
VStem: 381 70<365 394.297> 394 74<139.424 272.613>
LayerCount: 2
Fore
SplineSet
465 299 m 1x80
 466 292 468 273 468 249 c 0
 468 122 404 5 300 -68 c 1
 258 -8 l 1
 342 52 394 147 394 249 c 0
 394 252 395 261 394 273 c 1x40
 122 174 l 1
 100 237 l 1
 381 340 l 1
 359 415 310 480 247 530 c 1
 259 393 l 1
 185 387 l 1
 163 638 l 1
 414 660 l 1
 420 586 l 1
 307 576 l 1
 374 519 425 447 451 365 c 1
 618 426 l 1
 641 363 l 1
 465 299 l 1x80
EndSplineSet
EndChar

StartChar: uni293A0338
Encoding: 158 -1 158
Width: 930
Flags: HW
HStem: 326 70<370.859 400> 339 74<492.387 625.576>
LayerCount: 2
Fore
SplineSet
466 410 m 1x80
 473 411 492 413 516 413 c 0
 643 413 760 349 833 245 c 1
 773 203 l 1
 713 287 618 339 516 339 c 0
 513 339 504 340 492 339 c 1x40
 591 67 l 1
 528 45 l 1
 425 326 l 1
 350 304 286 255 236 192 c 1
 372 204 l 1
 378 130 l 1
 127 108 l 1
 105 359 l 1
 179 365 l 1
 189 251 l 1
 246 318 318 370 400 396 c 1
 339 563 l 1
 402 586 l 1
 466 410 l 1x80
EndSplineSet
EndChar

StartChar: uni29390338
Encoding: 159 -1 159
Width: 710
Flags: HW
VStem: 242 74<327.387 460.576> 259 70<205.859 235>
LayerCount: 2
Fore
SplineSet
245 301 m 1x40
 244 308 242 327 242 351 c 0
 242 478 306 595 410 668 c 1
 452 608 l 1
 368 548 316 453 316 351 c 0
 316 348 315 339 316 327 c 1x80
 588 426 l 1
 610 363 l 1
 329 260 l 1
 351 185 400 121 463 71 c 1
 451 207 l 1
 525 213 l 1
 547 -38 l 1
 296 -60 l 1
 290 14 l 1
 404 24 l 1
 337 81 285 153 259 235 c 1
 92 174 l 1
 69 237 l 1
 245 301 l 1x40
EndSplineSet
EndChar

StartChar: uni29340338
Encoding: 160 -1 160
Width: 1085
Flags: HW
HStem: 72 74<255.618 426.174>
VStem: 631 74<356.304 528.427>
LayerCount: 2
Fore
SplineSet
620 221 m 1
 588 180 489 72 313 72 c 0
 290 72 266 74 243 78 c 1
 256 151 l 1
 275 148 293 146 312 146 c 0
 365 146 468 160 550 254 c 1
 289 376 l 1
 317 436 l 1
 589 309 l 1
 618 363 631 424 631 486 c 0
 631 503 630 522 628 539 c 1
 540 434 l 1
 484 482 l 1
 646 675 l 1
 839 513 l 1
 791 456 l 1
 704 529 l 1
 705 515 705 502 705 488 c 0
 705 414 689 342 656 278 c 1
 817 203 l 1
 789 142 l 1
 620 221 l 1
EndSplineSet
EndChar

StartChar: sym06D_uni0338
Encoding: 161 -1 161
Width: 1085
Flags: HW
HStem: 1 21G<691 766> 389 73<313.466 483.08>
VStem: 696 74<13.6176 184.558>
LayerCount: 2
Fore
SplineSet
621 377 m 1
 720 301 770 187 770 71 c 0
 770 48 768 24 764 1 c 1
 691 14 l 1
 694 33 696 52 696 71 c 0
 696 111 687 225 589 308 c 1
 467 47 l 1
 407 75 l 1
 533 346 l 1
 479 375 418 389 355 389 c 0
 338 389 320 388 303 386 c 1
 408 298 l 1
 361 241 l 1
 168 403 l 1
 330 596 l 1
 386 549 l 1
 313 461 l 1
 327 462 340 462 354 462 c 0
 428 462 501 447 565 413 c 1
 640 575 l 1
 700 547 l 1
 621 377 l 1
EndSplineSet
EndChar

StartChar: sym06E_uni0338
Encoding: 162 -1 162
Width: 1085
Flags: HW
HStem: 454 74<657.046 829.382>
VStem: 380 74<71.5734 243.696>
LayerCount: 2
Fore
SplineSet
466 379 m 1
 503 427 601 528 772 528 c 0
 795 528 819 526 842 522 c 1
 829 449 l 1
 810 452 792 454 773 454 c 0
 720 454 617 440 535 346 c 1
 796 224 l 1
 768 164 l 1
 496 291 l 1
 467 237 454 176 454 114 c 0
 454 97 455 78 457 61 c 1
 545 166 l 1
 601 118 l 1
 439 -75 l 1
 246 87 l 1
 294 144 l 1
 381 71 l 1
 380 85 380 98 380 112 c 0
 380 186 395 258 429 322 c 1
 268 397 l 1
 296 458 l 1
 466 379 l 1
EndSplineSet
EndChar

StartChar: uni29370338
Encoding: 163 -1 163
Width: 1085
Flags: HW
HStem: 138 73<601.814 771.534> 533 20G<608.651 661.571>
VStem: 315 74<416.258 586.382>
LayerCount: 2
Fore
SplineSet
464 223 m 1
 422 255 315 354 315 529 c 0
 315 552 317 576 321 599 c 1
 394 586 l 1
 391 567 389 548 389 529 c 0
 389 489 398 375 496 292 c 1
 618 553 l 1
 679 525 l 1
 552 254 l 1
 606 225 667 211 730 211 c 0
 747 211 765 212 782 214 c 1
 677 302 l 1
 724 359 l 1
 917 197 l 1
 755 4 l 1
 699 51 l 1
 772 139 l 1
 758 138 745 138 731 138 c 0
 657 138 585 153 521 187 c 1
 445 25 l 1
 385 53 l 1
 464 223 l 1
EndSplineSet
EndChar

StartChar: sym06F_uni0338
Encoding: 164 -1 164
Width: 1080
Flags: HW
HStem: 337 73<415.958 506 587 666.392>
LayerCount: 2
Fore
SplineSet
553 605 m 1
 619 593 l 1
 587 410 l 1
 703 397 807 338 884 250 c 1
 894 365 l 1
 967 359 l 1
 945 108 l 1
 694 130 l 1
 701 204 l 1
 836 192 l 1
 769 273 677 327 574 337 c 1
 527 71 l 1
 461 83 l 1
 506 337 l 1
 403 327 311 272 244 192 c 1
 379 204 l 1
 386 130 l 1
 135 108 l 1
 113 359 l 1
 186 365 l 1
 196 250 l 1
 279 344 393 406 519 412 c 1
 553 605 l 1
EndSplineSet
EndChar

StartChar: sym070_uni0338
Encoding: 165 -1 165
Width: 710
Flags: HW
VStem: 245 73<173.608 253 334 424.042>
LayerCount: 2
Fore
SplineSet
62 221 m 1
 50 287 l 1
 243 321 l 1
 249 447 311 561 405 644 c 1
 290 654 l 1
 296 727 l 1
 547 705 l 1
 525 454 l 1
 451 461 l 1
 463 596 l 1
 383 529 328 437 318 334 c 1
 572 379 l 1
 584 313 l 1
 318 266 l 1
 328 163 382 71 463 4 c 1
 451 139 l 1
 525 146 l 1
 547 -105 l 1
 296 -127 l 1
 290 -54 l 1
 405 -44 l 1
 317 33 258 137 245 253 c 1
 62 221 l 1
EndSplineSet
EndChar

StartChar: sym071_uni0338
Encoding: 166 -1 166
Width: 1080
Flags: HW
HStem: -5 21G<461 530.523> 190 73<413.608 493 574 664.042>
LayerCount: 2
Fore
SplineSet
527 -5 m 1
 461 7 l 1
 493 190 l 1
 377 203 273 262 196 350 c 1
 186 235 l 1
 113 241 l 1
 135 492 l 1
 386 470 l 1
 379 396 l 1
 244 408 l 1
 311 327 403 273 506 263 c 1
 553 529 l 1
 619 517 l 1
 574 263 l 1
 677 273 769 328 836 408 c 1
 701 396 l 1
 694 470 l 1
 945 492 l 1
 967 241 l 1
 894 235 l 1
 884 350 l 1
 801 256 687 194 561 188 c 1
 527 -5 l 1
EndSplineSet
EndChar

StartChar: sym072_uni0338
Encoding: 167 -1 167
Width: 710
Flags: HW
VStem: 392 75<175.958 266 347 426.392>
LayerCount: 2
Fore
SplineSet
648 379 m 1
 660 313 l 1
 467 279 l 1
 461 153 400 39 306 -44 c 1
 420 -54 l 1
 414 -127 l 1
 163 -105 l 1
 185 146 l 1
 259 139 l 1
 247 3 l 1
 327 70 382 163 392 266 c 1
 138 221 l 1
 126 287 l 1
 392 334 l 1
 382 437 327 530 247 597 c 1
 259 461 l 1
 185 454 l 1
 163 705 l 1
 414 727 l 1
 420 654 l 1
 306 644 l 1
 393 567 452 463 465 347 c 1
 648 379 l 1
EndSplineSet
EndChar

StartChar: sym074_uni0338
Encoding: 168 -1 168
Width: 1191
Flags: HW
HStem: 435 74<709.494 873>
VStem: 386 74<22 186.612>
LayerCount: 2
Fore
SplineSet
390 525 m 1
 444 563 l 1
 551 411 l 1
 633 477 735 509 840 509 c 0
 851 509 862 509 873 508 c 1
 799 596 l 1
 856 644 l 1
 1018 451 l 1
 825 289 l 1
 777 346 l 1
 882 433 l 1
 868 434 854 435 840 435 c 0
 750 435 663 407 593 350 c 1
 748 129 l 1
 693 91 l 1
 545 303 l 1
 488 234 460 146 460 56 c 0
 460 42 461 28 462 14 c 1
 550 118 l 1
 607 71 l 1
 445 -122 l 1
 252 40 l 1
 299 96 l 1
 387 22 l 1
 386 33 386 44 386 55 c 0
 386 169 424 280 502 365 c 1
 390 525 l 1
EndSplineSet
EndChar

StartChar: sym073_uni0338
Encoding: 169 -1 169
Width: 1191
Flags: HW
HStem: 91 74<709.494 873>
VStem: 386 74<413.388 578>
LayerCount: 2
Fore
SplineSet
444 37 m 1
 390 75 l 1
 502 235 l 1
 424 320 386 431 386 545 c 0
 386 556 386 567 387 578 c 1
 299 504 l 1
 252 560 l 1
 445 722 l 1
 607 529 l 1
 550 482 l 1
 462 586 l 1
 461 572 460 558 460 544 c 0
 460 454 488 366 545 297 c 1
 693 509 l 1
 748 471 l 1
 593 250 l 1
 663 193 750 165 840 165 c 0
 854 165 868 166 882 167 c 1
 777 254 l 1
 825 311 l 1
 1018 149 l 1
 856 -44 l 1
 799 4 l 1
 873 92 l 1
 862 91 851 91 840 91 c 0
 735 91 633 123 551 189 c 1
 444 37 l 1
EndSplineSet
EndChar

StartChar: sym076_uni0338
Encoding: 170 -1 170
Width: 1191
Flags: HW
HStem: 91 74<318 485.98>
VStem: 731 74<413.495 577>
LayerCount: 2
Fore
SplineSet
802 75 m 1
 747 37 l 1
 640 189 l 1
 558 123 456 91 351 91 c 0
 340 91 329 91 318 92 c 1
 392 4 l 1
 335 -44 l 1
 173 149 l 1
 366 311 l 1
 414 254 l 1
 309 167 l 1
 323 166 337 165 351 165 c 0
 441 165 529 192 598 249 c 1
 443 471 l 1
 498 509 l 1
 646 298 l 1
 703 367 731 455 731 544 c 0
 731 558 730 572 729 586 c 1
 641 482 l 1
 584 529 l 1
 746 722 l 1
 939 560 l 1
 892 504 l 1
 804 577 l 1
 805 566 805 555 805 544 c 0
 805 430 767 320 690 235 c 1
 802 75 l 1
EndSplineSet
EndChar

StartChar: sym075_uni0338
Encoding: 171 -1 171
Width: 1191
Flags: HW
HStem: 435 74<318 485.98>
VStem: 731 74<23 186.505>
LayerCount: 2
Fore
SplineSet
747 563 m 1
 802 525 l 1
 690 365 l 1
 767 280 805 170 805 56 c 0
 805 45 805 34 804 23 c 1
 892 96 l 1
 939 40 l 1
 746 -122 l 1
 584 71 l 1
 641 118 l 1
 729 14 l 1
 730 28 731 42 731 56 c 0
 731 145 703 233 646 302 c 1
 498 91 l 1
 443 129 l 1
 598 351 l 1
 529 408 441 435 351 435 c 0
 337 435 323 434 309 433 c 1
 414 346 l 1
 366 289 l 1
 173 451 l 1
 335 644 l 1
 392 596 l 1
 318 508 l 1
 329 509 340 509 351 509 c 0
 456 509 558 477 640 411 c 1
 747 563 l 1
EndSplineSet
EndChar

StartChar: sym077_uni0338
Encoding: 172 -1 172
Width: 930
Flags: HW
HStem: 263 74<164 416 514 840>
VStem: 90 74<111 263 337 489>
LayerCount: 2
Fore
SplineSet
528 571 m 1
 591 548 l 1
 514 337 l 1
 840 337 l 1
 840 263 l 1
 487 263 l 1
 402 29 l 1
 339 52 l 1
 416 263 l 1
 164 263 l 1
 164 111 l 1
 90 111 l 1
 90 489 l 1
 164 489 l 1
 164 337 l 1
 443 337 l 1
 528 571 l 1
EndSplineSet
EndChar

StartChar: sym078_uni0338
Encoding: 173 -1 173
Width: 930
Flags: HW
HStem: 263 74<90 416 514 766>
VStem: 766 74<111 263 337 489>
LayerCount: 2
Fore
SplineSet
402 29 m 1
 339 52 l 1
 416 263 l 1
 90 263 l 1
 90 337 l 1
 443 337 l 1
 528 571 l 1
 591 548 l 1
 514 337 l 1
 766 337 l 1
 766 489 l 1
 840 489 l 1
 840 111 l 1
 766 111 l 1
 766 263 l 1
 487 263 l 1
 402 29 l 1
EndSplineSet
EndChar

StartChar: sym079_uni0338
Encoding: 174 -1 174
Width: 1260
Flags: HW
HStem: -176 74<594 757.991> -162 73<472.21 515> 689 73<745 790.989> 702 74<500.732 666>
VStem: 154 74<177.92 429.268> 1026 72<381.736 440.517>
LayerCount: 2
Fore
SplineSet
630 702 m 0x5c
 409 702 228 521 228 300 c 0
 228 118 352 -42 528 -89 c 1
 666 700 l 1
 654 701 642 702 630 702 c 0x5c
154 300 m 0
 154 562 368 776 630 776 c 0x5c
 647 776 663 775 679 773 c 1
 692 846 l 1
 758 834 l 1
 745 762 l 1
 828 741 905 697 966 636 c 0
 1035 567 1081 479 1098 383 c 1
 1026 370 l 1
 997 526 882 649 732 689 c 1
 594 -100 l 1
 606 -101 618 -102 630 -102 c 0
 796 -102 949 2 1008 165 c 1
 873 116 l 1
 847 185 l 1
 1084 271 l 1
 1170 34 l 1
 1101 9 l 1
 1065 108 l 1
 989 -64 817 -176 630 -176 c 0xac
 613 -176 597 -175 581 -173 c 1
 568 -246 l 1
 502 -234 l 1
 515 -162 l 1
 309 -110 154 77 154 300 c 0
EndSplineSet
EndChar

StartChar: uni21BA0338
Encoding: 175 -1 175
Width: 1260
Flags: HW
HStem: -176 74<500.657 759.268> 687 20G<1040.1 1080.47> 696 72<489.748 548.264>
VStem: 154 74<170.527 426.812> 1032 74<170.732 429.473>
LayerCount: 2
Fore
SplineSet
630 -102 m 0x98
 851 -102 1032 79 1032 300 c 0
 1032 384 1006 465 958 532 c 1
 344 18 l 1
 384 -22 482 -102 630 -102 c 0x98
822 735 m 1
 867 715 921 683 972 630 c 1
 1064 707 l 1xd8
 1106 656 l 1
 1015 579 l 1
 1074 498 1106 401 1106 300 c 0
 1106 38 892 -176 630 -176 c 0
 546 -176 409 -154 288 -30 c 1
 196 -107 l 1
 154 -56 l 1
 245 21 l 1
 186 102 154 199 154 300 c 0
 154 527 318 727 547 768 c 1
 560 696 l 1xb8
 365 660 228 492 228 300 c 0
 228 216 254 135 302 68 c 1
 916 582 l 1
 893 605 843 650 765 678 c 1
 814 543 l 1
 745 517 l 1
 659 754 l 1
 896 840 l 1
 921 771 l 1
 822 735 l 1
EndSplineSet
EndChar

StartChar: uni27F20338
Encoding: 176 -1 176
Width: 1260
Flags: HW
HStem: -176 74<594 759.268> -162 73<469.011 515> 689 73<745 787.79> 702 74<502.009 666>
VStem: 162 72<159.483 218.264> 1032 74<170.732 422.08>
LayerCount: 2
Fore
SplineSet
630 -102 m 0xac
 851 -102 1032 79 1032 300 c 0
 1032 482 908 642 732 689 c 1
 594 -100 l 1
 606 -101 618 -102 630 -102 c 0xac
195 492 m 1
 271 664 443 776 630 776 c 0x5c
 647 776 663 775 679 773 c 1
 692 846 l 1
 758 834 l 1
 745 762 l 1
 951 710 1106 523 1106 300 c 0
 1106 38 892 -176 630 -176 c 0xac
 613 -176 597 -175 581 -173 c 1
 568 -246 l 1
 502 -234 l 1
 515 -162 l 1
 432 -141 355 -97 294 -36 c 0
 225 33 179 121 162 217 c 1
 234 230 l 1
 263 74 378 -49 528 -89 c 1
 666 700 l 1
 654 701 642 702 630 702 c 0x5c
 464 702 311 598 252 435 c 1
 387 484 l 1
 413 415 l 1
 176 329 l 1
 90 566 l 1
 159 591 l 1
 195 492 l 1
EndSplineSet
EndChar

StartChar: sym07C_uni0338
Encoding: 177 -1 177
Width: 1260
Flags: HW
HStem: -168 72<711.736 770.252> 687 20G<1040.1 1080.47> 702 74<500.732 759.343>
VStem: 154 74<170.527 429.268> 1032 74<173.188 429.473>
LayerCount: 2
Fore
SplineSet
630 702 m 0xb8
 409 702 228 521 228 300 c 0
 228 216 254 135 302 68 c 1
 916 582 l 1
 876 622 778 702 630 702 c 0xb8
630 776 m 0
 714 776 851 754 972 630 c 1
 1064 707 l 1xd8
 1106 656 l 1
 1015 579 l 1
 1074 498 1106 401 1106 300 c 0
 1106 73 942 -127 713 -168 c 1
 700 -96 l 1
 895 -60 1032 108 1032 300 c 0
 1032 384 1006 465 958 532 c 1
 344 18 l 1
 367 -5 417 -50 495 -78 c 1
 446 57 l 1
 515 83 l 1
 601 -154 l 1
 364 -240 l 1
 339 -171 l 1
 438 -135 l 1
 393 -115 339 -83 288 -30 c 1
 196 -107 l 1
 154 -56 l 1
 245 21 l 1
 186 102 154 199 154 300 c 0
 154 562 368 776 630 776 c 0
EndSplineSet
EndChar

StartChar: uni27F30338
Encoding: 178 -1 178
Width: 1260
Flags: HW
HStem: -176 74<594 756.812> -162 73<472.21 515> 689 73<745 789.539> 702 74<500.732 666>
VStem: 154 74<177.92 429.268> 1026 72<159.748 218.264>
LayerCount: 2
Fore
SplineSet
630 702 m 0x5c
 409 702 228 521 228 300 c 0
 228 118 352 -42 528 -89 c 1
 666 700 l 1
 654 701 642 702 630 702 c 0x5c
154 300 m 0
 154 562 368 776 630 776 c 0x5c
 647 776 663 775 679 773 c 1
 692 846 l 1
 758 834 l 1
 745 762 l 1
 805 747 979 687 1065 492 c 1
 1101 591 l 1
 1170 566 l 1
 1084 329 l 1
 847 415 l 1
 873 484 l 1
 1008 435 l 1
 990 485 920 639 732 689 c 1
 594 -100 l 1
 606 -101 618 -102 630 -102 c 0
 822 -102 990 35 1026 230 c 1
 1098 217 l 1
 1057 -12 857 -176 630 -176 c 0xac
 613 -176 597 -175 581 -173 c 1
 568 -246 l 1
 502 -234 l 1
 515 -162 l 1
 309 -110 154 77 154 300 c 0
EndSplineSet
EndChar

StartChar: uni21BB0338
Encoding: 179 -1 179
Width: 1260
Flags: HW
HStem: -176 74<500.657 759.268> 687 20G<1040.1 1080.47> 696 72<711.736 773.51>
VStem: 154 74<170.527 426.762> 1032 74<170.732 429.473>
LayerCount: 2
Fore
SplineSet
630 -102 m 0x98
 851 -102 1032 79 1032 300 c 0
 1032 384 1006 465 958 532 c 1
 344 18 l 1
 384 -22 482 -102 630 -102 c 0x98
713 768 m 1xb8
 750 762 868 737 972 630 c 1
 1064 707 l 1xd8
 1106 656 l 1
 1015 579 l 1
 1074 498 1106 401 1106 300 c 0
 1106 38 892 -176 630 -176 c 0
 546 -176 409 -154 288 -30 c 1
 196 -107 l 1
 154 -56 l 1
 245 21 l 1
 186 102 154 199 154 300 c 0
 154 426 205 547 294 636 c 0
 336 678 385 711 438 735 c 1
 339 771 l 1
 364 840 l 1
 601 754 l 1
 515 517 l 1
 446 543 l 1
 495 678 l 1
 439 658 388 626 346 584 c 0
 271 509 228 407 228 300 c 0
 228 216 254 135 302 68 c 1
 916 582 l 1
 896 602 823 673 700 696 c 1
 713 768 l 1xb8
EndSplineSet
EndChar

StartChar: sym07A_uni0338
Encoding: 180 -1 180
Width: 1260
Flags: HW
HStem: -176 74<594 759.268> -162 73<470.461 515> 689 73<745 787.79> 702 74<503.188 666>
VStem: 162 72<381.736 440.252> 1032 74<170.732 422.08>
LayerCount: 2
Fore
SplineSet
630 -102 m 0xac
 851 -102 1032 79 1032 300 c 0
 1032 482 908 642 732 689 c 1
 594 -100 l 1
 606 -101 618 -102 630 -102 c 0xac
162 383 m 1
 203 612 403 776 630 776 c 0x5c
 647 776 663 775 679 773 c 1
 692 846 l 1
 758 834 l 1
 745 762 l 1
 951 710 1106 523 1106 300 c 0
 1106 38 892 -176 630 -176 c 0xac
 613 -176 597 -175 581 -173 c 1
 568 -246 l 1
 502 -234 l 1
 515 -162 l 1
 455 -147 281 -87 195 108 c 1
 159 9 l 1
 90 34 l 1
 176 271 l 1
 413 185 l 1
 387 116 l 1
 252 165 l 1
 270 115 340 -39 528 -89 c 1
 666 700 l 1
 654 701 642 702 630 702 c 0x5c
 438 702 270 565 234 370 c 1
 162 383 l 1
EndSplineSet
EndChar

StartChar: sym07B_uni0338
Encoding: 181 -1 181
Width: 1260
Flags: HW
HStem: -168 72<486.49 548.264> 687 20G<1040.1 1080.47> 702 74<500.732 759.343>
VStem: 154 74<170.527 429.268> 1032 74<173.238 429.473>
LayerCount: 2
Fore
SplineSet
630 702 m 0xb8
 409 702 228 521 228 300 c 0
 228 216 254 135 302 68 c 1
 916 582 l 1
 876 622 778 702 630 702 c 0xb8
630 776 m 0
 714 776 851 754 972 630 c 1
 1064 707 l 1xd8
 1106 656 l 1
 1015 579 l 1
 1074 498 1106 401 1106 300 c 0
 1106 174 1055 53 966 -36 c 0
 924 -78 875 -111 822 -135 c 1
 921 -171 l 1
 896 -240 l 1
 659 -154 l 1
 745 83 l 1
 814 57 l 1
 765 -78 l 1
 821 -58 872 -26 914 16 c 0
 989 91 1032 193 1032 300 c 0
 1032 384 1006 465 958 532 c 1
 344 18 l 1
 364 -2 437 -73 560 -96 c 1
 547 -168 l 1
 510 -162 392 -137 288 -30 c 1
 196 -107 l 1
 154 -56 l 1
 245 21 l 1
 186 102 154 199 154 300 c 0
 154 562 368 776 630 776 c 0
EndSplineSet
EndChar

StartChar: uni21DB0338
Encoding: 182 -1 182
Width: 1080
Flags: HW
HStem: 144 59<90 296 388 745> 270 60<90 341 435 871> 397 59<90 388 480 745> 534 20G<731 771>
LayerCount: 2
Fore
SplineSet
871 270 m 1
 413 270 l 1
 388 203 l 1
 804 203 l 1
 871 270 l 1
804 397 m 1
 459 397 l 1
 435 330 l 1
 871 330 l 1
 804 397 l 1
484 662 m 1
 547 639 l 1
 480 456 l 1
 745 456 l 1
 699 502 l 1
 751 554 l 1
 1005 300 l 1
 751 46 l 1
 699 98 l 1
 745 144 l 1
 367 144 l 1
 292 -62 l 1
 229 -39 l 1
 296 144 l 1
 90 144 l 1
 90 203 l 1
 317 203 l 1
 341 270 l 1
 90 270 l 1
 90 330 l 1
 363 330 l 1
 388 397 l 1
 90 397 l 1
 90 456 l 1
 409 456 l 1
 484 662 l 1
EndSplineSet
EndChar

StartChar: uni290A0338
Encoding: 183 -1 183
Width: 892
Flags: HW
HStem: -11 21G<99.6984 161.627> 745 20G<426 466>
VStem: 290 59<-150 56 148 505> 417 59<-150 102 195 631> 543 59<-150 148 240 505>
LayerCount: 2
Fore
SplineSet
476 631 m 1
 476 195 l 1
 543 219 l 1
 543 564 l 1
 476 631 l 1
349 564 m 1
 349 148 l 1
 417 173 l 1
 417 632 l 1
 349 564 l 1
107 -11 m 1
 84 52 l 1
 290 127 l 1
 290 505 l 1
 244 459 l 1
 192 511 l 1
 446 765 l 1
 700 511 l 1
 648 459 l 1
 602 505 l 1
 602 240 l 1
 785 307 l 1
 808 244 l 1
 602 169 l 1
 602 -150 l 1
 543 -150 l 1
 543 148 l 1
 476 123 l 1
 476 -150 l 1
 417 -150 l 1
 417 102 l 1
 349 77 l 1
 349 -150 l 1
 290 -150 l 1
 290 56 l 1
 107 -11 l 1
EndSplineSet
EndChar

StartChar: uni21DA0338
Encoding: 184 -1 184
Width: 1080
Flags: HW
HStem: 144 59<335 600 692 990> 270 60<209 645 739 990> 397 59<335 692 784 990> 534 20G<309 349>
LayerCount: 2
Fore
SplineSet
209 330 m 1
 667 330 l 1
 692 397 l 1
 276 397 l 1
 209 330 l 1
276 203 m 1
 621 203 l 1
 645 270 l 1
 209 270 l 1
 276 203 l 1
596 -62 m 1
 533 -39 l 1
 600 144 l 1
 335 144 l 1
 381 98 l 1
 329 46 l 1
 75 300 l 1
 329 554 l 1
 381 502 l 1
 335 456 l 1
 713 456 l 1
 788 662 l 1
 851 639 l 1
 784 456 l 1
 990 456 l 1
 990 397 l 1
 763 397 l 1
 739 330 l 1
 990 330 l 1
 990 270 l 1
 717 270 l 1
 692 203 l 1
 990 203 l 1
 990 144 l 1
 671 144 l 1
 596 -62 l 1
EndSplineSet
EndChar

StartChar: uni290B0338
Encoding: 185 -1 185
Width: 892
Flags: HW
VStem: 290 59<95 360 452 750> 417 59<-31 406 499 750> 543 59<95 452 544 750>
LayerCount: 2
Fore
SplineSet
417 -32 m 1
 417 406 l 1
 349 381 l 1
 349 36 l 1
 417 -32 l 1
543 36 m 1
 543 452 l 1
 476 427 l 1
 476 -31 l 1
 543 36 l 1
785 611 m 1
 808 548 l 1
 602 473 l 1
 602 95 l 1
 648 141 l 1
 700 89 l 1
 446 -165 l 1
 192 89 l 1
 244 141 l 1
 290 95 l 1
 290 360 l 1
 107 293 l 1
 84 356 l 1
 290 431 l 1
 290 750 l 1
 349 750 l 1
 349 452 l 1
 417 477 l 1
 417 750 l 1
 476 750 l 1
 476 499 l 1
 543 523 l 1
 543 750 l 1
 602 750 l 1
 602 544 l 1
 785 611 l 1
EndSplineSet
EndChar

StartChar: uni27F60338
Encoding: 186 -1 186
Width: 1680
Flags: HW
HStem: 263 74<90 715 813 1464>
LayerCount: 2
Fore
SplineSet
827 571 m 1
 890 548 l 1
 813 337 l 1
 1464 337 l 1
 1375 426 l 1
 1427 478 l 1
 1605 300 l 1
 1427 122 l 1
 1375 174 l 1
 1464 263 l 1
 786 263 l 1
 701 29 l 1
 638 52 l 1
 715 263 l 1
 90 263 l 1
 90 337 l 1
 742 337 l 1
 827 571 l 1
EndSplineSet
EndChar

StartChar: uni27F50338
Encoding: 187 -1 187
Width: 1680
Flags: HW
HStem: 263 74<216 867 965 1590>
LayerCount: 2
Fore
SplineSet
853 29 m 1
 790 52 l 1
 867 263 l 1
 216 263 l 1
 305 174 l 1
 253 122 l 1
 75 300 l 1
 253 478 l 1
 305 426 l 1
 216 337 l 1
 894 337 l 1
 979 571 l 1
 1042 548 l 1
 965 337 l 1
 1590 337 l 1
 1590 263 l 1
 938 263 l 1
 853 29 l 1
EndSplineSet
EndChar

StartChar: uni27F90338
Encoding: 188 -1 188
Width: 1680
Flags: HW
HStem: 168 74<90 604 702 1368> 358 74<90 674 772 1368>
LayerCount: 2
Fore
SplineSet
1443 358 m 1
 745 358 l 1
 702 242 l 1
 1443 242 l 1
 1501 300 l 1
 1443 358 l 1
773 631 m 1
 836 609 l 1
 772 432 l 1
 1368 432 l 1
 1329 471 l 1
 1382 524 l 1
 1605 300 l 1
 1382 76 l 1
 1329 129 l 1
 1368 168 l 1
 675 168 l 1
 603 -31 l 1
 540 -9 l 1
 604 168 l 1
 90 168 l 1
 90 242 l 1
 631 242 l 1
 674 358 l 1
 90 358 l 1
 90 432 l 1
 701 432 l 1
 773 631 l 1
EndSplineSet
EndChar

StartChar: uni27F80338
Encoding: 189 -1 189
Width: 1680
Flags: HW
HStem: 168 74<312 908 1006 1590> 358 74<312 978 1076 1590>
LayerCount: 2
Fore
SplineSet
237 242 m 1
 935 242 l 1
 978 358 l 1
 237 358 l 1
 179 300 l 1
 237 242 l 1
907 -31 m 1
 844 -9 l 1
 908 168 l 1
 312 168 l 1
 351 129 l 1
 298 76 l 1
 75 300 l 1
 298 524 l 1
 351 471 l 1
 312 432 l 1
 1005 432 l 1
 1077 631 l 1
 1140 609 l 1
 1076 432 l 1
 1590 432 l 1
 1590 358 l 1
 1049 358 l 1
 1006 242 l 1
 1590 242 l 1
 1590 168 l 1
 979 168 l 1
 907 -31 l 1
EndSplineSet
EndChar

StartChar: uni27F70338
Encoding: 190 -1 190
Width: 1680
Flags: HW
HStem: 263 74<216 791 889 1464>
LayerCount: 2
Fore
SplineSet
903 571 m 1
 966 548 l 1
 889 337 l 1
 1464 337 l 1
 1375 426 l 1
 1427 478 l 1
 1605 300 l 1
 1427 122 l 1
 1375 174 l 1
 1464 263 l 1
 862 263 l 1
 777 29 l 1
 714 52 l 1
 791 263 l 1
 216 263 l 1
 305 174 l 1
 253 122 l 1
 75 300 l 1
 253 478 l 1
 305 426 l 1
 216 337 l 1
 818 337 l 1
 903 571 l 1
EndSplineSet
EndChar

StartChar: uni27FA0338
Encoding: 191 -1 191
Width: 1680
Flags: HW
HStem: 168 74<312 756 854 1368> 358 74<312 826 924 1368>
LayerCount: 2
Fore
SplineSet
237 358 m 1
 179 300 l 1
 237 242 l 1
 783 242 l 1
 826 358 l 1
 237 358 l 1
1443 358 m 1
 897 358 l 1
 854 242 l 1
 1443 242 l 1
 1501 300 l 1
 1443 358 l 1
925 631 m 1
 988 609 l 1
 924 432 l 1
 1368 432 l 1
 1329 471 l 1
 1382 524 l 1
 1605 300 l 1
 1382 76 l 1
 1329 129 l 1
 1368 168 l 1
 827 168 l 1
 755 -31 l 1
 692 -9 l 1
 756 168 l 1
 312 168 l 1
 351 129 l 1
 298 76 l 1
 75 300 l 1
 298 524 l 1
 351 471 l 1
 312 432 l 1
 853 432 l 1
 925 631 l 1
EndSplineSet
EndChar

StartChar: uni27FC0338
Encoding: 192 -1 192
Width: 1680
Flags: HW
HStem: 263 74<164 715 813 1464>
VStem: 90 74<111 263 337 489>
LayerCount: 2
Fore
SplineSet
827 571 m 1
 890 548 l 1
 813 337 l 1
 1464 337 l 1
 1375 426 l 1
 1427 478 l 1
 1605 300 l 1
 1427 122 l 1
 1375 174 l 1
 1464 263 l 1
 786 263 l 1
 701 29 l 1
 638 52 l 1
 715 263 l 1
 164 263 l 1
 164 111 l 1
 90 111 l 1
 90 489 l 1
 164 489 l 1
 164 337 l 1
 742 337 l 1
 827 571 l 1
EndSplineSet
EndChar

StartChar: uni27FB0338
Encoding: 193 -1 193
Width: 1680
Flags: HW
HStem: 263 74<216 867 965 1516>
VStem: 1516 74<111 263 337 489>
LayerCount: 2
Fore
SplineSet
853 29 m 1
 790 52 l 1
 867 263 l 1
 216 263 l 1
 305 174 l 1
 253 122 l 1
 75 300 l 1
 253 478 l 1
 305 426 l 1
 216 337 l 1
 894 337 l 1
 979 571 l 1
 1042 548 l 1
 965 337 l 1
 1516 337 l 1
 1516 489 l 1
 1590 489 l 1
 1590 111 l 1
 1516 111 l 1
 1516 263 l 1
 938 263 l 1
 853 29 l 1
EndSplineSet
EndChar

StartChar: uni27FE0338
Encoding: 194 -1 194
Width: 1680
Flags: HW
HStem: 168 74<164 604 702 1368> 358 74<164 674 772 1368>
VStem: 90 74<65 168 242 358 432 535>
LayerCount: 2
Fore
SplineSet
1443 358 m 1
 745 358 l 1
 702 242 l 1
 1443 242 l 1
 1501 300 l 1
 1443 358 l 1
164 358 m 1
 164 242 l 1
 631 242 l 1
 674 358 l 1
 164 358 l 1
773 631 m 1
 836 609 l 1
 772 432 l 1
 1368 432 l 1
 1329 471 l 1
 1382 524 l 1
 1605 300 l 1
 1382 76 l 1
 1329 129 l 1
 1368 168 l 1
 675 168 l 1
 603 -31 l 1
 540 -9 l 1
 604 168 l 1
 164 168 l 1
 164 65 l 1
 90 65 l 1
 90 535 l 1
 164 535 l 1
 164 432 l 1
 701 432 l 1
 773 631 l 1
EndSplineSet
EndChar

StartChar: uni27FD0338
Encoding: 195 -1 195
Width: 1680
Flags: HW
HStem: 168 74<312 908 1006 1516> 358 74<312 978 1076 1516>
VStem: 1516 74<65 168 242 358 432 535>
LayerCount: 2
Fore
SplineSet
237 242 m 1
 935 242 l 1
 978 358 l 1
 237 358 l 1
 179 300 l 1
 237 242 l 1
1516 242 m 1
 1516 358 l 1
 1049 358 l 1
 1006 242 l 1
 1516 242 l 1
907 -31 m 1
 844 -9 l 1
 908 168 l 1
 312 168 l 1
 351 129 l 1
 298 76 l 1
 75 300 l 1
 298 524 l 1
 351 471 l 1
 312 432 l 1
 1005 432 l 1
 1077 631 l 1
 1140 609 l 1
 1076 432 l 1
 1516 432 l 1
 1516 535 l 1
 1590 535 l 1
 1590 65 l 1
 1516 65 l 1
 1516 168 l 1
 979 168 l 1
 907 -31 l 1
EndSplineSet
EndChar

StartChar: uni27FF0338
Encoding: 196 -1 196
Width: 1680
Flags: HW
HStem: 187 74<417.494 498.836 815.376 896.836 1213.49 1289.53> 263 74<1352.77 1464> 339 74<211.783 299.836 616.494 698.725 1014.49 1095.84>
CounterMasks: 1 e0
LayerCount: 2
Fore
SplineSet
1387 263 m 2
 1355 263 1324 187 1255 187 c 0
 1199 187 1157 232 1125 279 c 0
 1106 306 1088 339 1056 339 c 0
 1023 339 1005 306 986 279 c 0
 954 232 913 187 857 187 c 0
 824 187 796 203 772 225 c 1
 701 29 l 1
 638 52 l 1
 723 285 l 1
 705 311 688 339 658 339 c 0
 625 339 607 306 588 279 c 0
 556 232 515 187 459 187 c 0
 403 187 361 232 329 279 c 0
 310 306 292 339 260 339 c 0
 209 339 187 283 157 241 c 1
 97 283 l 1
 140 344 186 413 260 413 c 0
 316 413 357 368 389 321 c 0
 408 294 426 261 459 261 c 0
 491 261 509 294 528 321 c 0
 560 368 602 413 658 413 c 0
 695 413 726 392 752 365 c 1
 827 571 l 1
 890 548 l 1
 800 302 l 1
 815 281 832 261 857 261 c 0
 889 261 907 294 926 321 c 0
 958 368 1000 413 1056 413 c 0
 1112 413 1153 368 1185 321 c 0
 1204 294 1222 261 1255 261 c 0
 1287 261 1317 337 1387 337 c 2
 1464 337 l 1
 1375 426 l 1
 1427 478 l 1
 1605 300 l 1
 1427 122 l 1
 1375 174 l 1
 1464 263 l 1
 1387 263 l 2
EndSplineSet
EndChar

StartChar: uni2B330338
Encoding: 197 -1 197
Width: 1680
Flags: HW
HStem: 187 74<390.354 466.506 783.164 839.51 1181.16 1262.51> 263 74<216 327.23> 339 74<584.164 665.506 991.292 1063.51 1380.16 1468.22>
CounterMasks: 1 e0
LayerCount: 2
Fore
SplineSet
293 337 m 2
 362 337 393 261 425 261 c 0
 458 261 476 294 495 321 c 0
 527 368 568 413 624 413 c 0
 680 413 722 368 754 321 c 0
 773 294 791 261 823 261 c 0
 850 261 866 282 882 305 c 1
 979 571 l 1
 1042 548 l 1
 991 408 l 1
 1001 411 1011 413 1022 413 c 0
 1078 413 1120 368 1152 321 c 0
 1171 294 1189 261 1221 261 c 0
 1254 261 1272 294 1291 321 c 0
 1323 368 1364 413 1420 413 c 0
 1494 413 1540 344 1583 283 c 1
 1523 241 l 1
 1493 283 1471 339 1420 339 c 0
 1388 339 1370 306 1351 279 c 0
 1319 232 1277 187 1221 187 c 0
 1165 187 1124 232 1092 279 c 0
 1073 306 1055 339 1022 339 c 0
 990 339 972 306 953 279 c 0
 947 271 941 263 935 255 c 1
 853 29 l 1
 790 52 l 1
 840 188 l 1
 835 187 829 187 823 187 c 0
 767 187 726 232 694 279 c 0
 675 306 657 339 624 339 c 0
 592 339 574 306 555 279 c 0
 523 232 481 187 425 187 c 0
 356 187 325 263 293 263 c 2
 216 263 l 1
 305 174 l 1
 253 122 l 1
 75 300 l 1
 253 478 l 1
 305 426 l 1
 216 337 l 1
 293 337 l 2
EndSplineSet
EndChar

StartChar: uni27DD0338
Encoding: 198 -1 198
Width: 1680
Flags: HW
HStem: 263 74<164 791 889 1590>
VStem: 90 74<111 263 337 489>
LayerCount: 2
Fore
SplineSet
903 571 m 1
 966 548 l 1
 889 337 l 1
 1590 337 l 1
 1590 263 l 1
 862 263 l 1
 777 29 l 1
 714 52 l 1
 791 263 l 1
 164 263 l 1
 164 111 l 1
 90 111 l 1
 90 489 l 1
 164 489 l 1
 164 337 l 1
 818 337 l 1
 903 571 l 1
EndSplineSet
EndChar

StartChar: uni27DE0338
Encoding: 199 -1 199
Width: 1680
Flags: HW
HStem: 263 74<90 791 889 1516>
VStem: 1516 74<111 263 337 489>
LayerCount: 2
Fore
SplineSet
777 29 m 1
 714 52 l 1
 791 263 l 1
 90 263 l 1
 90 337 l 1
 818 337 l 1
 903 571 l 1
 966 548 l 1
 889 337 l 1
 1516 337 l 1
 1516 489 l 1
 1590 489 l 1
 1590 111 l 1
 1516 111 l 1
 1516 263 l 1
 862 263 l 1
 777 29 l 1
EndSplineSet
EndChar

StartChar: uni22AC
Encoding: 224 8876 200
Width: 840
Flags: HW
HStem: 0 17G<90 164 331 401.358> 317 74<164 412 502 750> 691 16G<90 164 512.625 583>
VStem: 90 74<0 317 391 707>
LayerCount: 2
Fore
SplineSet
518 711 m 1
 583 694 l 1
 502 391 l 1
 750 391 l 1
 750 317 l 1
 482 317 l 1
 396 -4 l 1
 331 13 l 1
 412 317 l 1
 164 317 l 1
 164 0 l 1
 90 0 l 1
 90 707 l 1
 164 707 l 1
 164 391 l 1
 432 391 l 1
 518 711 l 1
EndSplineSet
EndChar

StartChar: uni22A50338
Encoding: 225 -1 201
Width: 840
Flags: HW
HStem: 0 74<90 383 457 750> 687 20G<383 457>
VStem: 383 74<74 341 440 707>
LayerCount: 2
Fore
SplineSet
107 241 m 1
 84 304 l 1
 383 413 l 1
 383 707 l 1
 457 707 l 1
 457 440 l 1
 733 540 l 1
 756 477 l 1
 457 368 l 1
 457 74 l 1
 750 74 l 1
 750 0 l 1
 90 0 l 1
 90 74 l 1
 383 74 l 1
 383 341 l 1
 107 241 l 1
EndSplineSet
EndChar

StartChar: uni22A30338
Encoding: 226 -1 202
Width: 840
Flags: HW
HStem: 0 17G<257 327.358 676 750> 317 74<90 338 428 676> 691 16G<438.625 509 676 750>
VStem: 676 74<0 317 391 707>
LayerCount: 2
Fore
SplineSet
322 -4 m 1
 257 13 l 1
 338 317 l 1
 90 317 l 1
 90 391 l 1
 358 391 l 1
 444 711 l 1
 509 694 l 1
 428 391 l 1
 676 391 l 1
 676 707 l 1
 750 707 l 1
 750 0 l 1
 676 0 l 1
 676 317 l 1
 408 317 l 1
 322 -4 l 1
EndSplineSet
EndChar

StartChar: uni22A40338
Encoding: 227 -1 203
Width: 840
Flags: HW
HStem: 0 21G<383 457> 633 74<90 383 457 750>
VStem: 383 74<0 267 366 633>
LayerCount: 2
Fore
SplineSet
733 466 m 1
 756 403 l 1
 457 294 l 1
 457 0 l 1
 383 0 l 1
 383 267 l 1
 107 167 l 1
 84 230 l 1
 383 339 l 1
 383 633 l 1
 90 633 l 1
 90 707 l 1
 750 707 l 1
 750 633 l 1
 457 633 l 1
 457 366 l 1
 733 466 l 1
EndSplineSet
EndChar

StartChar: uni22A60338
Encoding: 228 -1 204
Width: 642
Flags: HW
HStem: 0 17G<90 164 232 302.358> 317 74<164 313 403 552> 691 16G<90 164 413.625 484>
VStem: 90 74<0 317 391 707>
LayerCount: 2
Fore
SplineSet
419 711 m 1
 484 694 l 1
 403 391 l 1
 552 391 l 1
 552 317 l 1
 383 317 l 1
 297 -4 l 1
 232 13 l 1
 313 317 l 1
 164 317 l 1
 164 0 l 1
 90 0 l 1
 90 707 l 1
 164 707 l 1
 164 391 l 1
 333 391 l 1
 419 711 l 1
EndSplineSet
EndChar

StartChar: uni2AE00338
Encoding: 229 -1 205
Width: 840
Flags: HW
HStem: 0 74<90 383 457 750>
VStem: 383 74<74 235 334 495>
LayerCount: 2
Fore
SplineSet
107 135 m 1
 84 198 l 1
 383 307 l 1
 383 495 l 1
 457 495 l 1
 457 334 l 1
 733 434 l 1
 756 371 l 1
 457 262 l 1
 457 74 l 1
 750 74 l 1
 750 0 l 1
 90 0 l 1
 90 74 l 1
 383 74 l 1
 383 235 l 1
 107 135 l 1
EndSplineSet
EndChar

StartChar: uni2ADE0338
Encoding: 230 -1 206
Width: 642
Flags: HW
HStem: 0 17G<158 228.358 478 552> 317 74<90 239 329 478> 691 16G<339.625 410 478 552>
VStem: 478 74<0 317 391 707>
LayerCount: 2
Fore
SplineSet
223 -4 m 1
 158 13 l 1
 239 317 l 1
 90 317 l 1
 90 391 l 1
 259 391 l 1
 345 711 l 1
 410 694 l 1
 329 391 l 1
 478 391 l 1
 478 707 l 1
 552 707 l 1
 552 0 l 1
 478 0 l 1
 478 317 l 1
 309 317 l 1
 223 -4 l 1
EndSplineSet
EndChar

StartChar: uni2ADF0338
Encoding: 231 -1 207
Width: 840
Flags: HW
HStem: 0 21G<383 457> 421 74<90 383 457 750>
VStem: 383 74<0 161 260 421>
LayerCount: 2
Fore
SplineSet
733 360 m 1
 756 297 l 1
 457 188 l 1
 457 0 l 1
 383 0 l 1
 383 161 l 1
 107 61 l 1
 84 124 l 1
 383 233 l 1
 383 421 l 1
 90 421 l 1
 90 495 l 1
 750 495 l 1
 750 421 l 1
 457 421 l 1
 457 260 l 1
 733 360 l 1
EndSplineSet
EndChar

StartChar: uni22AD
Encoding: 232 8877 208
Width: 840
Flags: HW
HStem: 0 17G<90 164 331 401.398> 222 74<164 387 476 750> 411 75<164 438 527 750> 691 16G<90 164 512.667 583>
VStem: 90 74<0 222 296 411 486 707>
LayerCount: 2
Fore
SplineSet
164 411 m 1
 164 296 l 1
 407 296 l 1
 438 411 l 1
 164 411 l 1
518 711 m 1
 583 694 l 1
 527 486 l 1
 750 486 l 1
 750 411 l 1
 507 411 l 1
 476 296 l 1
 750 296 l 1
 750 222 l 1
 457 222 l 1
 396 -4 l 1
 331 13 l 1
 387 222 l 1
 164 222 l 1
 164 0 l 1
 90 0 l 1
 90 707 l 1
 164 707 l 1
 164 486 l 1
 458 486 l 1
 518 711 l 1
EndSplineSet
EndChar

StartChar: uni2AEB0338
Encoding: 233 -1 209
Width: 840
Flags: HW
HStem: 0 74<90 288 362 478 552 750> 687 20G<288 362 478 552>
VStem: 288 74<74 307 405 707> 478 74<74 376 474 707>
LayerCount: 2
Fore
SplineSet
362 74 m 1
 478 74 l 1
 478 376 l 1
 362 334 l 1
 362 74 l 1
107 241 m 1
 84 304 l 1
 288 378 l 1
 288 707 l 1
 362 707 l 1
 362 405 l 1
 478 447 l 1
 478 707 l 1
 552 707 l 1
 552 474 l 1
 733 540 l 1
 756 477 l 1
 552 403 l 1
 552 74 l 1
 750 74 l 1
 750 0 l 1
 90 0 l 1
 90 74 l 1
 288 74 l 1
 288 307 l 1
 107 241 l 1
EndSplineSet
EndChar

StartChar: uni2AE40338
Encoding: 234 -1 210
Width: 840
Flags: HW
HStem: 0 17G<257 327.398 676 750> 222 74<90 313 402 676> 412 74<90 364 453 676> 691 16G<438.667 509 676 750>
VStem: 676 74<0 222 296 412 486 707>
LayerCount: 2
Fore
SplineSet
676 296 m 1
 676 412 l 1
 433 412 l 1
 402 296 l 1
 676 296 l 1
322 -4 m 1
 257 13 l 1
 313 222 l 1
 90 222 l 1
 90 296 l 1
 333 296 l 1
 364 412 l 1
 90 412 l 1
 90 486 l 1
 384 486 l 1
 444 711 l 1
 509 694 l 1
 453 486 l 1
 676 486 l 1
 676 707 l 1
 750 707 l 1
 750 0 l 1
 676 0 l 1
 676 222 l 1
 383 222 l 1
 322 -4 l 1
EndSplineSet
EndChar

StartChar: uni2AEA0338
Encoding: 235 -1 211
Width: 840
Flags: HW
HStem: 0 21G<288 362 478 552> 633 74<90 288 362 478 552 750>
VStem: 288 74<0 233 331 633> 478 74<0 302 400 633>
LayerCount: 2
Fore
SplineSet
478 633 m 1
 362 633 l 1
 362 331 l 1
 478 373 l 1
 478 633 l 1
733 466 m 1
 756 403 l 1
 552 329 l 1
 552 0 l 1
 478 0 l 1
 478 302 l 1
 362 260 l 1
 362 0 l 1
 288 0 l 1
 288 233 l 1
 107 167 l 1
 84 230 l 1
 288 304 l 1
 288 633 l 1
 90 633 l 1
 90 707 l 1
 750 707 l 1
 750 633 l 1
 552 633 l 1
 552 400 l 1
 733 466 l 1
EndSplineSet
EndChar

StartChar: uni22A70338
Encoding: 236 -1 212
Width: 642
Flags: HW
HStem: 0 17G<90 164 232 302.398> 222 74<164 288 377 552> 411 75<164 339 428 552> 691 16G<90 164 413.667 484>
VStem: 90 74<0 222 296 411 486 707>
LayerCount: 2
Fore
SplineSet
164 411 m 1
 164 296 l 1
 308 296 l 1
 339 411 l 1
 164 411 l 1
419 711 m 1
 484 694 l 1
 428 486 l 1
 552 486 l 1
 552 411 l 1
 408 411 l 1
 377 296 l 1
 552 296 l 1
 552 222 l 1
 358 222 l 1
 297 -4 l 1
 232 13 l 1
 288 222 l 1
 164 222 l 1
 164 0 l 1
 90 0 l 1
 90 707 l 1
 164 707 l 1
 164 486 l 1
 359 486 l 1
 419 711 l 1
EndSplineSet
EndChar

StartChar: sym07E_uni0338
Encoding: 237 -1 213
Width: 840
Flags: HW
HStem: 0 74<90 288 362 478 552 750>
VStem: 288 74<74 201 299 495> 478 74<74 270 368 495>
LayerCount: 2
Fore
SplineSet
362 74 m 1
 478 74 l 1
 478 270 l 1
 362 228 l 1
 362 74 l 1
107 135 m 1
 84 198 l 1
 288 272 l 1
 288 495 l 1
 362 495 l 1
 362 299 l 1
 478 341 l 1
 478 495 l 1
 552 495 l 1
 552 368 l 1
 733 434 l 1
 756 371 l 1
 552 297 l 1
 552 74 l 1
 750 74 l 1
 750 0 l 1
 90 0 l 1
 90 74 l 1
 288 74 l 1
 288 201 l 1
 107 135 l 1
EndSplineSet
EndChar

StartChar: sym07D_uni0338
Encoding: 238 -1 214
Width: 642
Flags: HW
HStem: 0 17G<158 228.398 478 552> 222 74<90 214 303 478> 412 74<90 265 354 478> 691 16G<339.667 410 478 552>
VStem: 478 74<0 222 296 412 486 707>
LayerCount: 2
Fore
SplineSet
478 296 m 1
 478 412 l 1
 334 412 l 1
 303 296 l 1
 478 296 l 1
223 -4 m 1
 158 13 l 1
 214 222 l 1
 90 222 l 1
 90 296 l 1
 234 296 l 1
 265 412 l 1
 90 412 l 1
 90 486 l 1
 285 486 l 1
 345 711 l 1
 410 694 l 1
 354 486 l 1
 478 486 l 1
 478 707 l 1
 552 707 l 1
 552 0 l 1
 478 0 l 1
 478 222 l 1
 284 222 l 1
 223 -4 l 1
EndSplineSet
EndChar

StartChar: sym07F_uni0338
Encoding: 239 -1 215
Width: 840
Flags: HW
HStem: 0 21G<288 362 478 552> 421 74<90 288 362 478 552 750>
VStem: 288 74<0 127 225 421> 478 74<0 196 294 421>
LayerCount: 2
Fore
SplineSet
478 421 m 1
 362 421 l 1
 362 225 l 1
 478 267 l 1
 478 421 l 1
733 360 m 1
 756 297 l 1
 552 223 l 1
 552 0 l 1
 478 0 l 1
 478 196 l 1
 362 154 l 1
 362 0 l 1
 288 0 l 1
 288 127 l 1
 107 61 l 1
 84 124 l 1
 288 198 l 1
 288 421 l 1
 90 421 l 1
 90 495 l 1
 750 495 l 1
 750 421 l 1
 552 421 l 1
 552 294 l 1
 733 360 l 1
EndSplineSet
EndChar

StartChar: uni22AE
Encoding: 240 8878 216
Width: 1038
Flags: HW
HStem: 0 21G<90 164 288 362 529 599.358> 317 74<362 610 700 948> 687 20G<90 164 288 362 710.625 781>
VStem: 90 74<0 707> 288 74<0 317 391 707>
LayerCount: 2
Fore
SplineSet
164 0 m 1
 90 0 l 1
 90 707 l 1
 164 707 l 1
 164 0 l 1
716 711 m 1
 781 694 l 1
 700 391 l 1
 948 391 l 1
 948 317 l 1
 680 317 l 1
 594 -4 l 1
 529 13 l 1
 610 317 l 1
 362 317 l 1
 362 0 l 1
 288 0 l 1
 288 707 l 1
 362 707 l 1
 362 391 l 1
 630 391 l 1
 716 711 l 1
EndSplineSet
EndChar

StartChar: uni234A0338
Encoding: 241 -1 217
Width: 840
Flags: HW
HStem: -106 74<90 750> 92 74<90 383 457 750>
VStem: 383 74<166 440 539 813>
LayerCount: 2
Fore
SplineSet
750 -32 m 1
 750 -106 l 1
 90 -106 l 1
 90 -32 l 1
 750 -32 l 1
107 340 m 1
 84 403 l 1
 383 512 l 1
 383 813 l 1
 457 813 l 1
 457 539 l 1
 733 639 l 1
 756 576 l 1
 457 467 l 1
 457 166 l 1
 750 166 l 1
 750 92 l 1
 90 92 l 1
 90 166 l 1
 383 166 l 1
 383 440 l 1
 107 340 l 1
EndSplineSet
EndChar

StartChar: uni2AE30338
Encoding: 242 -1 218
Width: 1038
Flags: HW
HStem: 0 21G<257 327.358 676 750 874 948> 317 74<90 338 428 676> 687 20G<438.625 509 676 750 874 948>
VStem: 676 74<0 317 391 707> 874 74<0 707>
LayerCount: 2
Fore
SplineSet
874 707 m 1
 948 707 l 1
 948 0 l 1
 874 0 l 1
 874 707 l 1
322 -4 m 1
 257 13 l 1
 338 317 l 1
 90 317 l 1
 90 391 l 1
 358 391 l 1
 444 711 l 1
 509 694 l 1
 428 391 l 1
 676 391 l 1
 676 707 l 1
 750 707 l 1
 750 0 l 1
 676 0 l 1
 676 317 l 1
 408 317 l 1
 322 -4 l 1
EndSplineSet
EndChar

StartChar: uni23510338
Encoding: 243 -1 219
Width: 840
Flags: HW
HStem: 541 74<90 383 457 750> 739 74<90 750>
VStem: 383 74<-106 168 267 541>
LayerCount: 2
Fore
SplineSet
90 739 m 1
 90 813 l 1
 750 813 l 1
 750 739 l 1
 90 739 l 1
733 367 m 1
 756 304 l 1
 457 195 l 1
 457 -106 l 1
 383 -106 l 1
 383 168 l 1
 107 68 l 1
 84 131 l 1
 383 240 l 1
 383 541 l 1
 90 541 l 1
 90 615 l 1
 750 615 l 1
 750 541 l 1
 457 541 l 1
 457 267 l 1
 733 367 l 1
EndSplineSet
EndChar

StartChar: uni22AE.alt
Encoding: 244 -1 220
Width: 840
Flags: HW
HStem: 0 21G<90 164 288 362 430 500.358> 317 74<362 511 601 750> 687 20G<90 164 288 362 611.625 682>
VStem: 90 74<0 707> 288 74<0 317 391 707>
LayerCount: 2
Fore
SplineSet
164 0 m 1
 90 0 l 1
 90 707 l 1
 164 707 l 1
 164 0 l 1
617 711 m 1
 682 694 l 1
 601 391 l 1
 750 391 l 1
 750 317 l 1
 581 317 l 1
 495 -4 l 1
 430 13 l 1
 511 317 l 1
 362 317 l 1
 362 0 l 1
 288 0 l 1
 288 707 l 1
 362 707 l 1
 362 391 l 1
 531 391 l 1
 617 711 l 1
EndSplineSet
EndChar

StartChar: uni2AE80338
Encoding: 245 -1 221
Width: 840
Flags: HW
HStem: 0 74<90 750> 198 74<90 383 457 750> 687 20G<383 457>
VStem: 383 74<272 440 539 707>
LayerCount: 2
Fore
SplineSet
750 74 m 1
 750 0 l 1
 90 0 l 1
 90 74 l 1
 750 74 l 1
107 340 m 1
 84 403 l 1
 383 512 l 1
 383 707 l 1
 457 707 l 1
 457 539 l 1
 733 639 l 1
 756 576 l 1
 457 467 l 1
 457 272 l 1
 750 272 l 1
 750 198 l 1
 90 198 l 1
 90 272 l 1
 383 272 l 1
 383 440 l 1
 107 340 l 1
EndSplineSet
EndChar

StartChar: uni2AE30338.alt
Encoding: 246 -1 222
Width: 840
Flags: HW
HStem: 0 21G<158 228.358 478 552 676 750> 317 74<90 239 329 478> 687 20G<339.625 410 478 552 676 750>
VStem: 478 74<0 317 391 707> 676 74<0 707>
LayerCount: 2
Fore
SplineSet
676 707 m 1
 750 707 l 1
 750 0 l 1
 676 0 l 1
 676 707 l 1
223 -4 m 1
 158 13 l 1
 239 317 l 1
 90 317 l 1
 90 391 l 1
 259 391 l 1
 345 711 l 1
 410 694 l 1
 329 391 l 1
 478 391 l 1
 478 707 l 1
 552 707 l 1
 552 0 l 1
 478 0 l 1
 478 317 l 1
 309 317 l 1
 223 -4 l 1
EndSplineSet
EndChar

StartChar: uni2AE70338
Encoding: 247 -1 223
Width: 840
Flags: HW
HStem: 0 21G<383 457> 435 74<90 383 457 750> 633 74<90 750>
VStem: 383 74<0 168 267 435>
LayerCount: 2
Fore
SplineSet
90 633 m 1
 90 707 l 1
 750 707 l 1
 750 633 l 1
 90 633 l 1
733 367 m 1
 756 304 l 1
 457 195 l 1
 457 0 l 1
 383 0 l 1
 383 168 l 1
 107 68 l 1
 84 131 l 1
 383 240 l 1
 383 435 l 1
 90 435 l 1
 90 509 l 1
 750 509 l 1
 750 435 l 1
 457 435 l 1
 457 267 l 1
 733 367 l 1
EndSplineSet
EndChar

StartChar: uni22AF
Encoding: 248 8879 224
Width: 1038
Flags: HW
HStem: 0 21G<90 164 288 362 529 599.398> 222 74<362 585 674 948> 411 75<362 636 725 948> 687 20G<90 164 288 362 710.667 781>
VStem: 90 74<0 707> 288 74<0 222 296 411 486 707>
LayerCount: 2
Fore
SplineSet
362 411 m 1
 362 296 l 1
 605 296 l 1
 636 411 l 1
 362 411 l 1
164 0 m 1
 90 0 l 1
 90 707 l 1
 164 707 l 1
 164 0 l 1
716 711 m 1
 781 694 l 1
 725 486 l 1
 948 486 l 1
 948 411 l 1
 705 411 l 1
 674 296 l 1
 948 296 l 1
 948 222 l 1
 655 222 l 1
 594 -4 l 1
 529 13 l 1
 585 222 l 1
 362 222 l 1
 362 0 l 1
 288 0 l 1
 288 707 l 1
 362 707 l 1
 362 486 l 1
 656 486 l 1
 716 711 l 1
EndSplineSet
EndChar

StartChar: sym080_uni0338
Encoding: 249 -1 225
Width: 840
Flags: HW
HStem: -106 74<90 750> 92 74<90 288 362 478 552 750>
VStem: 288 74<166 406 504 813> 478 74<166 475 573 813>
LayerCount: 2
Fore
SplineSet
362 166 m 1
 478 166 l 1
 478 475 l 1
 362 433 l 1
 362 166 l 1
750 -32 m 1
 750 -106 l 1
 90 -106 l 1
 90 -32 l 1
 750 -32 l 1
107 340 m 1
 84 403 l 1
 288 477 l 1
 288 813 l 1
 362 813 l 1
 362 504 l 1
 478 546 l 1
 478 813 l 1
 552 813 l 1
 552 573 l 1
 733 639 l 1
 756 576 l 1
 552 502 l 1
 552 166 l 1
 750 166 l 1
 750 92 l 1
 90 92 l 1
 90 166 l 1
 288 166 l 1
 288 406 l 1
 107 340 l 1
EndSplineSet
EndChar

StartChar: uni2AE50338
Encoding: 250 -1 226
Width: 1038
Flags: HW
HStem: 0 21G<257 327.398 676 750 874 948> 222 74<90 313 402 676> 412 74<90 364 453 676> 687 20G<438.667 509 676 750 874 948>
VStem: 676 74<0 222 296 412 486 707> 874 74<0 707>
LayerCount: 2
Fore
SplineSet
676 296 m 1
 676 412 l 1
 433 412 l 1
 402 296 l 1
 676 296 l 1
874 707 m 1
 948 707 l 1
 948 0 l 1
 874 0 l 1
 874 707 l 1
322 -4 m 1
 257 13 l 1
 313 222 l 1
 90 222 l 1
 90 296 l 1
 333 296 l 1
 364 412 l 1
 90 412 l 1
 90 486 l 1
 384 486 l 1
 444 711 l 1
 509 694 l 1
 453 486 l 1
 676 486 l 1
 676 707 l 1
 750 707 l 1
 750 0 l 1
 676 0 l 1
 676 222 l 1
 383 222 l 1
 322 -4 l 1
EndSplineSet
EndChar

StartChar: sym081_uni0338
Encoding: 251 -1 227
Width: 840
Flags: HW
HStem: 541 74<90 288 362 478 552 750> 739 74<90 750>
VStem: 288 74<-106 134 232 541> 478 74<-106 203 301 541>
LayerCount: 2
Fore
SplineSet
478 541 m 1
 362 541 l 1
 362 232 l 1
 478 274 l 1
 478 541 l 1
90 739 m 1
 90 813 l 1
 750 813 l 1
 750 739 l 1
 90 739 l 1
733 367 m 1
 756 304 l 1
 552 230 l 1
 552 -106 l 1
 478 -106 l 1
 478 203 l 1
 362 161 l 1
 362 -106 l 1
 288 -106 l 1
 288 134 l 1
 107 68 l 1
 84 131 l 1
 288 205 l 1
 288 541 l 1
 90 541 l 1
 90 615 l 1
 750 615 l 1
 750 541 l 1
 552 541 l 1
 552 301 l 1
 733 367 l 1
EndSplineSet
EndChar

StartChar: uni22AA0338
Encoding: 252 -1 228
Width: 1038
Flags: HW
HStem: 0 21G<90 164 288 362 486 560 628 698.358> 317 74<560 709 799 948> 687 20G<90 164 288 362 486 560 809.625 880>
VStem: 90 74<0 707> 288 74<0 707> 486 74<0 317 391 707>
CounterMasks: 1 1c
LayerCount: 2
Fore
SplineSet
164 0 m 1
 90 0 l 1
 90 707 l 1
 164 707 l 1
 164 0 l 1
362 0 m 1
 288 0 l 1
 288 707 l 1
 362 707 l 1
 362 0 l 1
815 711 m 1
 880 694 l 1
 799 391 l 1
 948 391 l 1
 948 317 l 1
 779 317 l 1
 693 -4 l 1
 628 13 l 1
 709 317 l 1
 560 317 l 1
 560 0 l 1
 486 0 l 1
 486 707 l 1
 560 707 l 1
 560 391 l 1
 729 391 l 1
 815 711 l 1
EndSplineSet
EndChar

StartChar: sym082_uni0338
Encoding: 253 -1 229
Width: 1038
Flags: HW
HStem: 0 21G<158 228.358 478 552 676 750 874 948> 317 74<90 239 329 478> 687 20G<339.625 410 478 552 676 750 874 948>
VStem: 478 74<0 317 391 707> 676 74<0 707> 874 74<0 707>
CounterMasks: 1 1c
LayerCount: 2
Fore
SplineSet
874 707 m 1
 948 707 l 1
 948 0 l 1
 874 0 l 1
 874 707 l 1
676 707 m 1
 750 707 l 1
 750 0 l 1
 676 0 l 1
 676 707 l 1
223 -4 m 1
 158 13 l 1
 239 317 l 1
 90 317 l 1
 90 391 l 1
 259 391 l 1
 345 711 l 1
 410 694 l 1
 329 391 l 1
 478 391 l 1
 478 707 l 1
 552 707 l 1
 552 0 l 1
 478 0 l 1
 478 317 l 1
 309 317 l 1
 223 -4 l 1
EndSplineSet
EndChar

StartChar: uni2AE20338
Encoding: 254 -1 230
Width: 840
Flags: HW
HStem: 0 17G<90 164 331 401.344> 127 74<164 362 451 750> 317 74<164 412 502 750> 506 75<164 463 553 750> 691 16G<90 164 512.615 583>
VStem: 90 74<0 127 201 317 391 506 581 707>
LayerCount: 2
Fore
SplineSet
164 391 m 1
 432 391 l 1
 463 506 l 1
 164 506 l 1
 164 391 l 1
164 201 m 1
 381 201 l 1
 412 317 l 1
 164 317 l 1
 164 201 l 1
518 711 m 1
 583 694 l 1
 553 581 l 1
 750 581 l 1
 750 506 l 1
 533 506 l 1
 502 391 l 1
 750 391 l 1
 750 317 l 1
 482 317 l 1
 451 201 l 1
 750 201 l 1
 750 127 l 1
 431 127 l 1
 396 -4 l 1
 331 13 l 1
 362 127 l 1
 164 127 l 1
 164 0 l 1
 90 0 l 1
 90 707 l 1
 164 707 l 1
 164 581 l 1
 483 581 l 1
 518 711 l 1
EndSplineSet
EndChar

StartChar: sym083_uni0338
Encoding: 255 -1 231
Width: 840
Flags: HW
HStem: 0 17G<257 327.344 676 750> 127 74<90 288 377 676> 317 74<90 338 428 676> 506 75<90 389 479 676> 691 16G<438.615 509 676 750>
VStem: 676 74<0 127 201 317 391 506 581 707>
LayerCount: 2
Fore
SplineSet
676 317 m 1
 408 317 l 1
 377 201 l 1
 676 201 l 1
 676 317 l 1
676 506 m 1
 459 506 l 1
 428 391 l 1
 676 391 l 1
 676 506 l 1
322 -4 m 1
 257 13 l 1
 288 127 l 1
 90 127 l 1
 90 201 l 1
 307 201 l 1
 338 317 l 1
 90 317 l 1
 90 391 l 1
 358 391 l 1
 389 506 l 1
 90 506 l 1
 90 581 l 1
 409 581 l 1
 444 711 l 1
 509 694 l 1
 479 581 l 1
 676 581 l 1
 676 707 l 1
 750 707 l 1
 750 0 l 1
 676 0 l 1
 676 127 l 1
 357 127 l 1
 322 -4 l 1
EndSplineSet
EndChar
